G04 #@! TF.FileFunction,Legend,Bot*
%FSLAX46Y46*%
G04 Gerber Fmt 4.6, Leading zero omitted, Abs format (unit mm)*
G04 Created by KiCad (PCBNEW 4.0.5) date Sunday, 09. April 2017 'u43' 16:43:39*
%MOMM*%
%LPD*%
G01*
G04 APERTURE LIST*
%ADD10C,0.100000*%
%ADD11C,0.150000*%
%ADD12C,0.200000*%
%ADD13C,0.120000*%
%ADD14C,0.010000*%
G04 APERTURE END LIST*
D10*
D11*
X113500000Y-135000000D02*
G75*
G03X115000000Y-133500000I0J1500000D01*
G01*
X90000000Y-133500000D02*
G75*
G03X91500000Y-135000000I1500000J0D01*
G01*
X115000000Y-111500000D02*
G75*
G03X113500000Y-110000000I-1500000J0D01*
G01*
X91500000Y-110000000D02*
G75*
G03X90000000Y-111500000I0J-1500000D01*
G01*
D12*
X103500000Y-113500000D02*
X104000000Y-114000000D01*
X106000000Y-113500000D02*
X106500000Y-114000000D01*
X104952381Y-114238095D02*
X103952381Y-114238095D01*
X104904762Y-114666666D02*
X104952381Y-114761904D01*
X104952381Y-114952380D01*
X104904762Y-115047619D01*
X104809524Y-115095238D01*
X104761905Y-115095238D01*
X104666667Y-115047619D01*
X104619048Y-114952380D01*
X104619048Y-114809523D01*
X104571429Y-114714285D01*
X104476190Y-114666666D01*
X104428571Y-114666666D01*
X104333333Y-114714285D01*
X104285714Y-114809523D01*
X104285714Y-114952380D01*
X104333333Y-115047619D01*
X104904762Y-115904762D02*
X104952381Y-115809524D01*
X104952381Y-115619047D01*
X104904762Y-115523809D01*
X104809524Y-115476190D01*
X104428571Y-115476190D01*
X104333333Y-115523809D01*
X104285714Y-115619047D01*
X104285714Y-115809524D01*
X104333333Y-115904762D01*
X104428571Y-115952381D01*
X104523810Y-115952381D01*
X104619048Y-115476190D01*
X104285714Y-116238095D02*
X104285714Y-116619047D01*
X103952381Y-116380952D02*
X104809524Y-116380952D01*
X104904762Y-116428571D01*
X104952381Y-116523809D01*
X104952381Y-116619047D01*
X99500000Y-113500000D02*
X99000000Y-114000000D01*
X98183571Y-114238095D02*
X98183571Y-114571429D01*
X98707381Y-114714286D02*
X98707381Y-114238095D01*
X97707381Y-114238095D01*
X97707381Y-114714286D01*
X98707381Y-115142857D02*
X97707381Y-115142857D01*
X98707381Y-115714286D01*
X97707381Y-115714286D01*
X95802381Y-114095238D02*
X96802381Y-114428571D01*
X95802381Y-114761905D01*
X96707143Y-115666667D02*
X96754762Y-115619048D01*
X96802381Y-115476191D01*
X96802381Y-115380953D01*
X96754762Y-115238095D01*
X96659524Y-115142857D01*
X96564286Y-115095238D01*
X96373810Y-115047619D01*
X96230952Y-115047619D01*
X96040476Y-115095238D01*
X95945238Y-115142857D01*
X95850000Y-115238095D01*
X95802381Y-115380953D01*
X95802381Y-115476191D01*
X95850000Y-115619048D01*
X95897619Y-115666667D01*
X96707143Y-116666667D02*
X96754762Y-116619048D01*
X96802381Y-116476191D01*
X96802381Y-116380953D01*
X96754762Y-116238095D01*
X96659524Y-116142857D01*
X96564286Y-116095238D01*
X96373810Y-116047619D01*
X96230952Y-116047619D01*
X96040476Y-116095238D01*
X95945238Y-116142857D01*
X95850000Y-116238095D01*
X95802381Y-116380953D01*
X95802381Y-116476191D01*
X95850000Y-116619048D01*
X95897619Y-116666667D01*
X106857143Y-114809524D02*
X106904762Y-114761905D01*
X106952381Y-114619048D01*
X106952381Y-114523810D01*
X106904762Y-114380952D01*
X106809524Y-114285714D01*
X106714286Y-114238095D01*
X106523810Y-114190476D01*
X106380952Y-114190476D01*
X106190476Y-114238095D01*
X106095238Y-114285714D01*
X106000000Y-114380952D01*
X105952381Y-114523810D01*
X105952381Y-114619048D01*
X106000000Y-114761905D01*
X106047619Y-114809524D01*
X106952381Y-115238095D02*
X105952381Y-115238095D01*
X106428571Y-115238095D02*
X106428571Y-115809524D01*
X106952381Y-115809524D02*
X105952381Y-115809524D01*
X106000000Y-116809524D02*
X105952381Y-116714286D01*
X105952381Y-116571429D01*
X106000000Y-116428571D01*
X106095238Y-116333333D01*
X106190476Y-116285714D01*
X106380952Y-116238095D01*
X106523810Y-116238095D01*
X106714286Y-116285714D01*
X106809524Y-116333333D01*
X106904762Y-116428571D01*
X106952381Y-116571429D01*
X106952381Y-116666667D01*
X106904762Y-116809524D01*
X106857143Y-116857143D01*
X106523810Y-116857143D01*
X106523810Y-116666667D01*
X108000000Y-114761905D02*
X107952381Y-114666667D01*
X107952381Y-114523810D01*
X108000000Y-114380952D01*
X108095238Y-114285714D01*
X108190476Y-114238095D01*
X108380952Y-114190476D01*
X108523810Y-114190476D01*
X108714286Y-114238095D01*
X108809524Y-114285714D01*
X108904762Y-114380952D01*
X108952381Y-114523810D01*
X108952381Y-114619048D01*
X108904762Y-114761905D01*
X108857143Y-114809524D01*
X108523810Y-114809524D01*
X108523810Y-114619048D01*
X108952381Y-115238095D02*
X107952381Y-115238095D01*
X108952381Y-115809524D01*
X107952381Y-115809524D01*
X108952381Y-116285714D02*
X107952381Y-116285714D01*
X107952381Y-116523809D01*
X108000000Y-116666667D01*
X108095238Y-116761905D01*
X108190476Y-116809524D01*
X108380952Y-116857143D01*
X108523810Y-116857143D01*
X108714286Y-116809524D01*
X108809524Y-116761905D01*
X108904762Y-116666667D01*
X108952381Y-116523809D01*
X108952381Y-116285714D01*
X101000000Y-129500000D02*
X102000000Y-128500000D01*
X97500000Y-126500000D02*
X97500000Y-127000000D01*
X99952381Y-127571429D02*
X100095238Y-127523810D01*
X100142857Y-127476190D01*
X100190476Y-127380952D01*
X100190476Y-127238095D01*
X100142857Y-127142857D01*
X100095238Y-127095238D01*
X100000000Y-127047619D01*
X99619047Y-127047619D01*
X99619047Y-128047619D01*
X99952381Y-128047619D01*
X100047619Y-128000000D01*
X100095238Y-127952381D01*
X100142857Y-127857143D01*
X100142857Y-127761905D01*
X100095238Y-127666667D01*
X100047619Y-127619048D01*
X99952381Y-127571429D01*
X99619047Y-127571429D01*
X100571428Y-127333333D02*
X101047619Y-127333333D01*
X100476190Y-127047619D02*
X100809523Y-128047619D01*
X101142857Y-127047619D01*
X101333333Y-128047619D02*
X101904762Y-128047619D01*
X101619047Y-127047619D02*
X101619047Y-128047619D01*
X102952381Y-127095238D02*
X103095238Y-127047619D01*
X103333334Y-127047619D01*
X103428572Y-127095238D01*
X103476191Y-127142857D01*
X103523810Y-127238095D01*
X103523810Y-127333333D01*
X103476191Y-127428571D01*
X103428572Y-127476190D01*
X103333334Y-127523810D01*
X103142857Y-127571429D01*
X103047619Y-127619048D01*
X103000000Y-127666667D01*
X102952381Y-127761905D01*
X102952381Y-127857143D01*
X103000000Y-127952381D01*
X103047619Y-128000000D01*
X103142857Y-128047619D01*
X103380953Y-128047619D01*
X103523810Y-128000000D01*
X103952381Y-127571429D02*
X104285715Y-127571429D01*
X104428572Y-127047619D02*
X103952381Y-127047619D01*
X103952381Y-128047619D01*
X104428572Y-128047619D01*
X104857143Y-127047619D02*
X104857143Y-128047619D01*
X105428572Y-127047619D01*
X105428572Y-128047619D01*
X105857143Y-127095238D02*
X106000000Y-127047619D01*
X106238096Y-127047619D01*
X106333334Y-127095238D01*
X106380953Y-127142857D01*
X106428572Y-127238095D01*
X106428572Y-127333333D01*
X106380953Y-127428571D01*
X106333334Y-127476190D01*
X106238096Y-127523810D01*
X106047619Y-127571429D01*
X105952381Y-127619048D01*
X105904762Y-127666667D01*
X105857143Y-127761905D01*
X105857143Y-127857143D01*
X105904762Y-127952381D01*
X105952381Y-128000000D01*
X106047619Y-128047619D01*
X106285715Y-128047619D01*
X106428572Y-128000000D01*
X96023809Y-125142857D02*
X95976190Y-125095238D01*
X95833333Y-125047619D01*
X95738095Y-125047619D01*
X95595237Y-125095238D01*
X95499999Y-125190476D01*
X95452380Y-125285714D01*
X95404761Y-125476190D01*
X95404761Y-125619048D01*
X95452380Y-125809524D01*
X95499999Y-125904762D01*
X95595237Y-126000000D01*
X95738095Y-126047619D01*
X95833333Y-126047619D01*
X95976190Y-126000000D01*
X96023809Y-125952381D01*
X96452380Y-125047619D02*
X96452380Y-126047619D01*
X96452380Y-125571429D02*
X97023809Y-125571429D01*
X97023809Y-125047619D02*
X97023809Y-126047619D01*
X98023809Y-126000000D02*
X97928571Y-126047619D01*
X97785714Y-126047619D01*
X97642856Y-126000000D01*
X97547618Y-125904762D01*
X97499999Y-125809524D01*
X97452380Y-125619048D01*
X97452380Y-125476190D01*
X97499999Y-125285714D01*
X97547618Y-125190476D01*
X97642856Y-125095238D01*
X97785714Y-125047619D01*
X97880952Y-125047619D01*
X98023809Y-125095238D01*
X98071428Y-125142857D01*
X98071428Y-125476190D01*
X97880952Y-125476190D01*
X99261904Y-125047619D02*
X99261904Y-126047619D01*
X99642857Y-126047619D01*
X99738095Y-126000000D01*
X99785714Y-125952381D01*
X99833333Y-125857143D01*
X99833333Y-125714286D01*
X99785714Y-125619048D01*
X99738095Y-125571429D01*
X99642857Y-125523810D01*
X99261904Y-125523810D01*
X100690476Y-125714286D02*
X100690476Y-125047619D01*
X100261904Y-125714286D02*
X100261904Y-125190476D01*
X100309523Y-125095238D01*
X100404761Y-125047619D01*
X100547619Y-125047619D01*
X100642857Y-125095238D01*
X100690476Y-125142857D01*
X101309523Y-125047619D02*
X101214285Y-125095238D01*
X101166666Y-125190476D01*
X101166666Y-126047619D01*
X101833333Y-125047619D02*
X101738095Y-125095238D01*
X101690476Y-125190476D01*
X101690476Y-126047619D01*
X102642858Y-125714286D02*
X102642858Y-125047619D01*
X102214286Y-125714286D02*
X102214286Y-125190476D01*
X102261905Y-125095238D01*
X102357143Y-125047619D01*
X102500001Y-125047619D01*
X102595239Y-125095238D01*
X102642858Y-125142857D01*
X103119048Y-125714286D02*
X103119048Y-124714286D01*
X103119048Y-125666667D02*
X103214286Y-125714286D01*
X103404763Y-125714286D01*
X103500001Y-125666667D01*
X103547620Y-125619048D01*
X103595239Y-125523810D01*
X103595239Y-125238095D01*
X103547620Y-125142857D01*
X103500001Y-125095238D01*
X103404763Y-125047619D01*
X103214286Y-125047619D01*
X103119048Y-125095238D01*
X103476190Y-117571429D02*
X102714285Y-117571429D01*
X102238095Y-117428571D02*
X101904761Y-117428571D01*
X101761904Y-117952381D02*
X102238095Y-117952381D01*
X102238095Y-116952381D01*
X101761904Y-116952381D01*
X101333333Y-117952381D02*
X101333333Y-116952381D01*
X100761904Y-117952381D01*
X100761904Y-116952381D01*
X100285714Y-117571429D02*
X99523809Y-117571429D01*
X99904761Y-117952381D02*
X99904761Y-117190476D01*
D10*
X108811905Y-118847381D02*
X108811905Y-117847381D01*
X108811905Y-118228333D02*
X108716667Y-118180714D01*
X108526190Y-118180714D01*
X108430952Y-118228333D01*
X108383333Y-118275952D01*
X108335714Y-118371190D01*
X108335714Y-118656905D01*
X108383333Y-118752143D01*
X108430952Y-118799762D01*
X108526190Y-118847381D01*
X108716667Y-118847381D01*
X108811905Y-118799762D01*
X107478571Y-118180714D02*
X107478571Y-119180714D01*
X107478571Y-118799762D02*
X107573809Y-118847381D01*
X107764286Y-118847381D01*
X107859524Y-118799762D01*
X107907143Y-118752143D01*
X107954762Y-118656905D01*
X107954762Y-118371190D01*
X107907143Y-118275952D01*
X107859524Y-118228333D01*
X107764286Y-118180714D01*
X107573809Y-118180714D01*
X107478571Y-118228333D01*
X107050000Y-117942619D02*
X107002381Y-117895000D01*
X106907143Y-117847381D01*
X106669047Y-117847381D01*
X106573809Y-117895000D01*
X106526190Y-117942619D01*
X106478571Y-118037857D01*
X106478571Y-118133095D01*
X106526190Y-118275952D01*
X107097619Y-118847381D01*
X106478571Y-118847381D01*
X105573809Y-117847381D02*
X106050000Y-117847381D01*
X106097619Y-118323571D01*
X106050000Y-118275952D01*
X105954762Y-118228333D01*
X105716666Y-118228333D01*
X105621428Y-118275952D01*
X105573809Y-118323571D01*
X105526190Y-118418810D01*
X105526190Y-118656905D01*
X105573809Y-118752143D01*
X105621428Y-118799762D01*
X105716666Y-118847381D01*
X105954762Y-118847381D01*
X106050000Y-118799762D01*
X106097619Y-118752143D01*
X104907143Y-117847381D02*
X104811904Y-117847381D01*
X104716666Y-117895000D01*
X104669047Y-117942619D01*
X104621428Y-118037857D01*
X104573809Y-118228333D01*
X104573809Y-118466429D01*
X104621428Y-118656905D01*
X104669047Y-118752143D01*
X104716666Y-118799762D01*
X104811904Y-118847381D01*
X104907143Y-118847381D01*
X105002381Y-118799762D01*
X105050000Y-118752143D01*
X105097619Y-118656905D01*
X105145238Y-118466429D01*
X105145238Y-118228333D01*
X105097619Y-118037857D01*
X105050000Y-117942619D01*
X105002381Y-117895000D01*
X104907143Y-117847381D01*
X104240476Y-117847381D02*
X103573809Y-117847381D01*
X104002381Y-118847381D01*
X102669047Y-118847381D02*
X103240476Y-118847381D01*
X102954762Y-118847381D02*
X102954762Y-117847381D01*
X103050000Y-117990238D01*
X103145238Y-118085476D01*
X103240476Y-118133095D01*
X108335714Y-120447381D02*
X108811905Y-120447381D01*
X108811905Y-119447381D01*
X108002381Y-120447381D02*
X108002381Y-119780714D01*
X108002381Y-119447381D02*
X108050000Y-119495000D01*
X108002381Y-119542619D01*
X107954762Y-119495000D01*
X108002381Y-119447381D01*
X108002381Y-119542619D01*
X107192857Y-119923571D02*
X107526191Y-119923571D01*
X107526191Y-120447381D02*
X107526191Y-119447381D01*
X107050000Y-119447381D01*
X106288095Y-120399762D02*
X106383333Y-120447381D01*
X106573810Y-120447381D01*
X106669048Y-120399762D01*
X106716667Y-120304524D01*
X106716667Y-119923571D01*
X106669048Y-119828333D01*
X106573810Y-119780714D01*
X106383333Y-119780714D01*
X106288095Y-119828333D01*
X106240476Y-119923571D01*
X106240476Y-120018810D01*
X106716667Y-120114048D01*
X105811905Y-120447381D02*
X105811905Y-119447381D01*
X105430952Y-119447381D01*
X105335714Y-119495000D01*
X105288095Y-119542619D01*
X105240476Y-119637857D01*
X105240476Y-119780714D01*
X105288095Y-119875952D01*
X105335714Y-119923571D01*
X105430952Y-119971190D01*
X105811905Y-119971190D01*
X104669048Y-120447381D02*
X104764286Y-120399762D01*
X104811905Y-120352143D01*
X104859524Y-120256905D01*
X104859524Y-119971190D01*
X104811905Y-119875952D01*
X104764286Y-119828333D01*
X104669048Y-119780714D01*
X104526190Y-119780714D01*
X104430952Y-119828333D01*
X104383333Y-119875952D01*
X104335714Y-119971190D01*
X104335714Y-120256905D01*
X104383333Y-120352143D01*
X104430952Y-120399762D01*
X104526190Y-120447381D01*
X104669048Y-120447381D01*
X103478571Y-119780714D02*
X103478571Y-120447381D01*
X103716667Y-119399762D02*
X103954762Y-120114048D01*
X103335714Y-120114048D01*
X108288095Y-122047381D02*
X108859524Y-122047381D01*
X108573810Y-122047381D02*
X108573810Y-121047381D01*
X108669048Y-121190238D01*
X108764286Y-121285476D01*
X108859524Y-121333095D01*
X107907143Y-121761667D02*
X107430952Y-121761667D01*
X108002381Y-122047381D02*
X107669048Y-121047381D01*
X107335714Y-122047381D01*
X105669047Y-121952143D02*
X105716666Y-121999762D01*
X105859523Y-122047381D01*
X105954761Y-122047381D01*
X106097619Y-121999762D01*
X106192857Y-121904524D01*
X106240476Y-121809286D01*
X106288095Y-121618810D01*
X106288095Y-121475952D01*
X106240476Y-121285476D01*
X106192857Y-121190238D01*
X106097619Y-121095000D01*
X105954761Y-121047381D01*
X105859523Y-121047381D01*
X105716666Y-121095000D01*
X105669047Y-121142619D01*
X105240476Y-122047381D02*
X105240476Y-121047381D01*
X104811904Y-122047381D02*
X104811904Y-121523571D01*
X104859523Y-121428333D01*
X104954761Y-121380714D01*
X105097619Y-121380714D01*
X105192857Y-121428333D01*
X105240476Y-121475952D01*
X103907142Y-122047381D02*
X103907142Y-121523571D01*
X103954761Y-121428333D01*
X104049999Y-121380714D01*
X104240476Y-121380714D01*
X104335714Y-121428333D01*
X103907142Y-121999762D02*
X104002380Y-122047381D01*
X104240476Y-122047381D01*
X104335714Y-121999762D01*
X104383333Y-121904524D01*
X104383333Y-121809286D01*
X104335714Y-121714048D01*
X104240476Y-121666429D01*
X104002380Y-121666429D01*
X103907142Y-121618810D01*
X103430952Y-122047381D02*
X103430952Y-121380714D01*
X103430952Y-121571190D02*
X103383333Y-121475952D01*
X103335714Y-121428333D01*
X103240476Y-121380714D01*
X103145237Y-121380714D01*
X102383332Y-121380714D02*
X102383332Y-122190238D01*
X102430951Y-122285476D01*
X102478570Y-122333095D01*
X102573809Y-122380714D01*
X102716666Y-122380714D01*
X102811904Y-122333095D01*
X102383332Y-121999762D02*
X102478570Y-122047381D01*
X102669047Y-122047381D01*
X102764285Y-121999762D01*
X102811904Y-121952143D01*
X102859523Y-121856905D01*
X102859523Y-121571190D01*
X102811904Y-121475952D01*
X102764285Y-121428333D01*
X102669047Y-121380714D01*
X102478570Y-121380714D01*
X102383332Y-121428333D01*
X101526189Y-121999762D02*
X101621427Y-122047381D01*
X101811904Y-122047381D01*
X101907142Y-121999762D01*
X101954761Y-121904524D01*
X101954761Y-121523571D01*
X101907142Y-121428333D01*
X101811904Y-121380714D01*
X101621427Y-121380714D01*
X101526189Y-121428333D01*
X101478570Y-121523571D01*
X101478570Y-121618810D01*
X101954761Y-121714048D01*
X101049999Y-122047381D02*
X101049999Y-121380714D01*
X101049999Y-121571190D02*
X101002380Y-121475952D01*
X100954761Y-121428333D01*
X100859523Y-121380714D01*
X100764284Y-121380714D01*
X108907143Y-122980714D02*
X108669048Y-123647381D01*
X108430952Y-122980714D01*
X107526190Y-123647381D02*
X108097619Y-123647381D01*
X107811905Y-123647381D02*
X107811905Y-122647381D01*
X107907143Y-122790238D01*
X108002381Y-122885476D01*
X108097619Y-122933095D01*
X106335714Y-123647381D02*
X106335714Y-122647381D01*
X106335714Y-123028333D02*
X106240476Y-122980714D01*
X106049999Y-122980714D01*
X105954761Y-123028333D01*
X105907142Y-123075952D01*
X105859523Y-123171190D01*
X105859523Y-123456905D01*
X105907142Y-123552143D01*
X105954761Y-123599762D01*
X106049999Y-123647381D01*
X106240476Y-123647381D01*
X106335714Y-123599762D01*
X105526190Y-122980714D02*
X105288095Y-123647381D01*
X105049999Y-122980714D02*
X105288095Y-123647381D01*
X105383333Y-123885476D01*
X105430952Y-123933095D01*
X105526190Y-123980714D01*
X103288094Y-123171190D02*
X103335713Y-123123571D01*
X103430951Y-123075952D01*
X103526189Y-123075952D01*
X103621427Y-123123571D01*
X103669047Y-123171190D01*
X103716666Y-123266429D01*
X103716666Y-123361667D01*
X103669047Y-123456905D01*
X103621427Y-123504524D01*
X103526189Y-123552143D01*
X103430951Y-123552143D01*
X103335713Y-123504524D01*
X103288094Y-123456905D01*
X103288094Y-123075952D02*
X103288094Y-123456905D01*
X103240475Y-123504524D01*
X103192856Y-123504524D01*
X103097618Y-123456905D01*
X103049999Y-123361667D01*
X103049999Y-123123571D01*
X103145237Y-122980714D01*
X103288094Y-122885476D01*
X103478570Y-122837857D01*
X103669047Y-122885476D01*
X103811904Y-122980714D01*
X103907142Y-123123571D01*
X103954761Y-123314048D01*
X103907142Y-123504524D01*
X103811904Y-123647381D01*
X103669047Y-123742619D01*
X103478570Y-123790238D01*
X103288094Y-123742619D01*
X103145237Y-123647381D01*
X102621428Y-123647381D02*
X102621428Y-122647381D01*
X102526190Y-123266429D02*
X102240475Y-123647381D01*
X102240475Y-122980714D02*
X102621428Y-123361667D01*
X101383332Y-122980714D02*
X101383332Y-123647381D01*
X101811904Y-122980714D02*
X101811904Y-123504524D01*
X101764285Y-123599762D01*
X101669047Y-123647381D01*
X101526189Y-123647381D01*
X101430951Y-123599762D01*
X101383332Y-123552143D01*
X100478570Y-122980714D02*
X100478570Y-123790238D01*
X100526189Y-123885476D01*
X100573808Y-123933095D01*
X100669047Y-123980714D01*
X100811904Y-123980714D01*
X100907142Y-123933095D01*
X100478570Y-123599762D02*
X100573808Y-123647381D01*
X100764285Y-123647381D01*
X100859523Y-123599762D01*
X100907142Y-123552143D01*
X100954761Y-123456905D01*
X100954761Y-123171190D01*
X100907142Y-123075952D01*
X100859523Y-123028333D01*
X100764285Y-122980714D01*
X100573808Y-122980714D01*
X100478570Y-123028333D01*
X99621427Y-123599762D02*
X99716665Y-123647381D01*
X99907142Y-123647381D01*
X100002380Y-123599762D01*
X100049999Y-123504524D01*
X100049999Y-123123571D01*
X100002380Y-123028333D01*
X99907142Y-122980714D01*
X99716665Y-122980714D01*
X99621427Y-123028333D01*
X99573808Y-123123571D01*
X99573808Y-123218810D01*
X100049999Y-123314048D01*
X99002380Y-123647381D02*
X99097618Y-123599762D01*
X99145237Y-123504524D01*
X99145237Y-122647381D01*
X98669046Y-122742619D02*
X98621427Y-122695000D01*
X98526189Y-122647381D01*
X98288093Y-122647381D01*
X98192855Y-122695000D01*
X98145236Y-122742619D01*
X98097617Y-122837857D01*
X98097617Y-122933095D01*
X98145236Y-123075952D01*
X98716665Y-123647381D01*
X98097617Y-123647381D01*
D12*
X101000000Y-132000000D02*
X102000000Y-131000000D01*
X102190476Y-129595238D02*
X102333333Y-129547619D01*
X102571429Y-129547619D01*
X102666667Y-129595238D01*
X102714286Y-129642857D01*
X102761905Y-129738095D01*
X102761905Y-129833333D01*
X102714286Y-129928571D01*
X102666667Y-129976190D01*
X102571429Y-130023810D01*
X102380952Y-130071429D01*
X102285714Y-130119048D01*
X102238095Y-130166667D01*
X102190476Y-130261905D01*
X102190476Y-130357143D01*
X102238095Y-130452381D01*
X102285714Y-130500000D01*
X102380952Y-130547619D01*
X102619048Y-130547619D01*
X102761905Y-130500000D01*
X103190476Y-130071429D02*
X103523810Y-130071429D01*
X103666667Y-129547619D02*
X103190476Y-129547619D01*
X103190476Y-130547619D01*
X103666667Y-130547619D01*
X104095238Y-129547619D02*
X104095238Y-130547619D01*
X104666667Y-129547619D01*
X104666667Y-130547619D01*
X105095238Y-129595238D02*
X105238095Y-129547619D01*
X105476191Y-129547619D01*
X105571429Y-129595238D01*
X105619048Y-129642857D01*
X105666667Y-129738095D01*
X105666667Y-129833333D01*
X105619048Y-129928571D01*
X105571429Y-129976190D01*
X105476191Y-130023810D01*
X105285714Y-130071429D01*
X105190476Y-130119048D01*
X105142857Y-130166667D01*
X105095238Y-130261905D01*
X105095238Y-130357143D01*
X105142857Y-130452381D01*
X105190476Y-130500000D01*
X105285714Y-130547619D01*
X105523810Y-130547619D01*
X105666667Y-130500000D01*
D11*
X113500000Y-135000000D02*
X91500000Y-135000000D01*
X115000000Y-111500000D02*
X115000000Y-133500000D01*
X91500000Y-110000000D02*
X113500000Y-110000000D01*
X90000000Y-133500000D02*
X90000000Y-111500000D01*
D13*
X100790000Y-131210000D02*
X98250000Y-131210000D01*
X98250000Y-129430000D02*
X100790000Y-129430000D01*
X98250000Y-129430000D02*
X98250000Y-131210000D01*
X100790000Y-131210000D02*
X100790000Y-129430000D01*
X98770000Y-128890000D02*
X96230000Y-128890000D01*
X96230000Y-127110000D02*
X98770000Y-127110000D01*
X96230000Y-127110000D02*
X96230000Y-128890000D01*
X98770000Y-128890000D02*
X98770000Y-127110000D01*
D14*
G36*
X91890082Y-121290256D02*
X91862432Y-121234799D01*
X91811520Y-121185852D01*
X91792662Y-121172371D01*
X91767985Y-121157686D01*
X91741184Y-121148158D01*
X91705413Y-121142707D01*
X91653831Y-121140253D01*
X91585733Y-121139714D01*
X91492412Y-121142148D01*
X91422343Y-121150606D01*
X91370069Y-121166826D01*
X91330131Y-121192546D01*
X91297071Y-121229503D01*
X91295114Y-121232218D01*
X91275092Y-121268640D01*
X91265185Y-121312498D01*
X91262743Y-121368276D01*
X91262743Y-121458952D01*
X91174717Y-121458990D01*
X91125692Y-121459834D01*
X91096935Y-121464976D01*
X91079689Y-121478413D01*
X91065192Y-121504142D01*
X91062231Y-121510321D01*
X91048352Y-121539236D01*
X91039586Y-121561624D01*
X91038829Y-121578271D01*
X91048977Y-121589964D01*
X91072927Y-121597490D01*
X91113574Y-121601634D01*
X91173814Y-121603185D01*
X91256545Y-121602929D01*
X91364661Y-121601651D01*
X91397000Y-121601252D01*
X91508476Y-121599815D01*
X91581397Y-121598528D01*
X91581397Y-121459029D01*
X91519501Y-121458245D01*
X91479003Y-121454760D01*
X91452292Y-121446876D01*
X91431756Y-121432895D01*
X91421740Y-121423403D01*
X91392433Y-121384596D01*
X91390048Y-121350237D01*
X91414250Y-121314784D01*
X91415143Y-121313886D01*
X91433847Y-121299461D01*
X91459268Y-121290687D01*
X91498416Y-121286261D01*
X91558303Y-121284882D01*
X91571570Y-121284857D01*
X91654099Y-121288188D01*
X91711309Y-121299031D01*
X91746234Y-121318660D01*
X91761906Y-121348350D01*
X91763486Y-121365509D01*
X91756074Y-121406234D01*
X91731670Y-121434168D01*
X91687020Y-121450983D01*
X91618870Y-121458350D01*
X91581397Y-121459029D01*
X91581397Y-121598528D01*
X91594755Y-121598292D01*
X91659667Y-121596323D01*
X91707042Y-121593550D01*
X91740710Y-121589612D01*
X91764502Y-121584151D01*
X91782247Y-121576808D01*
X91797776Y-121567223D01*
X91803619Y-121563113D01*
X91858815Y-121508595D01*
X91890110Y-121439664D01*
X91898835Y-121359928D01*
X91890082Y-121290256D01*
X91890082Y-121290256D01*
G37*
X91890082Y-121290256D02*
X91862432Y-121234799D01*
X91811520Y-121185852D01*
X91792662Y-121172371D01*
X91767985Y-121157686D01*
X91741184Y-121148158D01*
X91705413Y-121142707D01*
X91653831Y-121140253D01*
X91585733Y-121139714D01*
X91492412Y-121142148D01*
X91422343Y-121150606D01*
X91370069Y-121166826D01*
X91330131Y-121192546D01*
X91297071Y-121229503D01*
X91295114Y-121232218D01*
X91275092Y-121268640D01*
X91265185Y-121312498D01*
X91262743Y-121368276D01*
X91262743Y-121458952D01*
X91174717Y-121458990D01*
X91125692Y-121459834D01*
X91096935Y-121464976D01*
X91079689Y-121478413D01*
X91065192Y-121504142D01*
X91062231Y-121510321D01*
X91048352Y-121539236D01*
X91039586Y-121561624D01*
X91038829Y-121578271D01*
X91048977Y-121589964D01*
X91072927Y-121597490D01*
X91113574Y-121601634D01*
X91173814Y-121603185D01*
X91256545Y-121602929D01*
X91364661Y-121601651D01*
X91397000Y-121601252D01*
X91508476Y-121599815D01*
X91581397Y-121598528D01*
X91581397Y-121459029D01*
X91519501Y-121458245D01*
X91479003Y-121454760D01*
X91452292Y-121446876D01*
X91431756Y-121432895D01*
X91421740Y-121423403D01*
X91392433Y-121384596D01*
X91390048Y-121350237D01*
X91414250Y-121314784D01*
X91415143Y-121313886D01*
X91433847Y-121299461D01*
X91459268Y-121290687D01*
X91498416Y-121286261D01*
X91558303Y-121284882D01*
X91571570Y-121284857D01*
X91654099Y-121288188D01*
X91711309Y-121299031D01*
X91746234Y-121318660D01*
X91761906Y-121348350D01*
X91763486Y-121365509D01*
X91756074Y-121406234D01*
X91731670Y-121434168D01*
X91687020Y-121450983D01*
X91618870Y-121458350D01*
X91581397Y-121459029D01*
X91581397Y-121598528D01*
X91594755Y-121598292D01*
X91659667Y-121596323D01*
X91707042Y-121593550D01*
X91740710Y-121589612D01*
X91764502Y-121584151D01*
X91782247Y-121576808D01*
X91797776Y-121567223D01*
X91803619Y-121563113D01*
X91858815Y-121508595D01*
X91890110Y-121439664D01*
X91898835Y-121359928D01*
X91890082Y-121290256D01*
G36*
X91882220Y-120173907D02*
X91855277Y-120127328D01*
X91828534Y-120094943D01*
X91800516Y-120071258D01*
X91766252Y-120054941D01*
X91720773Y-120044661D01*
X91659108Y-120039086D01*
X91576289Y-120036884D01*
X91516754Y-120036629D01*
X91297609Y-120036629D01*
X91269956Y-120098314D01*
X91242303Y-120160000D01*
X91482330Y-120167257D01*
X91571972Y-120170256D01*
X91637038Y-120173402D01*
X91681974Y-120177299D01*
X91711230Y-120182553D01*
X91729252Y-120189769D01*
X91740489Y-120199550D01*
X91742921Y-120202688D01*
X91761917Y-120250239D01*
X91754400Y-120298303D01*
X91734457Y-120326914D01*
X91720325Y-120338553D01*
X91701780Y-120346609D01*
X91673666Y-120351729D01*
X91630827Y-120354559D01*
X91568105Y-120355744D01*
X91502739Y-120355943D01*
X91420732Y-120355982D01*
X91362684Y-120357386D01*
X91323535Y-120362086D01*
X91298220Y-120372013D01*
X91281677Y-120389097D01*
X91268844Y-120415268D01*
X91255509Y-120450225D01*
X91240993Y-120488404D01*
X91498611Y-120483859D01*
X91591481Y-120482029D01*
X91660111Y-120479888D01*
X91709289Y-120476819D01*
X91743802Y-120472206D01*
X91768438Y-120465432D01*
X91787984Y-120455881D01*
X91805230Y-120444366D01*
X91860320Y-120388810D01*
X91892178Y-120321020D01*
X91899809Y-120247287D01*
X91882220Y-120173907D01*
X91882220Y-120173907D01*
G37*
X91882220Y-120173907D02*
X91855277Y-120127328D01*
X91828534Y-120094943D01*
X91800516Y-120071258D01*
X91766252Y-120054941D01*
X91720773Y-120044661D01*
X91659108Y-120039086D01*
X91576289Y-120036884D01*
X91516754Y-120036629D01*
X91297609Y-120036629D01*
X91269956Y-120098314D01*
X91242303Y-120160000D01*
X91482330Y-120167257D01*
X91571972Y-120170256D01*
X91637038Y-120173402D01*
X91681974Y-120177299D01*
X91711230Y-120182553D01*
X91729252Y-120189769D01*
X91740489Y-120199550D01*
X91742921Y-120202688D01*
X91761917Y-120250239D01*
X91754400Y-120298303D01*
X91734457Y-120326914D01*
X91720325Y-120338553D01*
X91701780Y-120346609D01*
X91673666Y-120351729D01*
X91630827Y-120354559D01*
X91568105Y-120355744D01*
X91502739Y-120355943D01*
X91420732Y-120355982D01*
X91362684Y-120357386D01*
X91323535Y-120362086D01*
X91298220Y-120372013D01*
X91281677Y-120389097D01*
X91268844Y-120415268D01*
X91255509Y-120450225D01*
X91240993Y-120488404D01*
X91498611Y-120483859D01*
X91591481Y-120482029D01*
X91660111Y-120479888D01*
X91709289Y-120476819D01*
X91743802Y-120472206D01*
X91768438Y-120465432D01*
X91787984Y-120455881D01*
X91805230Y-120444366D01*
X91860320Y-120388810D01*
X91892178Y-120321020D01*
X91899809Y-120247287D01*
X91882220Y-120173907D01*
G36*
X91888038Y-121848885D02*
X91852267Y-121780855D01*
X91794699Y-121730649D01*
X91757688Y-121712815D01*
X91702118Y-121698937D01*
X91631904Y-121691833D01*
X91555273Y-121691160D01*
X91480448Y-121696573D01*
X91415658Y-121707730D01*
X91369127Y-121724286D01*
X91361113Y-121729374D01*
X91301293Y-121789645D01*
X91265465Y-121861231D01*
X91254980Y-121938908D01*
X91271190Y-122017452D01*
X91280908Y-122039311D01*
X91310857Y-122081878D01*
X91350567Y-122119237D01*
X91355603Y-122122768D01*
X91379876Y-122137119D01*
X91405822Y-122146606D01*
X91439978Y-122152210D01*
X91488881Y-122154914D01*
X91559065Y-122155701D01*
X91574800Y-122155714D01*
X91579808Y-122155678D01*
X91579808Y-122010571D01*
X91513570Y-122009727D01*
X91469614Y-122006404D01*
X91441221Y-121999417D01*
X91421675Y-121987584D01*
X91415143Y-121981543D01*
X91390320Y-121946814D01*
X91391452Y-121913097D01*
X91412984Y-121879005D01*
X91435971Y-121858671D01*
X91469522Y-121846629D01*
X91522431Y-121839866D01*
X91528601Y-121839402D01*
X91624487Y-121838248D01*
X91695701Y-121850312D01*
X91741806Y-121875430D01*
X91762365Y-121913440D01*
X91763486Y-121927008D01*
X91757848Y-121962636D01*
X91738314Y-121987006D01*
X91700958Y-122001907D01*
X91641850Y-122009125D01*
X91579808Y-122010571D01*
X91579808Y-122155678D01*
X91649587Y-122155174D01*
X91701841Y-122152904D01*
X91738051Y-122147932D01*
X91764701Y-122139287D01*
X91788278Y-122125995D01*
X91792662Y-122123057D01*
X91851751Y-122073687D01*
X91886053Y-122019891D01*
X91899669Y-121954398D01*
X91900335Y-121932158D01*
X91888038Y-121848885D01*
X91888038Y-121848885D01*
G37*
X91888038Y-121848885D02*
X91852267Y-121780855D01*
X91794699Y-121730649D01*
X91757688Y-121712815D01*
X91702118Y-121698937D01*
X91631904Y-121691833D01*
X91555273Y-121691160D01*
X91480448Y-121696573D01*
X91415658Y-121707730D01*
X91369127Y-121724286D01*
X91361113Y-121729374D01*
X91301293Y-121789645D01*
X91265465Y-121861231D01*
X91254980Y-121938908D01*
X91271190Y-122017452D01*
X91280908Y-122039311D01*
X91310857Y-122081878D01*
X91350567Y-122119237D01*
X91355603Y-122122768D01*
X91379876Y-122137119D01*
X91405822Y-122146606D01*
X91439978Y-122152210D01*
X91488881Y-122154914D01*
X91559065Y-122155701D01*
X91574800Y-122155714D01*
X91579808Y-122155678D01*
X91579808Y-122010571D01*
X91513570Y-122009727D01*
X91469614Y-122006404D01*
X91441221Y-121999417D01*
X91421675Y-121987584D01*
X91415143Y-121981543D01*
X91390320Y-121946814D01*
X91391452Y-121913097D01*
X91412984Y-121879005D01*
X91435971Y-121858671D01*
X91469522Y-121846629D01*
X91522431Y-121839866D01*
X91528601Y-121839402D01*
X91624487Y-121838248D01*
X91695701Y-121850312D01*
X91741806Y-121875430D01*
X91762365Y-121913440D01*
X91763486Y-121927008D01*
X91757848Y-121962636D01*
X91738314Y-121987006D01*
X91700958Y-122001907D01*
X91641850Y-122009125D01*
X91579808Y-122010571D01*
X91579808Y-122155678D01*
X91649587Y-122155174D01*
X91701841Y-122152904D01*
X91738051Y-122147932D01*
X91764701Y-122139287D01*
X91788278Y-122125995D01*
X91792662Y-122123057D01*
X91851751Y-122073687D01*
X91886053Y-122019891D01*
X91899669Y-121954398D01*
X91900335Y-121932158D01*
X91888038Y-121848885D01*
G36*
X91878761Y-120721697D02*
X91840265Y-120664473D01*
X91784665Y-120620251D01*
X91713914Y-120593833D01*
X91661838Y-120588490D01*
X91640107Y-120589097D01*
X91623469Y-120594178D01*
X91608563Y-120608145D01*
X91592027Y-120635411D01*
X91570502Y-120680388D01*
X91540626Y-120747489D01*
X91540476Y-120747829D01*
X91512187Y-120809593D01*
X91487067Y-120860241D01*
X91467821Y-120894596D01*
X91457152Y-120907482D01*
X91457066Y-120907486D01*
X91433834Y-120896128D01*
X91408226Y-120869569D01*
X91389779Y-120839077D01*
X91386114Y-120823630D01*
X91398788Y-120781485D01*
X91430529Y-120745192D01*
X91465428Y-120727483D01*
X91491155Y-120710448D01*
X91520454Y-120677078D01*
X91545765Y-120637851D01*
X91559529Y-120603244D01*
X91560286Y-120596007D01*
X91547840Y-120587861D01*
X91516028Y-120587370D01*
X91473134Y-120593357D01*
X91427442Y-120604643D01*
X91387239Y-120620050D01*
X91385678Y-120620829D01*
X91320938Y-120667196D01*
X91276903Y-120727289D01*
X91255289Y-120795535D01*
X91257815Y-120866362D01*
X91286196Y-120934196D01*
X91288192Y-120937212D01*
X91336552Y-120990573D01*
X91399648Y-121025660D01*
X91482613Y-121045078D01*
X91505922Y-121047684D01*
X91615945Y-121052299D01*
X91667252Y-121046767D01*
X91667252Y-120907486D01*
X91635247Y-120905676D01*
X91625907Y-120895778D01*
X91632895Y-120871102D01*
X91649413Y-120832205D01*
X91670119Y-120788725D01*
X91670667Y-120787644D01*
X91690051Y-120750791D01*
X91702987Y-120736000D01*
X91716549Y-120739647D01*
X91734368Y-120755005D01*
X91760155Y-120794077D01*
X91762050Y-120836154D01*
X91743283Y-120873897D01*
X91707085Y-120899966D01*
X91667252Y-120907486D01*
X91667252Y-121046767D01*
X91703973Y-121042806D01*
X91773788Y-121018450D01*
X91822698Y-120984544D01*
X91872122Y-120923347D01*
X91896641Y-120855937D01*
X91898203Y-120787120D01*
X91878761Y-120721697D01*
X91878761Y-120721697D01*
G37*
X91878761Y-120721697D02*
X91840265Y-120664473D01*
X91784665Y-120620251D01*
X91713914Y-120593833D01*
X91661838Y-120588490D01*
X91640107Y-120589097D01*
X91623469Y-120594178D01*
X91608563Y-120608145D01*
X91592027Y-120635411D01*
X91570502Y-120680388D01*
X91540626Y-120747489D01*
X91540476Y-120747829D01*
X91512187Y-120809593D01*
X91487067Y-120860241D01*
X91467821Y-120894596D01*
X91457152Y-120907482D01*
X91457066Y-120907486D01*
X91433834Y-120896128D01*
X91408226Y-120869569D01*
X91389779Y-120839077D01*
X91386114Y-120823630D01*
X91398788Y-120781485D01*
X91430529Y-120745192D01*
X91465428Y-120727483D01*
X91491155Y-120710448D01*
X91520454Y-120677078D01*
X91545765Y-120637851D01*
X91559529Y-120603244D01*
X91560286Y-120596007D01*
X91547840Y-120587861D01*
X91516028Y-120587370D01*
X91473134Y-120593357D01*
X91427442Y-120604643D01*
X91387239Y-120620050D01*
X91385678Y-120620829D01*
X91320938Y-120667196D01*
X91276903Y-120727289D01*
X91255289Y-120795535D01*
X91257815Y-120866362D01*
X91286196Y-120934196D01*
X91288192Y-120937212D01*
X91336552Y-120990573D01*
X91399648Y-121025660D01*
X91482613Y-121045078D01*
X91505922Y-121047684D01*
X91615945Y-121052299D01*
X91667252Y-121046767D01*
X91667252Y-120907486D01*
X91635247Y-120905676D01*
X91625907Y-120895778D01*
X91632895Y-120871102D01*
X91649413Y-120832205D01*
X91670119Y-120788725D01*
X91670667Y-120787644D01*
X91690051Y-120750791D01*
X91702987Y-120736000D01*
X91716549Y-120739647D01*
X91734368Y-120755005D01*
X91760155Y-120794077D01*
X91762050Y-120836154D01*
X91743283Y-120873897D01*
X91707085Y-120899966D01*
X91667252Y-120907486D01*
X91667252Y-121046767D01*
X91703973Y-121042806D01*
X91773788Y-121018450D01*
X91822698Y-120984544D01*
X91872122Y-120923347D01*
X91896641Y-120855937D01*
X91898203Y-120787120D01*
X91878761Y-120721697D01*
G36*
X91958711Y-119514114D02*
X91899387Y-119509861D01*
X91864428Y-119504975D01*
X91849180Y-119498205D01*
X91848985Y-119488298D01*
X91850805Y-119485086D01*
X91863985Y-119442356D01*
X91863215Y-119386773D01*
X91849667Y-119330263D01*
X91832139Y-119294918D01*
X91804139Y-119258679D01*
X91772451Y-119232187D01*
X91732187Y-119214001D01*
X91678457Y-119202678D01*
X91606374Y-119196778D01*
X91511049Y-119194857D01*
X91492763Y-119194823D01*
X91287354Y-119194800D01*
X91271420Y-119240509D01*
X91260580Y-119272973D01*
X91255532Y-119290785D01*
X91255486Y-119291309D01*
X91269172Y-119293063D01*
X91306924Y-119294556D01*
X91363776Y-119295674D01*
X91434766Y-119296303D01*
X91477927Y-119296400D01*
X91563027Y-119296602D01*
X91624019Y-119297642D01*
X91665823Y-119300169D01*
X91693358Y-119304836D01*
X91711544Y-119312293D01*
X91725302Y-119323189D01*
X91731927Y-119329993D01*
X91758625Y-119376728D01*
X91760625Y-119427728D01*
X91738045Y-119473999D01*
X91729893Y-119482556D01*
X91714564Y-119495107D01*
X91696382Y-119503812D01*
X91670091Y-119509369D01*
X91630438Y-119512474D01*
X91572168Y-119513824D01*
X91491827Y-119514114D01*
X91287354Y-119514114D01*
X91271420Y-119559823D01*
X91260580Y-119592287D01*
X91255532Y-119610099D01*
X91255486Y-119610623D01*
X91269377Y-119611963D01*
X91308561Y-119613172D01*
X91369300Y-119614199D01*
X91447859Y-119614998D01*
X91540502Y-119615519D01*
X91643491Y-119615714D01*
X92040658Y-119615714D01*
X92060556Y-119568543D01*
X92080453Y-119521371D01*
X91958711Y-119514114D01*
X91958711Y-119514114D01*
G37*
X91958711Y-119514114D02*
X91899387Y-119509861D01*
X91864428Y-119504975D01*
X91849180Y-119498205D01*
X91848985Y-119488298D01*
X91850805Y-119485086D01*
X91863985Y-119442356D01*
X91863215Y-119386773D01*
X91849667Y-119330263D01*
X91832139Y-119294918D01*
X91804139Y-119258679D01*
X91772451Y-119232187D01*
X91732187Y-119214001D01*
X91678457Y-119202678D01*
X91606374Y-119196778D01*
X91511049Y-119194857D01*
X91492763Y-119194823D01*
X91287354Y-119194800D01*
X91271420Y-119240509D01*
X91260580Y-119272973D01*
X91255532Y-119290785D01*
X91255486Y-119291309D01*
X91269172Y-119293063D01*
X91306924Y-119294556D01*
X91363776Y-119295674D01*
X91434766Y-119296303D01*
X91477927Y-119296400D01*
X91563027Y-119296602D01*
X91624019Y-119297642D01*
X91665823Y-119300169D01*
X91693358Y-119304836D01*
X91711544Y-119312293D01*
X91725302Y-119323189D01*
X91731927Y-119329993D01*
X91758625Y-119376728D01*
X91760625Y-119427728D01*
X91738045Y-119473999D01*
X91729893Y-119482556D01*
X91714564Y-119495107D01*
X91696382Y-119503812D01*
X91670091Y-119509369D01*
X91630438Y-119512474D01*
X91572168Y-119513824D01*
X91491827Y-119514114D01*
X91287354Y-119514114D01*
X91271420Y-119559823D01*
X91260580Y-119592287D01*
X91255532Y-119610099D01*
X91255486Y-119610623D01*
X91269377Y-119611963D01*
X91308561Y-119613172D01*
X91369300Y-119614199D01*
X91447859Y-119614998D01*
X91540502Y-119615519D01*
X91643491Y-119615714D01*
X92040658Y-119615714D01*
X92060556Y-119568543D01*
X92080453Y-119521371D01*
X91958711Y-119514114D01*
G36*
X91859032Y-118850256D02*
X91837913Y-118793384D01*
X91837507Y-118792733D01*
X91811620Y-118757560D01*
X91781367Y-118731593D01*
X91741942Y-118713330D01*
X91688538Y-118701268D01*
X91616349Y-118693904D01*
X91520568Y-118689736D01*
X91506922Y-118689371D01*
X91301158Y-118684124D01*
X91278322Y-118728284D01*
X91262890Y-118760237D01*
X91255577Y-118779530D01*
X91255486Y-118780422D01*
X91268978Y-118783761D01*
X91305374Y-118786413D01*
X91358548Y-118788044D01*
X91401607Y-118788400D01*
X91471359Y-118788408D01*
X91515163Y-118791597D01*
X91536056Y-118802712D01*
X91537075Y-118826499D01*
X91521259Y-118867704D01*
X91492185Y-118929914D01*
X91468037Y-118975659D01*
X91447087Y-118999187D01*
X91424253Y-119006104D01*
X91423123Y-119006114D01*
X91383788Y-118994701D01*
X91362538Y-118960908D01*
X91359461Y-118909191D01*
X91359994Y-118871939D01*
X91349265Y-118852297D01*
X91323495Y-118840048D01*
X91290663Y-118832998D01*
X91272034Y-118843158D01*
X91269368Y-118846983D01*
X91258660Y-118882999D01*
X91257144Y-118933434D01*
X91264241Y-118985374D01*
X91277212Y-119022178D01*
X91320415Y-119073062D01*
X91380554Y-119101986D01*
X91427538Y-119107714D01*
X91469918Y-119103343D01*
X91504512Y-119087525D01*
X91535237Y-119056203D01*
X91566010Y-119005322D01*
X91600748Y-118930824D01*
X91602712Y-118926286D01*
X91633713Y-118859179D01*
X91659138Y-118817768D01*
X91681986Y-118800019D01*
X91705255Y-118803893D01*
X91731944Y-118827357D01*
X91738086Y-118834373D01*
X91761900Y-118881370D01*
X91760897Y-118930067D01*
X91737549Y-118972478D01*
X91694325Y-119000616D01*
X91685840Y-119003231D01*
X91644692Y-119028692D01*
X91624872Y-119060999D01*
X91605230Y-119107714D01*
X91656050Y-119107714D01*
X91729918Y-119093504D01*
X91797673Y-119051325D01*
X91820339Y-119029376D01*
X91849431Y-118979483D01*
X91862600Y-118916033D01*
X91859032Y-118850256D01*
X91859032Y-118850256D01*
G37*
X91859032Y-118850256D02*
X91837913Y-118793384D01*
X91837507Y-118792733D01*
X91811620Y-118757560D01*
X91781367Y-118731593D01*
X91741942Y-118713330D01*
X91688538Y-118701268D01*
X91616349Y-118693904D01*
X91520568Y-118689736D01*
X91506922Y-118689371D01*
X91301158Y-118684124D01*
X91278322Y-118728284D01*
X91262890Y-118760237D01*
X91255577Y-118779530D01*
X91255486Y-118780422D01*
X91268978Y-118783761D01*
X91305374Y-118786413D01*
X91358548Y-118788044D01*
X91401607Y-118788400D01*
X91471359Y-118788408D01*
X91515163Y-118791597D01*
X91536056Y-118802712D01*
X91537075Y-118826499D01*
X91521259Y-118867704D01*
X91492185Y-118929914D01*
X91468037Y-118975659D01*
X91447087Y-118999187D01*
X91424253Y-119006104D01*
X91423123Y-119006114D01*
X91383788Y-118994701D01*
X91362538Y-118960908D01*
X91359461Y-118909191D01*
X91359994Y-118871939D01*
X91349265Y-118852297D01*
X91323495Y-118840048D01*
X91290663Y-118832998D01*
X91272034Y-118843158D01*
X91269368Y-118846983D01*
X91258660Y-118882999D01*
X91257144Y-118933434D01*
X91264241Y-118985374D01*
X91277212Y-119022178D01*
X91320415Y-119073062D01*
X91380554Y-119101986D01*
X91427538Y-119107714D01*
X91469918Y-119103343D01*
X91504512Y-119087525D01*
X91535237Y-119056203D01*
X91566010Y-119005322D01*
X91600748Y-118930824D01*
X91602712Y-118926286D01*
X91633713Y-118859179D01*
X91659138Y-118817768D01*
X91681986Y-118800019D01*
X91705255Y-118803893D01*
X91731944Y-118827357D01*
X91738086Y-118834373D01*
X91761900Y-118881370D01*
X91760897Y-118930067D01*
X91737549Y-118972478D01*
X91694325Y-119000616D01*
X91685840Y-119003231D01*
X91644692Y-119028692D01*
X91624872Y-119060999D01*
X91605230Y-119107714D01*
X91656050Y-119107714D01*
X91729918Y-119093504D01*
X91797673Y-119051325D01*
X91820339Y-119029376D01*
X91849431Y-118979483D01*
X91862600Y-118916033D01*
X91859032Y-118850256D01*
G36*
X91860245Y-118360074D02*
X91835916Y-118294142D01*
X91792883Y-118240727D01*
X91762591Y-118219836D01*
X91707006Y-118197061D01*
X91666814Y-118197534D01*
X91639783Y-118221438D01*
X91635187Y-118230283D01*
X91620856Y-118268470D01*
X91624528Y-118287972D01*
X91648593Y-118294578D01*
X91661886Y-118294914D01*
X91710790Y-118307008D01*
X91745001Y-118338529D01*
X91761524Y-118382341D01*
X91757366Y-118431305D01*
X91735773Y-118471106D01*
X91723456Y-118484550D01*
X91708513Y-118494079D01*
X91685925Y-118500515D01*
X91650672Y-118504683D01*
X91597734Y-118507403D01*
X91522093Y-118509498D01*
X91498143Y-118510040D01*
X91416210Y-118512019D01*
X91358545Y-118514269D01*
X91320392Y-118517643D01*
X91296996Y-118522994D01*
X91283602Y-118531176D01*
X91275455Y-118543041D01*
X91271856Y-118550638D01*
X91259548Y-118582898D01*
X91255486Y-118601889D01*
X91269052Y-118608164D01*
X91310066Y-118611994D01*
X91379001Y-118613400D01*
X91476331Y-118612402D01*
X91491343Y-118612092D01*
X91580141Y-118609899D01*
X91644981Y-118607307D01*
X91690933Y-118603618D01*
X91723065Y-118598136D01*
X91746447Y-118590165D01*
X91766148Y-118579007D01*
X91774590Y-118573170D01*
X91811943Y-118539704D01*
X91840997Y-118502273D01*
X91843533Y-118497691D01*
X91863557Y-118430574D01*
X91860245Y-118360074D01*
X91860245Y-118360074D01*
G37*
X91860245Y-118360074D02*
X91835916Y-118294142D01*
X91792883Y-118240727D01*
X91762591Y-118219836D01*
X91707006Y-118197061D01*
X91666814Y-118197534D01*
X91639783Y-118221438D01*
X91635187Y-118230283D01*
X91620856Y-118268470D01*
X91624528Y-118287972D01*
X91648593Y-118294578D01*
X91661886Y-118294914D01*
X91710790Y-118307008D01*
X91745001Y-118338529D01*
X91761524Y-118382341D01*
X91757366Y-118431305D01*
X91735773Y-118471106D01*
X91723456Y-118484550D01*
X91708513Y-118494079D01*
X91685925Y-118500515D01*
X91650672Y-118504683D01*
X91597734Y-118507403D01*
X91522093Y-118509498D01*
X91498143Y-118510040D01*
X91416210Y-118512019D01*
X91358545Y-118514269D01*
X91320392Y-118517643D01*
X91296996Y-118522994D01*
X91283602Y-118531176D01*
X91275455Y-118543041D01*
X91271856Y-118550638D01*
X91259548Y-118582898D01*
X91255486Y-118601889D01*
X91269052Y-118608164D01*
X91310066Y-118611994D01*
X91379001Y-118613400D01*
X91476331Y-118612402D01*
X91491343Y-118612092D01*
X91580141Y-118609899D01*
X91644981Y-118607307D01*
X91690933Y-118603618D01*
X91723065Y-118598136D01*
X91746447Y-118590165D01*
X91766148Y-118579007D01*
X91774590Y-118573170D01*
X91811943Y-118539704D01*
X91840997Y-118502273D01*
X91843533Y-118497691D01*
X91863557Y-118430574D01*
X91860245Y-118360074D01*
G36*
X91744642Y-117699883D02*
X91636163Y-117700067D01*
X91552713Y-117700781D01*
X91490296Y-117702325D01*
X91444915Y-117704999D01*
X91412571Y-117709106D01*
X91389267Y-117714945D01*
X91371005Y-117722818D01*
X91360582Y-117728779D01*
X91304055Y-117778145D01*
X91268623Y-117840736D01*
X91255910Y-117909987D01*
X91267537Y-117979332D01*
X91288432Y-118020625D01*
X91324578Y-118063975D01*
X91368724Y-118093519D01*
X91426538Y-118111345D01*
X91503687Y-118119537D01*
X91560286Y-118120698D01*
X91564353Y-118120542D01*
X91564353Y-118019143D01*
X91499450Y-118018524D01*
X91456486Y-118015686D01*
X91428378Y-118009160D01*
X91408047Y-117997477D01*
X91392712Y-117983517D01*
X91363110Y-117936635D01*
X91360581Y-117886299D01*
X91385295Y-117838724D01*
X91388644Y-117835021D01*
X91406065Y-117819217D01*
X91426791Y-117809307D01*
X91457638Y-117803942D01*
X91505423Y-117801772D01*
X91558252Y-117801429D01*
X91624619Y-117802173D01*
X91668894Y-117805252D01*
X91697991Y-117811939D01*
X91718827Y-117823504D01*
X91729893Y-117832987D01*
X91757802Y-117877040D01*
X91761157Y-117927776D01*
X91739841Y-117976204D01*
X91731927Y-117985550D01*
X91714353Y-118001460D01*
X91693413Y-118011390D01*
X91662218Y-118016722D01*
X91613878Y-118018837D01*
X91564353Y-118019143D01*
X91564353Y-118120542D01*
X91651432Y-118117190D01*
X91719914Y-118105274D01*
X91771400Y-118082865D01*
X91811557Y-118047876D01*
X91832139Y-118020625D01*
X91854375Y-117971093D01*
X91864696Y-117913684D01*
X91861933Y-117860318D01*
X91850788Y-117830457D01*
X91847617Y-117818739D01*
X91859443Y-117810963D01*
X91891134Y-117805535D01*
X91939407Y-117801429D01*
X91993171Y-117796933D01*
X92025518Y-117790687D01*
X92044015Y-117779324D01*
X92056230Y-117759472D01*
X92061638Y-117747000D01*
X92081399Y-117699829D01*
X91744642Y-117699883D01*
X91744642Y-117699883D01*
G37*
X91744642Y-117699883D02*
X91636163Y-117700067D01*
X91552713Y-117700781D01*
X91490296Y-117702325D01*
X91444915Y-117704999D01*
X91412571Y-117709106D01*
X91389267Y-117714945D01*
X91371005Y-117722818D01*
X91360582Y-117728779D01*
X91304055Y-117778145D01*
X91268623Y-117840736D01*
X91255910Y-117909987D01*
X91267537Y-117979332D01*
X91288432Y-118020625D01*
X91324578Y-118063975D01*
X91368724Y-118093519D01*
X91426538Y-118111345D01*
X91503687Y-118119537D01*
X91560286Y-118120698D01*
X91564353Y-118120542D01*
X91564353Y-118019143D01*
X91499450Y-118018524D01*
X91456486Y-118015686D01*
X91428378Y-118009160D01*
X91408047Y-117997477D01*
X91392712Y-117983517D01*
X91363110Y-117936635D01*
X91360581Y-117886299D01*
X91385295Y-117838724D01*
X91388644Y-117835021D01*
X91406065Y-117819217D01*
X91426791Y-117809307D01*
X91457638Y-117803942D01*
X91505423Y-117801772D01*
X91558252Y-117801429D01*
X91624619Y-117802173D01*
X91668894Y-117805252D01*
X91697991Y-117811939D01*
X91718827Y-117823504D01*
X91729893Y-117832987D01*
X91757802Y-117877040D01*
X91761157Y-117927776D01*
X91739841Y-117976204D01*
X91731927Y-117985550D01*
X91714353Y-118001460D01*
X91693413Y-118011390D01*
X91662218Y-118016722D01*
X91613878Y-118018837D01*
X91564353Y-118019143D01*
X91564353Y-118120542D01*
X91651432Y-118117190D01*
X91719914Y-118105274D01*
X91771400Y-118082865D01*
X91811557Y-118047876D01*
X91832139Y-118020625D01*
X91854375Y-117971093D01*
X91864696Y-117913684D01*
X91861933Y-117860318D01*
X91850788Y-117830457D01*
X91847617Y-117818739D01*
X91859443Y-117810963D01*
X91891134Y-117805535D01*
X91939407Y-117801429D01*
X91993171Y-117796933D01*
X92025518Y-117790687D01*
X92044015Y-117779324D01*
X92056230Y-117759472D01*
X92061638Y-117747000D01*
X92081399Y-117699829D01*
X91744642Y-117699883D01*
G36*
X91851337Y-117110167D02*
X91813150Y-117107952D01*
X91755114Y-117106216D01*
X91681820Y-117105101D01*
X91604945Y-117104743D01*
X91344804Y-117104743D01*
X91298873Y-117150674D01*
X91270571Y-117182325D01*
X91259107Y-117210110D01*
X91259832Y-117248085D01*
X91261679Y-117263160D01*
X91267052Y-117310274D01*
X91270131Y-117349244D01*
X91270415Y-117358743D01*
X91268555Y-117390767D01*
X91263886Y-117436568D01*
X91261679Y-117454326D01*
X91258265Y-117497943D01*
X91265680Y-117527255D01*
X91288573Y-117556320D01*
X91298873Y-117566812D01*
X91344804Y-117612743D01*
X91831398Y-117612743D01*
X91848242Y-117575774D01*
X91860718Y-117543941D01*
X91865086Y-117525317D01*
X91851282Y-117520542D01*
X91812714Y-117516079D01*
X91753644Y-117512225D01*
X91678337Y-117509278D01*
X91614714Y-117507857D01*
X91364343Y-117503886D01*
X91359444Y-117469241D01*
X91362869Y-117437732D01*
X91373959Y-117422292D01*
X91394692Y-117417977D01*
X91438855Y-117414292D01*
X91500854Y-117411531D01*
X91575091Y-117409988D01*
X91613294Y-117409765D01*
X91833217Y-117409543D01*
X91849151Y-117363834D01*
X91859985Y-117331482D01*
X91865038Y-117313885D01*
X91865086Y-117313377D01*
X91851352Y-117311612D01*
X91813270Y-117309671D01*
X91755518Y-117307718D01*
X91682773Y-117305916D01*
X91614714Y-117304657D01*
X91364343Y-117300686D01*
X91364343Y-117213600D01*
X91592760Y-117209604D01*
X91821178Y-117205608D01*
X91843132Y-117163153D01*
X91858207Y-117131808D01*
X91865049Y-117113256D01*
X91865086Y-117112721D01*
X91851337Y-117110167D01*
X91851337Y-117110167D01*
G37*
X91851337Y-117110167D02*
X91813150Y-117107952D01*
X91755114Y-117106216D01*
X91681820Y-117105101D01*
X91604945Y-117104743D01*
X91344804Y-117104743D01*
X91298873Y-117150674D01*
X91270571Y-117182325D01*
X91259107Y-117210110D01*
X91259832Y-117248085D01*
X91261679Y-117263160D01*
X91267052Y-117310274D01*
X91270131Y-117349244D01*
X91270415Y-117358743D01*
X91268555Y-117390767D01*
X91263886Y-117436568D01*
X91261679Y-117454326D01*
X91258265Y-117497943D01*
X91265680Y-117527255D01*
X91288573Y-117556320D01*
X91298873Y-117566812D01*
X91344804Y-117612743D01*
X91831398Y-117612743D01*
X91848242Y-117575774D01*
X91860718Y-117543941D01*
X91865086Y-117525317D01*
X91851282Y-117520542D01*
X91812714Y-117516079D01*
X91753644Y-117512225D01*
X91678337Y-117509278D01*
X91614714Y-117507857D01*
X91364343Y-117503886D01*
X91359444Y-117469241D01*
X91362869Y-117437732D01*
X91373959Y-117422292D01*
X91394692Y-117417977D01*
X91438855Y-117414292D01*
X91500854Y-117411531D01*
X91575091Y-117409988D01*
X91613294Y-117409765D01*
X91833217Y-117409543D01*
X91849151Y-117363834D01*
X91859985Y-117331482D01*
X91865038Y-117313885D01*
X91865086Y-117313377D01*
X91851352Y-117311612D01*
X91813270Y-117309671D01*
X91755518Y-117307718D01*
X91682773Y-117305916D01*
X91614714Y-117304657D01*
X91364343Y-117300686D01*
X91364343Y-117213600D01*
X91592760Y-117209604D01*
X91821178Y-117205608D01*
X91843132Y-117163153D01*
X91858207Y-117131808D01*
X91865049Y-117113256D01*
X91865086Y-117112721D01*
X91851337Y-117110167D01*
G36*
X91853665Y-116745124D02*
X91834656Y-116703333D01*
X91811622Y-116670531D01*
X91785867Y-116646497D01*
X91752642Y-116629903D01*
X91707200Y-116619423D01*
X91644793Y-116613729D01*
X91560673Y-116611493D01*
X91505279Y-116611257D01*
X91289174Y-116611257D01*
X91272330Y-116648226D01*
X91260019Y-116677344D01*
X91255486Y-116691769D01*
X91268975Y-116694528D01*
X91305347Y-116696718D01*
X91358458Y-116698058D01*
X91400628Y-116698343D01*
X91461553Y-116699566D01*
X91509885Y-116702864D01*
X91539482Y-116707679D01*
X91545771Y-116711504D01*
X91539348Y-116737217D01*
X91522875Y-116777582D01*
X91500542Y-116824321D01*
X91476543Y-116869155D01*
X91455070Y-116903807D01*
X91440315Y-116919998D01*
X91440155Y-116920062D01*
X91412848Y-116918670D01*
X91386781Y-116906182D01*
X91365608Y-116884257D01*
X91358526Y-116852257D01*
X91359351Y-116824908D01*
X91359958Y-116786174D01*
X91350884Y-116765842D01*
X91326908Y-116753631D01*
X91322387Y-116752091D01*
X91288194Y-116746797D01*
X91267432Y-116760953D01*
X91257538Y-116797852D01*
X91255708Y-116837711D01*
X91269273Y-116909438D01*
X91288645Y-116946568D01*
X91334155Y-116992424D01*
X91390017Y-117016744D01*
X91449043Y-117018927D01*
X91504047Y-116998371D01*
X91538514Y-116967451D01*
X91557811Y-116936580D01*
X91582241Y-116888058D01*
X91607015Y-116831515D01*
X91610801Y-116822090D01*
X91638209Y-116759981D01*
X91662366Y-116724178D01*
X91686381Y-116712663D01*
X91713365Y-116723420D01*
X91734457Y-116741886D01*
X91760428Y-116785531D01*
X91762376Y-116833554D01*
X91742363Y-116877594D01*
X91702449Y-116909291D01*
X91692152Y-116913451D01*
X91654276Y-116937673D01*
X91626158Y-116973035D01*
X91603083Y-117017657D01*
X91668515Y-117017657D01*
X91708494Y-117015031D01*
X91740003Y-117003770D01*
X91773622Y-116978801D01*
X91799516Y-116954831D01*
X91836183Y-116917559D01*
X91855879Y-116888599D01*
X91863780Y-116857495D01*
X91865086Y-116822287D01*
X91853665Y-116745124D01*
X91853665Y-116745124D01*
G37*
X91853665Y-116745124D02*
X91834656Y-116703333D01*
X91811622Y-116670531D01*
X91785867Y-116646497D01*
X91752642Y-116629903D01*
X91707200Y-116619423D01*
X91644793Y-116613729D01*
X91560673Y-116611493D01*
X91505279Y-116611257D01*
X91289174Y-116611257D01*
X91272330Y-116648226D01*
X91260019Y-116677344D01*
X91255486Y-116691769D01*
X91268975Y-116694528D01*
X91305347Y-116696718D01*
X91358458Y-116698058D01*
X91400628Y-116698343D01*
X91461553Y-116699566D01*
X91509885Y-116702864D01*
X91539482Y-116707679D01*
X91545771Y-116711504D01*
X91539348Y-116737217D01*
X91522875Y-116777582D01*
X91500542Y-116824321D01*
X91476543Y-116869155D01*
X91455070Y-116903807D01*
X91440315Y-116919998D01*
X91440155Y-116920062D01*
X91412848Y-116918670D01*
X91386781Y-116906182D01*
X91365608Y-116884257D01*
X91358526Y-116852257D01*
X91359351Y-116824908D01*
X91359958Y-116786174D01*
X91350884Y-116765842D01*
X91326908Y-116753631D01*
X91322387Y-116752091D01*
X91288194Y-116746797D01*
X91267432Y-116760953D01*
X91257538Y-116797852D01*
X91255708Y-116837711D01*
X91269273Y-116909438D01*
X91288645Y-116946568D01*
X91334155Y-116992424D01*
X91390017Y-117016744D01*
X91449043Y-117018927D01*
X91504047Y-116998371D01*
X91538514Y-116967451D01*
X91557811Y-116936580D01*
X91582241Y-116888058D01*
X91607015Y-116831515D01*
X91610801Y-116822090D01*
X91638209Y-116759981D01*
X91662366Y-116724178D01*
X91686381Y-116712663D01*
X91713365Y-116723420D01*
X91734457Y-116741886D01*
X91760428Y-116785531D01*
X91762376Y-116833554D01*
X91742363Y-116877594D01*
X91702449Y-116909291D01*
X91692152Y-116913451D01*
X91654276Y-116937673D01*
X91626158Y-116973035D01*
X91603083Y-117017657D01*
X91668515Y-117017657D01*
X91708494Y-117015031D01*
X91740003Y-117003770D01*
X91773622Y-116978801D01*
X91799516Y-116954831D01*
X91836183Y-116917559D01*
X91855879Y-116888599D01*
X91863780Y-116857495D01*
X91865086Y-116822287D01*
X91853665Y-116745124D01*
G36*
X91851248Y-116237400D02*
X91843666Y-116220052D01*
X91810872Y-116178644D01*
X91763453Y-116143235D01*
X91712849Y-116121336D01*
X91687902Y-116117771D01*
X91653073Y-116129721D01*
X91634643Y-116155933D01*
X91623484Y-116184036D01*
X91621428Y-116196905D01*
X91636351Y-116203171D01*
X91668825Y-116215544D01*
X91683498Y-116220972D01*
X91734256Y-116251410D01*
X91759573Y-116295480D01*
X91758794Y-116351990D01*
X91757797Y-116356175D01*
X91743493Y-116386345D01*
X91715607Y-116408524D01*
X91670713Y-116423673D01*
X91605385Y-116432750D01*
X91516196Y-116436714D01*
X91468739Y-116437086D01*
X91393929Y-116437270D01*
X91342931Y-116438478D01*
X91310529Y-116441691D01*
X91291505Y-116447891D01*
X91280644Y-116458060D01*
X91272728Y-116473181D01*
X91272330Y-116474054D01*
X91260019Y-116503172D01*
X91255486Y-116517597D01*
X91269191Y-116519814D01*
X91307075Y-116521711D01*
X91364285Y-116523153D01*
X91435973Y-116524002D01*
X91488435Y-116524171D01*
X91589953Y-116523308D01*
X91666968Y-116519930D01*
X91723977Y-116512858D01*
X91765474Y-116500912D01*
X91795957Y-116482910D01*
X91819920Y-116457673D01*
X91836645Y-116432753D01*
X91858903Y-116372829D01*
X91863924Y-116303089D01*
X91851248Y-116237400D01*
X91851248Y-116237400D01*
G37*
X91851248Y-116237400D02*
X91843666Y-116220052D01*
X91810872Y-116178644D01*
X91763453Y-116143235D01*
X91712849Y-116121336D01*
X91687902Y-116117771D01*
X91653073Y-116129721D01*
X91634643Y-116155933D01*
X91623484Y-116184036D01*
X91621428Y-116196905D01*
X91636351Y-116203171D01*
X91668825Y-116215544D01*
X91683498Y-116220972D01*
X91734256Y-116251410D01*
X91759573Y-116295480D01*
X91758794Y-116351990D01*
X91757797Y-116356175D01*
X91743493Y-116386345D01*
X91715607Y-116408524D01*
X91670713Y-116423673D01*
X91605385Y-116432750D01*
X91516196Y-116436714D01*
X91468739Y-116437086D01*
X91393929Y-116437270D01*
X91342931Y-116438478D01*
X91310529Y-116441691D01*
X91291505Y-116447891D01*
X91280644Y-116458060D01*
X91272728Y-116473181D01*
X91272330Y-116474054D01*
X91260019Y-116503172D01*
X91255486Y-116517597D01*
X91269191Y-116519814D01*
X91307075Y-116521711D01*
X91364285Y-116523153D01*
X91435973Y-116524002D01*
X91488435Y-116524171D01*
X91589953Y-116523308D01*
X91666968Y-116519930D01*
X91723977Y-116512858D01*
X91765474Y-116500912D01*
X91795957Y-116482910D01*
X91819920Y-116457673D01*
X91836645Y-116432753D01*
X91858903Y-116372829D01*
X91863924Y-116303089D01*
X91851248Y-116237400D01*
G36*
X91843034Y-115736405D02*
X91805503Y-115678979D01*
X91771904Y-115651281D01*
X91710936Y-115629338D01*
X91662692Y-115627595D01*
X91598184Y-115631543D01*
X91533066Y-115780314D01*
X91499798Y-115852651D01*
X91473036Y-115899916D01*
X91449856Y-115924493D01*
X91427333Y-115928763D01*
X91402545Y-115915111D01*
X91386114Y-115900057D01*
X91359765Y-115856254D01*
X91357919Y-115808611D01*
X91378454Y-115764855D01*
X91419248Y-115732711D01*
X91433653Y-115726962D01*
X91478644Y-115699424D01*
X91497818Y-115667742D01*
X91514221Y-115624286D01*
X91452034Y-115624286D01*
X91409717Y-115628128D01*
X91374031Y-115643177D01*
X91333057Y-115674720D01*
X91327733Y-115679408D01*
X91291280Y-115714494D01*
X91271717Y-115744653D01*
X91262717Y-115782385D01*
X91259770Y-115813665D01*
X91259035Y-115869615D01*
X91268340Y-115909445D01*
X91282154Y-115934292D01*
X91312533Y-115973344D01*
X91345387Y-116000375D01*
X91386706Y-116017483D01*
X91442479Y-116026762D01*
X91518695Y-116030307D01*
X91557378Y-116030590D01*
X91603753Y-116029628D01*
X91603753Y-115941993D01*
X91578874Y-115940977D01*
X91574800Y-115938444D01*
X91580335Y-115921726D01*
X91594983Y-115885751D01*
X91615810Y-115837669D01*
X91620286Y-115827614D01*
X91651186Y-115766848D01*
X91678343Y-115733368D01*
X91703780Y-115726010D01*
X91729519Y-115743609D01*
X91740891Y-115758144D01*
X91763636Y-115810590D01*
X91759878Y-115859678D01*
X91732116Y-115900773D01*
X91682848Y-115929242D01*
X91643743Y-115938369D01*
X91603753Y-115941993D01*
X91603753Y-116029628D01*
X91647751Y-116028715D01*
X91714616Y-116021804D01*
X91763305Y-116008116D01*
X91799151Y-115985904D01*
X91827487Y-115953426D01*
X91836645Y-115939267D01*
X91860493Y-115874947D01*
X91861994Y-115804527D01*
X91843034Y-115736405D01*
X91843034Y-115736405D01*
G37*
X91843034Y-115736405D02*
X91805503Y-115678979D01*
X91771904Y-115651281D01*
X91710936Y-115629338D01*
X91662692Y-115627595D01*
X91598184Y-115631543D01*
X91533066Y-115780314D01*
X91499798Y-115852651D01*
X91473036Y-115899916D01*
X91449856Y-115924493D01*
X91427333Y-115928763D01*
X91402545Y-115915111D01*
X91386114Y-115900057D01*
X91359765Y-115856254D01*
X91357919Y-115808611D01*
X91378454Y-115764855D01*
X91419248Y-115732711D01*
X91433653Y-115726962D01*
X91478644Y-115699424D01*
X91497818Y-115667742D01*
X91514221Y-115624286D01*
X91452034Y-115624286D01*
X91409717Y-115628128D01*
X91374031Y-115643177D01*
X91333057Y-115674720D01*
X91327733Y-115679408D01*
X91291280Y-115714494D01*
X91271717Y-115744653D01*
X91262717Y-115782385D01*
X91259770Y-115813665D01*
X91259035Y-115869615D01*
X91268340Y-115909445D01*
X91282154Y-115934292D01*
X91312533Y-115973344D01*
X91345387Y-116000375D01*
X91386706Y-116017483D01*
X91442479Y-116026762D01*
X91518695Y-116030307D01*
X91557378Y-116030590D01*
X91603753Y-116029628D01*
X91603753Y-115941993D01*
X91578874Y-115940977D01*
X91574800Y-115938444D01*
X91580335Y-115921726D01*
X91594983Y-115885751D01*
X91615810Y-115837669D01*
X91620286Y-115827614D01*
X91651186Y-115766848D01*
X91678343Y-115733368D01*
X91703780Y-115726010D01*
X91729519Y-115743609D01*
X91740891Y-115758144D01*
X91763636Y-115810590D01*
X91759878Y-115859678D01*
X91732116Y-115900773D01*
X91682848Y-115929242D01*
X91643743Y-115938369D01*
X91603753Y-115941993D01*
X91603753Y-116029628D01*
X91647751Y-116028715D01*
X91714616Y-116021804D01*
X91763305Y-116008116D01*
X91799151Y-115985904D01*
X91827487Y-115953426D01*
X91836645Y-115939267D01*
X91860493Y-115874947D01*
X91861994Y-115804527D01*
X91843034Y-115736405D01*
G36*
X96567652Y-118786090D02*
X96567222Y-118707546D01*
X96566058Y-118650702D01*
X96563793Y-118611895D01*
X96560060Y-118587462D01*
X96554494Y-118573738D01*
X96546727Y-118567060D01*
X96536395Y-118563764D01*
X96535057Y-118563444D01*
X96510921Y-118558438D01*
X96463299Y-118549171D01*
X96397259Y-118536608D01*
X96317872Y-118521713D01*
X96230204Y-118505449D01*
X96227125Y-118504881D01*
X96141211Y-118488590D01*
X96065304Y-118473348D01*
X96003955Y-118460139D01*
X95961718Y-118449946D01*
X95943145Y-118443752D01*
X95942816Y-118443457D01*
X95933747Y-118425212D01*
X95918633Y-118387595D01*
X95900738Y-118338729D01*
X95900642Y-118338457D01*
X95877507Y-118276907D01*
X95848035Y-118204343D01*
X95818403Y-118135943D01*
X95816938Y-118132706D01*
X95766374Y-118021298D01*
X95934840Y-117774601D01*
X95986197Y-117698923D01*
X96032111Y-117630369D01*
X96069970Y-117572912D01*
X96097163Y-117530524D01*
X96111079Y-117507175D01*
X96112111Y-117504958D01*
X96107516Y-117487990D01*
X96085345Y-117456299D01*
X96044553Y-117408648D01*
X95984095Y-117343802D01*
X95919773Y-117277603D01*
X95856388Y-117213786D01*
X95798549Y-117156671D01*
X95749825Y-117109695D01*
X95713790Y-117076297D01*
X95694016Y-117059915D01*
X95692998Y-117059306D01*
X95679428Y-117057495D01*
X95657267Y-117064317D01*
X95623522Y-117081460D01*
X95575200Y-117110607D01*
X95509308Y-117153445D01*
X95424483Y-117210552D01*
X95349823Y-117261234D01*
X95282860Y-117306539D01*
X95227484Y-117343850D01*
X95187580Y-117370548D01*
X95167038Y-117384015D01*
X95165644Y-117384863D01*
X95145962Y-117383219D01*
X95107707Y-117370755D01*
X95058111Y-117349952D01*
X95042272Y-117342538D01*
X94971710Y-117310186D01*
X94891647Y-117275672D01*
X94822371Y-117247635D01*
X94770955Y-117227432D01*
X94731881Y-117211385D01*
X94711459Y-117202112D01*
X94709886Y-117200959D01*
X94707279Y-117183904D01*
X94700137Y-117143702D01*
X94689477Y-117085698D01*
X94676315Y-117015237D01*
X94661667Y-116937665D01*
X94646551Y-116858328D01*
X94631982Y-116782569D01*
X94618978Y-116715736D01*
X94608555Y-116663172D01*
X94601730Y-116630224D01*
X94599801Y-116622143D01*
X94595038Y-116613795D01*
X94584282Y-116607494D01*
X94563902Y-116602955D01*
X94530266Y-116599896D01*
X94479745Y-116598033D01*
X94408708Y-116597082D01*
X94313524Y-116596760D01*
X94274508Y-116596743D01*
X93957201Y-116596743D01*
X93942161Y-116672943D01*
X93934005Y-116715337D01*
X93922101Y-116778600D01*
X93907884Y-116855038D01*
X93892790Y-116936957D01*
X93888645Y-116959600D01*
X93873947Y-117035194D01*
X93859495Y-117101047D01*
X93846625Y-117151634D01*
X93836678Y-117181426D01*
X93833713Y-117186388D01*
X93812717Y-117198574D01*
X93772033Y-117216047D01*
X93719678Y-117235423D01*
X93708400Y-117239266D01*
X93638477Y-117264661D01*
X93559582Y-117296183D01*
X93488734Y-117327031D01*
X93488405Y-117327183D01*
X93377267Y-117378553D01*
X93128747Y-117209601D01*
X92880228Y-117040648D01*
X92662942Y-117257571D01*
X92598274Y-117323181D01*
X92541267Y-117383021D01*
X92494967Y-117433733D01*
X92462416Y-117471954D01*
X92446657Y-117494325D01*
X92445657Y-117497534D01*
X92453531Y-117516374D01*
X92475422Y-117554820D01*
X92508733Y-117608670D01*
X92550869Y-117673724D01*
X92598057Y-117744060D01*
X92646190Y-117815445D01*
X92688072Y-117879092D01*
X92721129Y-117930959D01*
X92742782Y-117967005D01*
X92750457Y-117983133D01*
X92743963Y-118002811D01*
X92726850Y-118040125D01*
X92702674Y-118087379D01*
X92699987Y-118092388D01*
X92668073Y-118156023D01*
X92652421Y-118199659D01*
X92652255Y-118226798D01*
X92666796Y-118240943D01*
X92667000Y-118241025D01*
X92684221Y-118248095D01*
X92725101Y-118264958D01*
X92786475Y-118290305D01*
X92865181Y-118322829D01*
X92958053Y-118361222D01*
X93061928Y-118404178D01*
X93162498Y-118445778D01*
X93273484Y-118491496D01*
X93376297Y-118533474D01*
X93467785Y-118570452D01*
X93544799Y-118601173D01*
X93604185Y-118624378D01*
X93642791Y-118638810D01*
X93657200Y-118643257D01*
X93673728Y-118632104D01*
X93700070Y-118602931D01*
X93729113Y-118564029D01*
X93820961Y-118453243D01*
X93926241Y-118366649D01*
X94042734Y-118305284D01*
X94168224Y-118270185D01*
X94300493Y-118262392D01*
X94361543Y-118268057D01*
X94488205Y-118298922D01*
X94600059Y-118352080D01*
X94695999Y-118424233D01*
X94774924Y-118512083D01*
X94835730Y-118612335D01*
X94877313Y-118721690D01*
X94898572Y-118836853D01*
X94898401Y-118954525D01*
X94875699Y-119071410D01*
X94829362Y-119184211D01*
X94758287Y-119289631D01*
X94718089Y-119333632D01*
X94614871Y-119418021D01*
X94502075Y-119476778D01*
X94382990Y-119510296D01*
X94260905Y-119518965D01*
X94139107Y-119503177D01*
X94020884Y-119463322D01*
X93909525Y-119399793D01*
X93808316Y-119312979D01*
X93729113Y-119215971D01*
X93698838Y-119175563D01*
X93672781Y-119147018D01*
X93657175Y-119136743D01*
X93640157Y-119142123D01*
X93599500Y-119157425D01*
X93538358Y-119181388D01*
X93459881Y-119212756D01*
X93367220Y-119250268D01*
X93263528Y-119292667D01*
X93162474Y-119334337D01*
X93051393Y-119380310D01*
X92948459Y-119422893D01*
X92856835Y-119460779D01*
X92779684Y-119492660D01*
X92720169Y-119517229D01*
X92681456Y-119533180D01*
X92667000Y-119539090D01*
X92652315Y-119553052D01*
X92652358Y-119580060D01*
X92667901Y-119623587D01*
X92699716Y-119687110D01*
X92699987Y-119687612D01*
X92724677Y-119735440D01*
X92742662Y-119774103D01*
X92750386Y-119795905D01*
X92750457Y-119796867D01*
X92742622Y-119813279D01*
X92720835Y-119849513D01*
X92687672Y-119901526D01*
X92645709Y-119965275D01*
X92598057Y-120035940D01*
X92549809Y-120107884D01*
X92507849Y-120172726D01*
X92474773Y-120226265D01*
X92453179Y-120264303D01*
X92445657Y-120282467D01*
X92455543Y-120299192D01*
X92483174Y-120332820D01*
X92525505Y-120379990D01*
X92579495Y-120437342D01*
X92642101Y-120501516D01*
X92663017Y-120522503D01*
X92880377Y-120739501D01*
X93122780Y-120574332D01*
X93197219Y-120524136D01*
X93264028Y-120480081D01*
X93319335Y-120444638D01*
X93359271Y-120420281D01*
X93379964Y-120409478D01*
X93381437Y-120409162D01*
X93400942Y-120414857D01*
X93440178Y-120430174D01*
X93492570Y-120452463D01*
X93527645Y-120468107D01*
X93594799Y-120497359D01*
X93662642Y-120524906D01*
X93719966Y-120546263D01*
X93737428Y-120552065D01*
X93784062Y-120568548D01*
X93820095Y-120584660D01*
X93833713Y-120593510D01*
X93842048Y-120613040D01*
X93853863Y-120655666D01*
X93867819Y-120715855D01*
X93882578Y-120788078D01*
X93888645Y-120820400D01*
X93903727Y-120902478D01*
X93918331Y-120981205D01*
X93931020Y-121048891D01*
X93940358Y-121097840D01*
X93942161Y-121107057D01*
X93957201Y-121183257D01*
X94274508Y-121183257D01*
X94378846Y-121183086D01*
X94457787Y-121182384D01*
X94514962Y-121180866D01*
X94554001Y-121178251D01*
X94578535Y-121174254D01*
X94592195Y-121168591D01*
X94598611Y-121160980D01*
X94599801Y-121157857D01*
X94604020Y-121139022D01*
X94612438Y-121097412D01*
X94624039Y-121038370D01*
X94637805Y-120967243D01*
X94652720Y-120889375D01*
X94667768Y-120810113D01*
X94681931Y-120734802D01*
X94694194Y-120668787D01*
X94703539Y-120617413D01*
X94708950Y-120586025D01*
X94709886Y-120579041D01*
X94722404Y-120572715D01*
X94755754Y-120558710D01*
X94803623Y-120539645D01*
X94822371Y-120532366D01*
X94894805Y-120503004D01*
X94974830Y-120468429D01*
X95042272Y-120437463D01*
X95093841Y-120414677D01*
X95136215Y-120399518D01*
X95162166Y-120394458D01*
X95165644Y-120395264D01*
X95182064Y-120405959D01*
X95218583Y-120430380D01*
X95271313Y-120465905D01*
X95336365Y-120509913D01*
X95409849Y-120559783D01*
X95424355Y-120569644D01*
X95510296Y-120627508D01*
X95575739Y-120670044D01*
X95623696Y-120698946D01*
X95657180Y-120715910D01*
X95679205Y-120722633D01*
X95692783Y-120720810D01*
X95692869Y-120720764D01*
X95710703Y-120706414D01*
X95745183Y-120674677D01*
X95792732Y-120628990D01*
X95849778Y-120572796D01*
X95912745Y-120509532D01*
X95919773Y-120502398D01*
X95996980Y-120422670D01*
X96053670Y-120361143D01*
X96090890Y-120316579D01*
X96109685Y-120287743D01*
X96112111Y-120275042D01*
X96101529Y-120256506D01*
X96077084Y-120218039D01*
X96041388Y-120163614D01*
X95997053Y-120097202D01*
X95946689Y-120022775D01*
X95934840Y-120005399D01*
X95766374Y-119758703D01*
X95816938Y-119647294D01*
X95846405Y-119579543D01*
X95876041Y-119506817D01*
X95899670Y-119444297D01*
X95900642Y-119441543D01*
X95918543Y-119392640D01*
X95933680Y-119354943D01*
X95942790Y-119336575D01*
X95942816Y-119336544D01*
X95959283Y-119330715D01*
X95999781Y-119320808D01*
X96059758Y-119307805D01*
X96134660Y-119292691D01*
X96219936Y-119276448D01*
X96227125Y-119275119D01*
X96314986Y-119258825D01*
X96394740Y-119243867D01*
X96461319Y-119231209D01*
X96509653Y-119221814D01*
X96534675Y-119216646D01*
X96535057Y-119216556D01*
X96545701Y-119213411D01*
X96553738Y-119207296D01*
X96559533Y-119194547D01*
X96563453Y-119171500D01*
X96565865Y-119134491D01*
X96567135Y-119079856D01*
X96567629Y-119003933D01*
X96567714Y-118903056D01*
X96567714Y-118890000D01*
X96567652Y-118786090D01*
X96567652Y-118786090D01*
G37*
X96567652Y-118786090D02*
X96567222Y-118707546D01*
X96566058Y-118650702D01*
X96563793Y-118611895D01*
X96560060Y-118587462D01*
X96554494Y-118573738D01*
X96546727Y-118567060D01*
X96536395Y-118563764D01*
X96535057Y-118563444D01*
X96510921Y-118558438D01*
X96463299Y-118549171D01*
X96397259Y-118536608D01*
X96317872Y-118521713D01*
X96230204Y-118505449D01*
X96227125Y-118504881D01*
X96141211Y-118488590D01*
X96065304Y-118473348D01*
X96003955Y-118460139D01*
X95961718Y-118449946D01*
X95943145Y-118443752D01*
X95942816Y-118443457D01*
X95933747Y-118425212D01*
X95918633Y-118387595D01*
X95900738Y-118338729D01*
X95900642Y-118338457D01*
X95877507Y-118276907D01*
X95848035Y-118204343D01*
X95818403Y-118135943D01*
X95816938Y-118132706D01*
X95766374Y-118021298D01*
X95934840Y-117774601D01*
X95986197Y-117698923D01*
X96032111Y-117630369D01*
X96069970Y-117572912D01*
X96097163Y-117530524D01*
X96111079Y-117507175D01*
X96112111Y-117504958D01*
X96107516Y-117487990D01*
X96085345Y-117456299D01*
X96044553Y-117408648D01*
X95984095Y-117343802D01*
X95919773Y-117277603D01*
X95856388Y-117213786D01*
X95798549Y-117156671D01*
X95749825Y-117109695D01*
X95713790Y-117076297D01*
X95694016Y-117059915D01*
X95692998Y-117059306D01*
X95679428Y-117057495D01*
X95657267Y-117064317D01*
X95623522Y-117081460D01*
X95575200Y-117110607D01*
X95509308Y-117153445D01*
X95424483Y-117210552D01*
X95349823Y-117261234D01*
X95282860Y-117306539D01*
X95227484Y-117343850D01*
X95187580Y-117370548D01*
X95167038Y-117384015D01*
X95165644Y-117384863D01*
X95145962Y-117383219D01*
X95107707Y-117370755D01*
X95058111Y-117349952D01*
X95042272Y-117342538D01*
X94971710Y-117310186D01*
X94891647Y-117275672D01*
X94822371Y-117247635D01*
X94770955Y-117227432D01*
X94731881Y-117211385D01*
X94711459Y-117202112D01*
X94709886Y-117200959D01*
X94707279Y-117183904D01*
X94700137Y-117143702D01*
X94689477Y-117085698D01*
X94676315Y-117015237D01*
X94661667Y-116937665D01*
X94646551Y-116858328D01*
X94631982Y-116782569D01*
X94618978Y-116715736D01*
X94608555Y-116663172D01*
X94601730Y-116630224D01*
X94599801Y-116622143D01*
X94595038Y-116613795D01*
X94584282Y-116607494D01*
X94563902Y-116602955D01*
X94530266Y-116599896D01*
X94479745Y-116598033D01*
X94408708Y-116597082D01*
X94313524Y-116596760D01*
X94274508Y-116596743D01*
X93957201Y-116596743D01*
X93942161Y-116672943D01*
X93934005Y-116715337D01*
X93922101Y-116778600D01*
X93907884Y-116855038D01*
X93892790Y-116936957D01*
X93888645Y-116959600D01*
X93873947Y-117035194D01*
X93859495Y-117101047D01*
X93846625Y-117151634D01*
X93836678Y-117181426D01*
X93833713Y-117186388D01*
X93812717Y-117198574D01*
X93772033Y-117216047D01*
X93719678Y-117235423D01*
X93708400Y-117239266D01*
X93638477Y-117264661D01*
X93559582Y-117296183D01*
X93488734Y-117327031D01*
X93488405Y-117327183D01*
X93377267Y-117378553D01*
X93128747Y-117209601D01*
X92880228Y-117040648D01*
X92662942Y-117257571D01*
X92598274Y-117323181D01*
X92541267Y-117383021D01*
X92494967Y-117433733D01*
X92462416Y-117471954D01*
X92446657Y-117494325D01*
X92445657Y-117497534D01*
X92453531Y-117516374D01*
X92475422Y-117554820D01*
X92508733Y-117608670D01*
X92550869Y-117673724D01*
X92598057Y-117744060D01*
X92646190Y-117815445D01*
X92688072Y-117879092D01*
X92721129Y-117930959D01*
X92742782Y-117967005D01*
X92750457Y-117983133D01*
X92743963Y-118002811D01*
X92726850Y-118040125D01*
X92702674Y-118087379D01*
X92699987Y-118092388D01*
X92668073Y-118156023D01*
X92652421Y-118199659D01*
X92652255Y-118226798D01*
X92666796Y-118240943D01*
X92667000Y-118241025D01*
X92684221Y-118248095D01*
X92725101Y-118264958D01*
X92786475Y-118290305D01*
X92865181Y-118322829D01*
X92958053Y-118361222D01*
X93061928Y-118404178D01*
X93162498Y-118445778D01*
X93273484Y-118491496D01*
X93376297Y-118533474D01*
X93467785Y-118570452D01*
X93544799Y-118601173D01*
X93604185Y-118624378D01*
X93642791Y-118638810D01*
X93657200Y-118643257D01*
X93673728Y-118632104D01*
X93700070Y-118602931D01*
X93729113Y-118564029D01*
X93820961Y-118453243D01*
X93926241Y-118366649D01*
X94042734Y-118305284D01*
X94168224Y-118270185D01*
X94300493Y-118262392D01*
X94361543Y-118268057D01*
X94488205Y-118298922D01*
X94600059Y-118352080D01*
X94695999Y-118424233D01*
X94774924Y-118512083D01*
X94835730Y-118612335D01*
X94877313Y-118721690D01*
X94898572Y-118836853D01*
X94898401Y-118954525D01*
X94875699Y-119071410D01*
X94829362Y-119184211D01*
X94758287Y-119289631D01*
X94718089Y-119333632D01*
X94614871Y-119418021D01*
X94502075Y-119476778D01*
X94382990Y-119510296D01*
X94260905Y-119518965D01*
X94139107Y-119503177D01*
X94020884Y-119463322D01*
X93909525Y-119399793D01*
X93808316Y-119312979D01*
X93729113Y-119215971D01*
X93698838Y-119175563D01*
X93672781Y-119147018D01*
X93657175Y-119136743D01*
X93640157Y-119142123D01*
X93599500Y-119157425D01*
X93538358Y-119181388D01*
X93459881Y-119212756D01*
X93367220Y-119250268D01*
X93263528Y-119292667D01*
X93162474Y-119334337D01*
X93051393Y-119380310D01*
X92948459Y-119422893D01*
X92856835Y-119460779D01*
X92779684Y-119492660D01*
X92720169Y-119517229D01*
X92681456Y-119533180D01*
X92667000Y-119539090D01*
X92652315Y-119553052D01*
X92652358Y-119580060D01*
X92667901Y-119623587D01*
X92699716Y-119687110D01*
X92699987Y-119687612D01*
X92724677Y-119735440D01*
X92742662Y-119774103D01*
X92750386Y-119795905D01*
X92750457Y-119796867D01*
X92742622Y-119813279D01*
X92720835Y-119849513D01*
X92687672Y-119901526D01*
X92645709Y-119965275D01*
X92598057Y-120035940D01*
X92549809Y-120107884D01*
X92507849Y-120172726D01*
X92474773Y-120226265D01*
X92453179Y-120264303D01*
X92445657Y-120282467D01*
X92455543Y-120299192D01*
X92483174Y-120332820D01*
X92525505Y-120379990D01*
X92579495Y-120437342D01*
X92642101Y-120501516D01*
X92663017Y-120522503D01*
X92880377Y-120739501D01*
X93122780Y-120574332D01*
X93197219Y-120524136D01*
X93264028Y-120480081D01*
X93319335Y-120444638D01*
X93359271Y-120420281D01*
X93379964Y-120409478D01*
X93381437Y-120409162D01*
X93400942Y-120414857D01*
X93440178Y-120430174D01*
X93492570Y-120452463D01*
X93527645Y-120468107D01*
X93594799Y-120497359D01*
X93662642Y-120524906D01*
X93719966Y-120546263D01*
X93737428Y-120552065D01*
X93784062Y-120568548D01*
X93820095Y-120584660D01*
X93833713Y-120593510D01*
X93842048Y-120613040D01*
X93853863Y-120655666D01*
X93867819Y-120715855D01*
X93882578Y-120788078D01*
X93888645Y-120820400D01*
X93903727Y-120902478D01*
X93918331Y-120981205D01*
X93931020Y-121048891D01*
X93940358Y-121097840D01*
X93942161Y-121107057D01*
X93957201Y-121183257D01*
X94274508Y-121183257D01*
X94378846Y-121183086D01*
X94457787Y-121182384D01*
X94514962Y-121180866D01*
X94554001Y-121178251D01*
X94578535Y-121174254D01*
X94592195Y-121168591D01*
X94598611Y-121160980D01*
X94599801Y-121157857D01*
X94604020Y-121139022D01*
X94612438Y-121097412D01*
X94624039Y-121038370D01*
X94637805Y-120967243D01*
X94652720Y-120889375D01*
X94667768Y-120810113D01*
X94681931Y-120734802D01*
X94694194Y-120668787D01*
X94703539Y-120617413D01*
X94708950Y-120586025D01*
X94709886Y-120579041D01*
X94722404Y-120572715D01*
X94755754Y-120558710D01*
X94803623Y-120539645D01*
X94822371Y-120532366D01*
X94894805Y-120503004D01*
X94974830Y-120468429D01*
X95042272Y-120437463D01*
X95093841Y-120414677D01*
X95136215Y-120399518D01*
X95162166Y-120394458D01*
X95165644Y-120395264D01*
X95182064Y-120405959D01*
X95218583Y-120430380D01*
X95271313Y-120465905D01*
X95336365Y-120509913D01*
X95409849Y-120559783D01*
X95424355Y-120569644D01*
X95510296Y-120627508D01*
X95575739Y-120670044D01*
X95623696Y-120698946D01*
X95657180Y-120715910D01*
X95679205Y-120722633D01*
X95692783Y-120720810D01*
X95692869Y-120720764D01*
X95710703Y-120706414D01*
X95745183Y-120674677D01*
X95792732Y-120628990D01*
X95849778Y-120572796D01*
X95912745Y-120509532D01*
X95919773Y-120502398D01*
X95996980Y-120422670D01*
X96053670Y-120361143D01*
X96090890Y-120316579D01*
X96109685Y-120287743D01*
X96112111Y-120275042D01*
X96101529Y-120256506D01*
X96077084Y-120218039D01*
X96041388Y-120163614D01*
X95997053Y-120097202D01*
X95946689Y-120022775D01*
X95934840Y-120005399D01*
X95766374Y-119758703D01*
X95816938Y-119647294D01*
X95846405Y-119579543D01*
X95876041Y-119506817D01*
X95899670Y-119444297D01*
X95900642Y-119441543D01*
X95918543Y-119392640D01*
X95933680Y-119354943D01*
X95942790Y-119336575D01*
X95942816Y-119336544D01*
X95959283Y-119330715D01*
X95999781Y-119320808D01*
X96059758Y-119307805D01*
X96134660Y-119292691D01*
X96219936Y-119276448D01*
X96227125Y-119275119D01*
X96314986Y-119258825D01*
X96394740Y-119243867D01*
X96461319Y-119231209D01*
X96509653Y-119221814D01*
X96534675Y-119216646D01*
X96535057Y-119216556D01*
X96545701Y-119213411D01*
X96553738Y-119207296D01*
X96559533Y-119194547D01*
X96563453Y-119171500D01*
X96565865Y-119134491D01*
X96567135Y-119079856D01*
X96567629Y-119003933D01*
X96567714Y-118903056D01*
X96567714Y-118890000D01*
X96567652Y-118786090D01*
D13*
X103410000Y-116478000D02*
X99590000Y-116478000D01*
X99590000Y-116478000D02*
X99590000Y-114698000D01*
X99590000Y-114698000D02*
X103410000Y-114698000D01*
X103410000Y-116478000D02*
X103410000Y-114698000D01*
M02*
