G04 #@! TF.FileFunction,Copper,L2,Bot,Signal*
%FSLAX46Y46*%
G04 Gerber Fmt 4.6, Leading zero omitted, Abs format (unit mm)*
G04 Created by KiCad (PCBNEW 4.0.5) date Sunday, 09. April 2017 'u43' 16:43:39*
%MOMM*%
%LPD*%
G01*
G04 APERTURE LIST*
%ADD10C,0.100000*%
%ADD11C,0.150000*%
%ADD12C,5.600000*%
%ADD13R,0.970000X1.270000*%
%ADD14C,1.450000*%
%ADD15O,1.900000X1.200000*%
%ADD16R,1.700000X1.700000*%
%ADD17O,1.700000X1.700000*%
%ADD18R,1.750000X1.750000*%
%ADD19C,1.750000*%
%ADD20C,0.600000*%
%ADD21C,0.250000*%
%ADD22C,1.000000*%
%ADD23C,0.254000*%
G04 APERTURE END LIST*
D10*
D11*
X113500000Y-135000000D02*
G75*
G03X115000000Y-133500000I0J1500000D01*
G01*
X90000000Y-133500000D02*
G75*
G03X91500000Y-135000000I1500000J0D01*
G01*
X115000000Y-111500000D02*
G75*
G03X113500000Y-110000000I-1500000J0D01*
G01*
X91500000Y-110000000D02*
G75*
G03X90000000Y-111500000I0J-1500000D01*
G01*
X113500000Y-135000000D02*
X91500000Y-135000000D01*
X115000000Y-111500000D02*
X115000000Y-133500000D01*
X91500000Y-110000000D02*
X113500000Y-110000000D01*
X90000000Y-133500000D02*
X90000000Y-111500000D01*
D12*
X112000000Y-132000000D03*
D13*
X100160000Y-130320000D03*
X98880000Y-130320000D03*
X98140000Y-128000000D03*
X96860000Y-128000000D03*
D14*
X110550000Y-113580000D03*
X110550000Y-118580000D03*
D15*
X113250000Y-112580000D03*
X113250000Y-119580000D03*
D16*
X97620000Y-112540000D03*
D17*
X100160000Y-112540000D03*
X102700000Y-112540000D03*
X105240000Y-112540000D03*
X107780000Y-112540000D03*
D16*
X97620000Y-132860000D03*
D17*
X100160000Y-132860000D03*
X102700000Y-132860000D03*
X105240000Y-132860000D03*
D12*
X93000000Y-132000000D03*
D13*
X102770000Y-115588000D03*
X101500000Y-115588000D03*
X100230000Y-115588000D03*
D18*
X93810000Y-125200000D03*
D19*
X93810000Y-122700000D03*
D20*
X91000000Y-121000000D03*
X91000000Y-125000000D03*
X91000000Y-129000000D03*
X109050000Y-125240000D03*
X109050000Y-123970000D03*
X101500000Y-124500000D03*
X104500000Y-124500000D03*
X102407000Y-124478000D03*
X103607000Y-124478000D03*
X104500000Y-117500000D03*
X100930000Y-122065000D03*
X97300000Y-116985000D03*
X104478052Y-114571948D03*
X111000000Y-127000000D03*
X102179286Y-127914612D03*
X111000000Y-124000000D03*
X105855919Y-120179081D03*
X100000000Y-129000000D03*
X97942200Y-129472929D03*
X103007000Y-128288748D03*
X112000000Y-127000000D03*
X112000000Y-124000000D03*
X106775380Y-120155390D03*
X94445000Y-118255000D03*
X100205002Y-122700000D03*
D21*
X91000000Y-121000000D02*
X91000000Y-119000000D01*
X91000000Y-120000000D02*
X91000000Y-129000000D01*
X100160000Y-115715000D02*
X100160000Y-116600000D01*
X100160000Y-116600000D02*
X101060000Y-117500000D01*
X101060000Y-117500000D02*
X104500000Y-117500000D01*
X100206412Y-122065000D02*
X97666412Y-119525000D01*
X100930000Y-122065000D02*
X100206412Y-122065000D01*
X97300000Y-119158588D02*
X97666412Y-119525000D01*
X97300000Y-116985000D02*
X97300000Y-119158588D01*
D22*
X95500000Y-128831002D02*
X94448998Y-127780000D01*
X94448998Y-127780000D02*
X93810000Y-127141002D01*
X93810000Y-127141002D02*
X93810000Y-125200000D01*
X95500000Y-128835000D02*
X95500000Y-128831002D01*
D21*
X97620000Y-132860000D02*
X98720000Y-132860000D01*
X98880000Y-132700000D02*
X98880000Y-131205000D01*
X98720000Y-132860000D02*
X98880000Y-132700000D01*
X98880000Y-131205000D02*
X98880000Y-130320000D01*
D22*
X95500000Y-128835000D02*
X96985000Y-130320000D01*
D21*
X96860000Y-128000000D02*
X96125000Y-128000000D01*
X96125000Y-128000000D02*
X95500000Y-128625000D01*
X95500000Y-128625000D02*
X95500000Y-128835000D01*
X98880000Y-130320000D02*
X98880000Y-130170000D01*
D22*
X96985000Y-130320000D02*
X97620000Y-130955000D01*
X97620000Y-130955000D02*
X97620000Y-132860000D01*
X97620000Y-131010000D02*
X97620000Y-132860000D01*
D21*
X104478052Y-114571948D02*
X103786052Y-114571948D01*
X103786052Y-114571948D02*
X102770000Y-115588000D01*
X104478052Y-114671948D02*
X104478052Y-114571948D01*
X100160000Y-112540000D02*
X101500000Y-113880000D01*
X101500000Y-113880000D02*
X101500000Y-115588000D01*
X102179286Y-127914612D02*
X102593898Y-127500000D01*
X110500000Y-127500000D02*
X102593898Y-127500000D01*
X111000000Y-127000000D02*
X110500000Y-127500000D01*
X107823162Y-120823162D02*
X106500000Y-120823162D01*
X106500000Y-120823162D02*
X105855919Y-120179081D01*
X111000000Y-124000000D02*
X107823162Y-120823162D01*
X100000000Y-129000000D02*
X100000000Y-130160000D01*
X100000000Y-130160000D02*
X100160000Y-130320000D01*
X100160000Y-132860000D02*
X100160000Y-130320000D01*
X98140000Y-128000000D02*
X98140000Y-129275129D01*
X98140000Y-129275129D02*
X97942200Y-129472929D01*
X103007000Y-128288748D02*
X103306999Y-127988749D01*
X103306999Y-127988749D02*
X111011251Y-127988749D01*
X111011251Y-127988749D02*
X111500000Y-127500000D01*
X111500000Y-127500000D02*
X112000000Y-127000000D01*
X106775380Y-120155390D02*
X108155390Y-120155390D01*
X109000000Y-121000000D02*
X112000000Y-124000000D01*
X108155390Y-120155390D02*
X109000000Y-121000000D01*
X93498260Y-127996003D02*
X92012257Y-126510000D01*
X94445000Y-118255000D02*
X92540000Y-118255000D01*
X92012257Y-126510000D02*
X92012257Y-118782743D01*
X92012257Y-118782743D02*
X92540000Y-118255000D01*
X93498260Y-128000000D02*
X93498260Y-127996003D01*
X102700000Y-132860000D02*
X101430000Y-134130000D01*
X101430000Y-134130000D02*
X96604998Y-134130000D01*
X96604998Y-134130000D02*
X96350000Y-133875002D01*
X96350000Y-133875002D02*
X96350000Y-130851740D01*
X96350000Y-130851740D02*
X93498260Y-128000000D01*
X100205002Y-122700000D02*
X95760002Y-118255000D01*
X95760002Y-118255000D02*
X94445000Y-118255000D01*
D23*
G36*
X113896103Y-110543723D02*
X114231902Y-110768098D01*
X114456277Y-111103897D01*
X114544000Y-111544913D01*
X114544000Y-130045900D01*
X113804244Y-129304852D01*
X112635516Y-128819554D01*
X111370036Y-128818450D01*
X110200463Y-129301707D01*
X109304852Y-130195756D01*
X108819554Y-131364484D01*
X108818450Y-132629964D01*
X109301707Y-133799537D01*
X110044872Y-134544000D01*
X101703681Y-134544000D01*
X101787796Y-134487796D01*
X102249988Y-134025604D01*
X102700000Y-134115117D01*
X103171083Y-134021413D01*
X103570448Y-133754565D01*
X103837296Y-133355200D01*
X103931000Y-132884117D01*
X103931000Y-132835883D01*
X103837296Y-132364800D01*
X103570448Y-131965435D01*
X103171083Y-131698587D01*
X102700000Y-131604883D01*
X102228917Y-131698587D01*
X101829552Y-131965435D01*
X101562704Y-132364800D01*
X101469000Y-132835883D01*
X101469000Y-132884117D01*
X101550510Y-133293898D01*
X101220408Y-133624000D01*
X101117689Y-133624000D01*
X101297296Y-133355200D01*
X101391000Y-132884117D01*
X101391000Y-132835883D01*
X101297296Y-132364800D01*
X101030448Y-131965435D01*
X100666000Y-131721918D01*
X100666000Y-131339513D01*
X100786190Y-131316897D01*
X100915865Y-131233454D01*
X101002859Y-131106134D01*
X101033464Y-130955000D01*
X101033464Y-129685000D01*
X101006897Y-129543810D01*
X100923454Y-129414135D01*
X100796134Y-129327141D01*
X100645000Y-129296536D01*
X100614244Y-129296536D01*
X100680882Y-129136054D01*
X100681118Y-128865135D01*
X100577661Y-128614748D01*
X100386259Y-128423013D01*
X100136054Y-128319118D01*
X99865135Y-128318882D01*
X99614748Y-128422339D01*
X99423013Y-128613741D01*
X99319118Y-128863946D01*
X99318882Y-129134865D01*
X99387571Y-129301107D01*
X99365000Y-129296536D01*
X98641742Y-129296536D01*
X98646000Y-129275129D01*
X98646000Y-129019513D01*
X98766190Y-128996897D01*
X98895865Y-128913454D01*
X98982859Y-128786134D01*
X99013464Y-128635000D01*
X99013464Y-128049477D01*
X101498168Y-128049477D01*
X101601625Y-128299864D01*
X101793027Y-128491599D01*
X102043232Y-128595494D01*
X102314151Y-128595730D01*
X102384917Y-128566490D01*
X102429339Y-128674000D01*
X102620741Y-128865735D01*
X102870946Y-128969630D01*
X103141865Y-128969866D01*
X103392252Y-128866409D01*
X103583987Y-128675007D01*
X103658837Y-128494749D01*
X111011251Y-128494749D01*
X111204889Y-128456232D01*
X111369047Y-128346545D01*
X112034561Y-127681031D01*
X112134865Y-127681118D01*
X112385252Y-127577661D01*
X112576987Y-127386259D01*
X112680882Y-127136054D01*
X112681118Y-126865135D01*
X112577661Y-126614748D01*
X112386259Y-126423013D01*
X112136054Y-126319118D01*
X111865135Y-126318882D01*
X111614748Y-126422339D01*
X111499968Y-126536920D01*
X111386259Y-126423013D01*
X111136054Y-126319118D01*
X110865135Y-126318882D01*
X110614748Y-126422339D01*
X110423013Y-126613741D01*
X110319118Y-126863946D01*
X110319030Y-126965378D01*
X110290408Y-126994000D01*
X102593898Y-126994000D01*
X102400260Y-127032517D01*
X102236102Y-127142204D01*
X102144725Y-127233581D01*
X102044421Y-127233494D01*
X101794034Y-127336951D01*
X101602299Y-127528353D01*
X101498404Y-127778558D01*
X101498168Y-128049477D01*
X99013464Y-128049477D01*
X99013464Y-127365000D01*
X98986897Y-127223810D01*
X98903454Y-127094135D01*
X98776134Y-127007141D01*
X98625000Y-126976536D01*
X97655000Y-126976536D01*
X97513810Y-127003103D01*
X97501663Y-127010919D01*
X97496134Y-127007141D01*
X97345000Y-126976536D01*
X96375000Y-126976536D01*
X96233810Y-127003103D01*
X96104135Y-127086546D01*
X96017141Y-127213866D01*
X95986536Y-127365000D01*
X95986536Y-127521542D01*
X95931362Y-127532517D01*
X95767204Y-127642204D01*
X95662164Y-127747244D01*
X94691000Y-126776080D01*
X94691000Y-126462335D01*
X94826190Y-126436897D01*
X94955865Y-126353454D01*
X95042859Y-126226134D01*
X95073464Y-126075000D01*
X95073464Y-124325000D01*
X95046897Y-124183810D01*
X94963454Y-124054135D01*
X94836134Y-123967141D01*
X94685000Y-123936536D01*
X92935000Y-123936536D01*
X92793810Y-123963103D01*
X92664135Y-124046546D01*
X92577141Y-124173866D01*
X92546536Y-124325000D01*
X92546536Y-126075000D01*
X92573103Y-126216190D01*
X92656546Y-126345865D01*
X92783866Y-126432859D01*
X92929000Y-126462249D01*
X92929000Y-126711151D01*
X92518257Y-126300408D01*
X92518257Y-118992335D01*
X92749592Y-118761000D01*
X93987877Y-118761000D01*
X94058741Y-118831987D01*
X94308946Y-118935882D01*
X94579865Y-118936118D01*
X94830252Y-118832661D01*
X94902038Y-118761000D01*
X95550410Y-118761000D01*
X99523971Y-122734561D01*
X99523884Y-122834865D01*
X99627341Y-123085252D01*
X99818743Y-123276987D01*
X100068948Y-123380882D01*
X100339867Y-123381118D01*
X100590254Y-123277661D01*
X100781989Y-123086259D01*
X100885884Y-122836054D01*
X100885962Y-122745962D01*
X101064865Y-122746118D01*
X101315252Y-122642661D01*
X101506987Y-122451259D01*
X101610882Y-122201054D01*
X101611118Y-121930135D01*
X101507661Y-121679748D01*
X101316259Y-121488013D01*
X101066054Y-121384118D01*
X100795135Y-121383882D01*
X100544748Y-121487339D01*
X100472962Y-121559000D01*
X100416004Y-121559000D01*
X99170950Y-120313946D01*
X105174801Y-120313946D01*
X105278258Y-120564333D01*
X105469660Y-120756068D01*
X105719865Y-120859963D01*
X105821297Y-120860051D01*
X106142204Y-121180958D01*
X106306362Y-121290645D01*
X106500000Y-121329162D01*
X107613570Y-121329162D01*
X110318969Y-124034561D01*
X110318882Y-124134865D01*
X110422339Y-124385252D01*
X110613741Y-124576987D01*
X110863946Y-124680882D01*
X111134865Y-124681118D01*
X111385252Y-124577661D01*
X111500032Y-124463080D01*
X111613741Y-124576987D01*
X111863946Y-124680882D01*
X112134865Y-124681118D01*
X112385252Y-124577661D01*
X112576987Y-124386259D01*
X112680882Y-124136054D01*
X112681118Y-123865135D01*
X112577661Y-123614748D01*
X112386259Y-123423013D01*
X112136054Y-123319118D01*
X112034622Y-123319030D01*
X108513186Y-119797594D01*
X108349028Y-119687907D01*
X108155390Y-119649390D01*
X107232503Y-119649390D01*
X107161639Y-119578403D01*
X106911434Y-119474508D01*
X106640515Y-119474272D01*
X106390128Y-119577729D01*
X106303842Y-119663865D01*
X106242178Y-119602094D01*
X105991973Y-119498199D01*
X105721054Y-119497963D01*
X105470667Y-119601420D01*
X105278932Y-119792822D01*
X105175037Y-120043027D01*
X105174801Y-120313946D01*
X99170950Y-120313946D01*
X97806000Y-118948996D01*
X97806000Y-117442123D01*
X97876987Y-117371259D01*
X97980882Y-117121054D01*
X97981118Y-116850135D01*
X97877661Y-116599748D01*
X97686259Y-116408013D01*
X97436054Y-116304118D01*
X97165135Y-116303882D01*
X96914748Y-116407339D01*
X96723013Y-116598741D01*
X96619118Y-116848946D01*
X96618882Y-117119865D01*
X96722339Y-117370252D01*
X96794000Y-117442038D01*
X96794000Y-118573406D01*
X96117798Y-117897204D01*
X95953640Y-117787517D01*
X95760002Y-117749000D01*
X94902123Y-117749000D01*
X94831259Y-117678013D01*
X94581054Y-117574118D01*
X94310135Y-117573882D01*
X94059748Y-117677339D01*
X93987962Y-117749000D01*
X92540000Y-117749000D01*
X92346362Y-117787517D01*
X92182204Y-117897204D01*
X91654461Y-118424947D01*
X91544774Y-118589105D01*
X91506257Y-118782743D01*
X91506257Y-126510000D01*
X91544774Y-126703638D01*
X91654461Y-126867796D01*
X93132415Y-128345750D01*
X93140464Y-128357796D01*
X93602193Y-128819525D01*
X92370036Y-128818450D01*
X91200463Y-129301707D01*
X90456000Y-130044872D01*
X90456000Y-111690000D01*
X96381536Y-111690000D01*
X96381536Y-113390000D01*
X96408103Y-113531190D01*
X96491546Y-113660865D01*
X96618866Y-113747859D01*
X96770000Y-113778464D01*
X98470000Y-113778464D01*
X98611190Y-113751897D01*
X98740865Y-113668454D01*
X98827859Y-113541134D01*
X98858464Y-113390000D01*
X98858464Y-112515883D01*
X98929000Y-112515883D01*
X98929000Y-112564117D01*
X99022704Y-113035200D01*
X99289552Y-113434565D01*
X99688917Y-113701413D01*
X100160000Y-113795117D01*
X100610012Y-113705604D01*
X100994000Y-114089592D01*
X100994000Y-114568487D01*
X100873810Y-114591103D01*
X100744135Y-114674546D01*
X100657141Y-114801866D01*
X100626536Y-114953000D01*
X100626536Y-116223000D01*
X100653103Y-116364190D01*
X100736546Y-116493865D01*
X100863866Y-116580859D01*
X101015000Y-116611464D01*
X101985000Y-116611464D01*
X102126190Y-116584897D01*
X102133187Y-116580395D01*
X102133866Y-116580859D01*
X102285000Y-116611464D01*
X103255000Y-116611464D01*
X103396190Y-116584897D01*
X103525865Y-116501454D01*
X103612859Y-116374134D01*
X103643464Y-116223000D01*
X103643464Y-115430128D01*
X103995644Y-115077948D01*
X104020929Y-115077948D01*
X104091793Y-115148935D01*
X104341998Y-115252830D01*
X104612917Y-115253066D01*
X104863304Y-115149609D01*
X105055039Y-114958207D01*
X105158934Y-114708002D01*
X105159170Y-114437083D01*
X105055713Y-114186696D01*
X104864311Y-113994961D01*
X104614106Y-113891066D01*
X104343187Y-113890830D01*
X104092800Y-113994287D01*
X104021014Y-114065948D01*
X103786052Y-114065948D01*
X103592414Y-114104465D01*
X103470854Y-114185689D01*
X103428256Y-114214152D01*
X103077872Y-114564536D01*
X102285000Y-114564536D01*
X102143810Y-114591103D01*
X102136813Y-114595605D01*
X102136134Y-114595141D01*
X102006000Y-114568789D01*
X102006000Y-113880000D01*
X101967483Y-113686362D01*
X101857796Y-113522204D01*
X101309490Y-112973898D01*
X101391000Y-112564117D01*
X101391000Y-112515883D01*
X101469000Y-112515883D01*
X101469000Y-112564117D01*
X101562704Y-113035200D01*
X101829552Y-113434565D01*
X102228917Y-113701413D01*
X102700000Y-113795117D01*
X103171083Y-113701413D01*
X103570448Y-113434565D01*
X103837296Y-113035200D01*
X103931000Y-112564117D01*
X103931000Y-112515883D01*
X104009000Y-112515883D01*
X104009000Y-112564117D01*
X104102704Y-113035200D01*
X104369552Y-113434565D01*
X104768917Y-113701413D01*
X105240000Y-113795117D01*
X105711083Y-113701413D01*
X106110448Y-113434565D01*
X106377296Y-113035200D01*
X106471000Y-112564117D01*
X106471000Y-112515883D01*
X106377296Y-112044800D01*
X106110448Y-111645435D01*
X105711083Y-111378587D01*
X105240000Y-111284883D01*
X104768917Y-111378587D01*
X104369552Y-111645435D01*
X104102704Y-112044800D01*
X104009000Y-112515883D01*
X103931000Y-112515883D01*
X103837296Y-112044800D01*
X103570448Y-111645435D01*
X103171083Y-111378587D01*
X102700000Y-111284883D01*
X102228917Y-111378587D01*
X101829552Y-111645435D01*
X101562704Y-112044800D01*
X101469000Y-112515883D01*
X101391000Y-112515883D01*
X101297296Y-112044800D01*
X101030448Y-111645435D01*
X100631083Y-111378587D01*
X100160000Y-111284883D01*
X99688917Y-111378587D01*
X99289552Y-111645435D01*
X99022704Y-112044800D01*
X98929000Y-112515883D01*
X98858464Y-112515883D01*
X98858464Y-111690000D01*
X98831897Y-111548810D01*
X98748454Y-111419135D01*
X98621134Y-111332141D01*
X98470000Y-111301536D01*
X96770000Y-111301536D01*
X96628810Y-111328103D01*
X96499135Y-111411546D01*
X96412141Y-111538866D01*
X96381536Y-111690000D01*
X90456000Y-111690000D01*
X90456000Y-111544912D01*
X90543723Y-111103897D01*
X90768098Y-110768098D01*
X91103897Y-110543723D01*
X91544913Y-110456000D01*
X113455088Y-110456000D01*
X113896103Y-110543723D01*
X113896103Y-110543723D01*
G37*
X113896103Y-110543723D02*
X114231902Y-110768098D01*
X114456277Y-111103897D01*
X114544000Y-111544913D01*
X114544000Y-130045900D01*
X113804244Y-129304852D01*
X112635516Y-128819554D01*
X111370036Y-128818450D01*
X110200463Y-129301707D01*
X109304852Y-130195756D01*
X108819554Y-131364484D01*
X108818450Y-132629964D01*
X109301707Y-133799537D01*
X110044872Y-134544000D01*
X101703681Y-134544000D01*
X101787796Y-134487796D01*
X102249988Y-134025604D01*
X102700000Y-134115117D01*
X103171083Y-134021413D01*
X103570448Y-133754565D01*
X103837296Y-133355200D01*
X103931000Y-132884117D01*
X103931000Y-132835883D01*
X103837296Y-132364800D01*
X103570448Y-131965435D01*
X103171083Y-131698587D01*
X102700000Y-131604883D01*
X102228917Y-131698587D01*
X101829552Y-131965435D01*
X101562704Y-132364800D01*
X101469000Y-132835883D01*
X101469000Y-132884117D01*
X101550510Y-133293898D01*
X101220408Y-133624000D01*
X101117689Y-133624000D01*
X101297296Y-133355200D01*
X101391000Y-132884117D01*
X101391000Y-132835883D01*
X101297296Y-132364800D01*
X101030448Y-131965435D01*
X100666000Y-131721918D01*
X100666000Y-131339513D01*
X100786190Y-131316897D01*
X100915865Y-131233454D01*
X101002859Y-131106134D01*
X101033464Y-130955000D01*
X101033464Y-129685000D01*
X101006897Y-129543810D01*
X100923454Y-129414135D01*
X100796134Y-129327141D01*
X100645000Y-129296536D01*
X100614244Y-129296536D01*
X100680882Y-129136054D01*
X100681118Y-128865135D01*
X100577661Y-128614748D01*
X100386259Y-128423013D01*
X100136054Y-128319118D01*
X99865135Y-128318882D01*
X99614748Y-128422339D01*
X99423013Y-128613741D01*
X99319118Y-128863946D01*
X99318882Y-129134865D01*
X99387571Y-129301107D01*
X99365000Y-129296536D01*
X98641742Y-129296536D01*
X98646000Y-129275129D01*
X98646000Y-129019513D01*
X98766190Y-128996897D01*
X98895865Y-128913454D01*
X98982859Y-128786134D01*
X99013464Y-128635000D01*
X99013464Y-128049477D01*
X101498168Y-128049477D01*
X101601625Y-128299864D01*
X101793027Y-128491599D01*
X102043232Y-128595494D01*
X102314151Y-128595730D01*
X102384917Y-128566490D01*
X102429339Y-128674000D01*
X102620741Y-128865735D01*
X102870946Y-128969630D01*
X103141865Y-128969866D01*
X103392252Y-128866409D01*
X103583987Y-128675007D01*
X103658837Y-128494749D01*
X111011251Y-128494749D01*
X111204889Y-128456232D01*
X111369047Y-128346545D01*
X112034561Y-127681031D01*
X112134865Y-127681118D01*
X112385252Y-127577661D01*
X112576987Y-127386259D01*
X112680882Y-127136054D01*
X112681118Y-126865135D01*
X112577661Y-126614748D01*
X112386259Y-126423013D01*
X112136054Y-126319118D01*
X111865135Y-126318882D01*
X111614748Y-126422339D01*
X111499968Y-126536920D01*
X111386259Y-126423013D01*
X111136054Y-126319118D01*
X110865135Y-126318882D01*
X110614748Y-126422339D01*
X110423013Y-126613741D01*
X110319118Y-126863946D01*
X110319030Y-126965378D01*
X110290408Y-126994000D01*
X102593898Y-126994000D01*
X102400260Y-127032517D01*
X102236102Y-127142204D01*
X102144725Y-127233581D01*
X102044421Y-127233494D01*
X101794034Y-127336951D01*
X101602299Y-127528353D01*
X101498404Y-127778558D01*
X101498168Y-128049477D01*
X99013464Y-128049477D01*
X99013464Y-127365000D01*
X98986897Y-127223810D01*
X98903454Y-127094135D01*
X98776134Y-127007141D01*
X98625000Y-126976536D01*
X97655000Y-126976536D01*
X97513810Y-127003103D01*
X97501663Y-127010919D01*
X97496134Y-127007141D01*
X97345000Y-126976536D01*
X96375000Y-126976536D01*
X96233810Y-127003103D01*
X96104135Y-127086546D01*
X96017141Y-127213866D01*
X95986536Y-127365000D01*
X95986536Y-127521542D01*
X95931362Y-127532517D01*
X95767204Y-127642204D01*
X95662164Y-127747244D01*
X94691000Y-126776080D01*
X94691000Y-126462335D01*
X94826190Y-126436897D01*
X94955865Y-126353454D01*
X95042859Y-126226134D01*
X95073464Y-126075000D01*
X95073464Y-124325000D01*
X95046897Y-124183810D01*
X94963454Y-124054135D01*
X94836134Y-123967141D01*
X94685000Y-123936536D01*
X92935000Y-123936536D01*
X92793810Y-123963103D01*
X92664135Y-124046546D01*
X92577141Y-124173866D01*
X92546536Y-124325000D01*
X92546536Y-126075000D01*
X92573103Y-126216190D01*
X92656546Y-126345865D01*
X92783866Y-126432859D01*
X92929000Y-126462249D01*
X92929000Y-126711151D01*
X92518257Y-126300408D01*
X92518257Y-118992335D01*
X92749592Y-118761000D01*
X93987877Y-118761000D01*
X94058741Y-118831987D01*
X94308946Y-118935882D01*
X94579865Y-118936118D01*
X94830252Y-118832661D01*
X94902038Y-118761000D01*
X95550410Y-118761000D01*
X99523971Y-122734561D01*
X99523884Y-122834865D01*
X99627341Y-123085252D01*
X99818743Y-123276987D01*
X100068948Y-123380882D01*
X100339867Y-123381118D01*
X100590254Y-123277661D01*
X100781989Y-123086259D01*
X100885884Y-122836054D01*
X100885962Y-122745962D01*
X101064865Y-122746118D01*
X101315252Y-122642661D01*
X101506987Y-122451259D01*
X101610882Y-122201054D01*
X101611118Y-121930135D01*
X101507661Y-121679748D01*
X101316259Y-121488013D01*
X101066054Y-121384118D01*
X100795135Y-121383882D01*
X100544748Y-121487339D01*
X100472962Y-121559000D01*
X100416004Y-121559000D01*
X99170950Y-120313946D01*
X105174801Y-120313946D01*
X105278258Y-120564333D01*
X105469660Y-120756068D01*
X105719865Y-120859963D01*
X105821297Y-120860051D01*
X106142204Y-121180958D01*
X106306362Y-121290645D01*
X106500000Y-121329162D01*
X107613570Y-121329162D01*
X110318969Y-124034561D01*
X110318882Y-124134865D01*
X110422339Y-124385252D01*
X110613741Y-124576987D01*
X110863946Y-124680882D01*
X111134865Y-124681118D01*
X111385252Y-124577661D01*
X111500032Y-124463080D01*
X111613741Y-124576987D01*
X111863946Y-124680882D01*
X112134865Y-124681118D01*
X112385252Y-124577661D01*
X112576987Y-124386259D01*
X112680882Y-124136054D01*
X112681118Y-123865135D01*
X112577661Y-123614748D01*
X112386259Y-123423013D01*
X112136054Y-123319118D01*
X112034622Y-123319030D01*
X108513186Y-119797594D01*
X108349028Y-119687907D01*
X108155390Y-119649390D01*
X107232503Y-119649390D01*
X107161639Y-119578403D01*
X106911434Y-119474508D01*
X106640515Y-119474272D01*
X106390128Y-119577729D01*
X106303842Y-119663865D01*
X106242178Y-119602094D01*
X105991973Y-119498199D01*
X105721054Y-119497963D01*
X105470667Y-119601420D01*
X105278932Y-119792822D01*
X105175037Y-120043027D01*
X105174801Y-120313946D01*
X99170950Y-120313946D01*
X97806000Y-118948996D01*
X97806000Y-117442123D01*
X97876987Y-117371259D01*
X97980882Y-117121054D01*
X97981118Y-116850135D01*
X97877661Y-116599748D01*
X97686259Y-116408013D01*
X97436054Y-116304118D01*
X97165135Y-116303882D01*
X96914748Y-116407339D01*
X96723013Y-116598741D01*
X96619118Y-116848946D01*
X96618882Y-117119865D01*
X96722339Y-117370252D01*
X96794000Y-117442038D01*
X96794000Y-118573406D01*
X96117798Y-117897204D01*
X95953640Y-117787517D01*
X95760002Y-117749000D01*
X94902123Y-117749000D01*
X94831259Y-117678013D01*
X94581054Y-117574118D01*
X94310135Y-117573882D01*
X94059748Y-117677339D01*
X93987962Y-117749000D01*
X92540000Y-117749000D01*
X92346362Y-117787517D01*
X92182204Y-117897204D01*
X91654461Y-118424947D01*
X91544774Y-118589105D01*
X91506257Y-118782743D01*
X91506257Y-126510000D01*
X91544774Y-126703638D01*
X91654461Y-126867796D01*
X93132415Y-128345750D01*
X93140464Y-128357796D01*
X93602193Y-128819525D01*
X92370036Y-128818450D01*
X91200463Y-129301707D01*
X90456000Y-130044872D01*
X90456000Y-111690000D01*
X96381536Y-111690000D01*
X96381536Y-113390000D01*
X96408103Y-113531190D01*
X96491546Y-113660865D01*
X96618866Y-113747859D01*
X96770000Y-113778464D01*
X98470000Y-113778464D01*
X98611190Y-113751897D01*
X98740865Y-113668454D01*
X98827859Y-113541134D01*
X98858464Y-113390000D01*
X98858464Y-112515883D01*
X98929000Y-112515883D01*
X98929000Y-112564117D01*
X99022704Y-113035200D01*
X99289552Y-113434565D01*
X99688917Y-113701413D01*
X100160000Y-113795117D01*
X100610012Y-113705604D01*
X100994000Y-114089592D01*
X100994000Y-114568487D01*
X100873810Y-114591103D01*
X100744135Y-114674546D01*
X100657141Y-114801866D01*
X100626536Y-114953000D01*
X100626536Y-116223000D01*
X100653103Y-116364190D01*
X100736546Y-116493865D01*
X100863866Y-116580859D01*
X101015000Y-116611464D01*
X101985000Y-116611464D01*
X102126190Y-116584897D01*
X102133187Y-116580395D01*
X102133866Y-116580859D01*
X102285000Y-116611464D01*
X103255000Y-116611464D01*
X103396190Y-116584897D01*
X103525865Y-116501454D01*
X103612859Y-116374134D01*
X103643464Y-116223000D01*
X103643464Y-115430128D01*
X103995644Y-115077948D01*
X104020929Y-115077948D01*
X104091793Y-115148935D01*
X104341998Y-115252830D01*
X104612917Y-115253066D01*
X104863304Y-115149609D01*
X105055039Y-114958207D01*
X105158934Y-114708002D01*
X105159170Y-114437083D01*
X105055713Y-114186696D01*
X104864311Y-113994961D01*
X104614106Y-113891066D01*
X104343187Y-113890830D01*
X104092800Y-113994287D01*
X104021014Y-114065948D01*
X103786052Y-114065948D01*
X103592414Y-114104465D01*
X103470854Y-114185689D01*
X103428256Y-114214152D01*
X103077872Y-114564536D01*
X102285000Y-114564536D01*
X102143810Y-114591103D01*
X102136813Y-114595605D01*
X102136134Y-114595141D01*
X102006000Y-114568789D01*
X102006000Y-113880000D01*
X101967483Y-113686362D01*
X101857796Y-113522204D01*
X101309490Y-112973898D01*
X101391000Y-112564117D01*
X101391000Y-112515883D01*
X101469000Y-112515883D01*
X101469000Y-112564117D01*
X101562704Y-113035200D01*
X101829552Y-113434565D01*
X102228917Y-113701413D01*
X102700000Y-113795117D01*
X103171083Y-113701413D01*
X103570448Y-113434565D01*
X103837296Y-113035200D01*
X103931000Y-112564117D01*
X103931000Y-112515883D01*
X104009000Y-112515883D01*
X104009000Y-112564117D01*
X104102704Y-113035200D01*
X104369552Y-113434565D01*
X104768917Y-113701413D01*
X105240000Y-113795117D01*
X105711083Y-113701413D01*
X106110448Y-113434565D01*
X106377296Y-113035200D01*
X106471000Y-112564117D01*
X106471000Y-112515883D01*
X106377296Y-112044800D01*
X106110448Y-111645435D01*
X105711083Y-111378587D01*
X105240000Y-111284883D01*
X104768917Y-111378587D01*
X104369552Y-111645435D01*
X104102704Y-112044800D01*
X104009000Y-112515883D01*
X103931000Y-112515883D01*
X103837296Y-112044800D01*
X103570448Y-111645435D01*
X103171083Y-111378587D01*
X102700000Y-111284883D01*
X102228917Y-111378587D01*
X101829552Y-111645435D01*
X101562704Y-112044800D01*
X101469000Y-112515883D01*
X101391000Y-112515883D01*
X101297296Y-112044800D01*
X101030448Y-111645435D01*
X100631083Y-111378587D01*
X100160000Y-111284883D01*
X99688917Y-111378587D01*
X99289552Y-111645435D01*
X99022704Y-112044800D01*
X98929000Y-112515883D01*
X98858464Y-112515883D01*
X98858464Y-111690000D01*
X98831897Y-111548810D01*
X98748454Y-111419135D01*
X98621134Y-111332141D01*
X98470000Y-111301536D01*
X96770000Y-111301536D01*
X96628810Y-111328103D01*
X96499135Y-111411546D01*
X96412141Y-111538866D01*
X96381536Y-111690000D01*
X90456000Y-111690000D01*
X90456000Y-111544912D01*
X90543723Y-111103897D01*
X90768098Y-110768098D01*
X91103897Y-110543723D01*
X91544913Y-110456000D01*
X113455088Y-110456000D01*
X113896103Y-110543723D01*
M02*
