G04 #@! TF.FileFunction,Legend,Top*
%FSLAX46Y46*%
G04 Gerber Fmt 4.6, Leading zero omitted, Abs format (unit mm)*
G04 Created by KiCad (PCBNEW 4.0.5) date Sunday, 09. April 2017 'u43' 16:43:39*
%MOMM*%
%LPD*%
G01*
G04 APERTURE LIST*
%ADD10C,0.100000*%
%ADD11C,0.200000*%
%ADD12C,0.150000*%
%ADD13C,0.120000*%
G04 APERTURE END LIST*
D10*
D11*
X98707381Y-126184285D02*
X98707381Y-126660476D01*
X97707381Y-126660476D01*
X98707381Y-125850952D02*
X98040714Y-125850952D01*
X97707381Y-125850952D02*
X97755000Y-125898571D01*
X97802619Y-125850952D01*
X97755000Y-125803333D01*
X97707381Y-125850952D01*
X97802619Y-125850952D01*
X98183571Y-125041428D02*
X98183571Y-125374762D01*
X98707381Y-125374762D02*
X97707381Y-125374762D01*
X97707381Y-124898571D01*
X98659762Y-124136666D02*
X98707381Y-124231904D01*
X98707381Y-124422381D01*
X98659762Y-124517619D01*
X98564524Y-124565238D01*
X98183571Y-124565238D01*
X98088333Y-124517619D01*
X98040714Y-124422381D01*
X98040714Y-124231904D01*
X98088333Y-124136666D01*
X98183571Y-124089047D01*
X98278810Y-124089047D01*
X98374048Y-124565238D01*
X98707381Y-123660476D02*
X97707381Y-123660476D01*
X97707381Y-123279523D01*
X97755000Y-123184285D01*
X97802619Y-123136666D01*
X97897857Y-123089047D01*
X98040714Y-123089047D01*
X98135952Y-123136666D01*
X98183571Y-123184285D01*
X98231190Y-123279523D01*
X98231190Y-123660476D01*
X98707381Y-122517619D02*
X98659762Y-122612857D01*
X98612143Y-122660476D01*
X98516905Y-122708095D01*
X98231190Y-122708095D01*
X98135952Y-122660476D01*
X98088333Y-122612857D01*
X98040714Y-122517619D01*
X98040714Y-122374761D01*
X98088333Y-122279523D01*
X98135952Y-122231904D01*
X98231190Y-122184285D01*
X98516905Y-122184285D01*
X98612143Y-122231904D01*
X98659762Y-122279523D01*
X98707381Y-122374761D01*
X98707381Y-122517619D01*
X98040714Y-121327142D02*
X98707381Y-121327142D01*
X97659762Y-121565238D02*
X98374048Y-121803333D01*
X98374048Y-121184285D01*
D12*
X113500000Y-135000000D02*
G75*
G03X115000000Y-133500000I0J1500000D01*
G01*
X90000000Y-133500000D02*
G75*
G03X91500000Y-135000000I1500000J0D01*
G01*
X115000000Y-111500000D02*
G75*
G03X113500000Y-110000000I-1500000J0D01*
G01*
X91500000Y-110000000D02*
G75*
G03X90000000Y-111500000I0J-1500000D01*
G01*
D11*
X97571429Y-131761905D02*
X97571429Y-131000000D01*
X97952381Y-131380952D02*
X97190476Y-131380952D01*
X97428571Y-130190476D02*
X97476190Y-130047619D01*
X97523810Y-130000000D01*
X97619048Y-129952381D01*
X97761905Y-129952381D01*
X97857143Y-130000000D01*
X97904762Y-130047619D01*
X97952381Y-130142857D01*
X97952381Y-130523810D01*
X96952381Y-130523810D01*
X96952381Y-130190476D01*
X97000000Y-130095238D01*
X97047619Y-130047619D01*
X97142857Y-130000000D01*
X97238095Y-130000000D01*
X97333333Y-130047619D01*
X97380952Y-130095238D01*
X97428571Y-130190476D01*
X97428571Y-130523810D01*
X97666667Y-129571429D02*
X97666667Y-129095238D01*
X97952381Y-129666667D02*
X96952381Y-129333334D01*
X97952381Y-129000000D01*
X96952381Y-128809524D02*
X96952381Y-128238095D01*
X97952381Y-128523810D02*
X96952381Y-128523810D01*
X100404762Y-131309524D02*
X100452381Y-131166667D01*
X100452381Y-130928571D01*
X100404762Y-130833333D01*
X100357143Y-130785714D01*
X100261905Y-130738095D01*
X100166667Y-130738095D01*
X100071429Y-130785714D01*
X100023810Y-130833333D01*
X99976190Y-130928571D01*
X99928571Y-131119048D01*
X99880952Y-131214286D01*
X99833333Y-131261905D01*
X99738095Y-131309524D01*
X99642857Y-131309524D01*
X99547619Y-131261905D01*
X99500000Y-131214286D01*
X99452381Y-131119048D01*
X99452381Y-130880952D01*
X99500000Y-130738095D01*
X102202381Y-131404762D02*
X102202381Y-130833333D01*
X103202381Y-131119048D02*
X102202381Y-131119048D01*
X102678571Y-130500000D02*
X102678571Y-130166666D01*
X103202381Y-130023809D02*
X103202381Y-130500000D01*
X102202381Y-130500000D01*
X102202381Y-130023809D01*
X103202381Y-129595238D02*
X102202381Y-129595238D01*
X102916667Y-129261904D01*
X102202381Y-128928571D01*
X103202381Y-128928571D01*
X103202381Y-128452381D02*
X102202381Y-128452381D01*
X102202381Y-128071428D01*
X102250000Y-127976190D01*
X102297619Y-127928571D01*
X102392857Y-127880952D01*
X102535714Y-127880952D01*
X102630952Y-127928571D01*
X102678571Y-127976190D01*
X102726190Y-128071428D01*
X102726190Y-128452381D01*
X104750000Y-130738095D02*
X104702381Y-130833333D01*
X104702381Y-130976190D01*
X104750000Y-131119048D01*
X104845238Y-131214286D01*
X104940476Y-131261905D01*
X105130952Y-131309524D01*
X105273810Y-131309524D01*
X105464286Y-131261905D01*
X105559524Y-131214286D01*
X105654762Y-131119048D01*
X105702381Y-130976190D01*
X105702381Y-130880952D01*
X105654762Y-130738095D01*
X105607143Y-130690476D01*
X105273810Y-130690476D01*
X105273810Y-130880952D01*
X105702381Y-130261905D02*
X104702381Y-130261905D01*
X105702381Y-129690476D01*
X104702381Y-129690476D01*
X105702381Y-129214286D02*
X104702381Y-129214286D01*
X104702381Y-128976191D01*
X104750000Y-128833333D01*
X104845238Y-128738095D01*
X104940476Y-128690476D01*
X105130952Y-128642857D01*
X105273810Y-128642857D01*
X105464286Y-128690476D01*
X105559524Y-128738095D01*
X105654762Y-128833333D01*
X105702381Y-128976191D01*
X105702381Y-129214286D01*
D12*
X113500000Y-135000000D02*
X91500000Y-135000000D01*
X115000000Y-111500000D02*
X115000000Y-133500000D01*
X91500000Y-110000000D02*
X113500000Y-110000000D01*
X90000000Y-133500000D02*
X90000000Y-111500000D01*
D13*
X108500000Y-121680000D02*
X106500000Y-121680000D01*
X106500000Y-123720000D02*
X108500000Y-123720000D01*
X99945000Y-119660000D02*
X99945000Y-120660000D01*
X101645000Y-120660000D02*
X101645000Y-119660000D01*
X108500000Y-125490000D02*
X106500000Y-125490000D01*
X106500000Y-127530000D02*
X108500000Y-127530000D01*
X90740000Y-115015000D02*
X90740000Y-116415000D01*
X90740000Y-116415000D02*
X93540000Y-116415000D01*
X90740000Y-115015000D02*
X93540000Y-115015000D01*
D12*
X115400000Y-120080000D02*
X114700000Y-119830000D01*
X115400000Y-112080000D02*
X114700000Y-112330000D01*
X115400000Y-120080000D02*
X115400000Y-112080000D01*
X109700000Y-119830000D02*
X114700000Y-119830000D01*
X109700000Y-112330000D02*
X109700000Y-119830000D01*
X114700000Y-112330000D02*
X109700000Y-112330000D01*
X114700000Y-119830000D02*
X114700000Y-112330000D01*
D13*
X98890000Y-113870000D02*
X109110000Y-113870000D01*
X109110000Y-113870000D02*
X109110000Y-111210000D01*
X109110000Y-111210000D02*
X98890000Y-111210000D01*
X98890000Y-111210000D02*
X98890000Y-113870000D01*
X97620000Y-113870000D02*
X96290000Y-113870000D01*
X96290000Y-113870000D02*
X96290000Y-112540000D01*
X98890000Y-134190000D02*
X106570000Y-134190000D01*
X106570000Y-134190000D02*
X106570000Y-131530000D01*
X106570000Y-131530000D02*
X98890000Y-131530000D01*
X98890000Y-131530000D02*
X98890000Y-134190000D01*
X97620000Y-134190000D02*
X96290000Y-134190000D01*
X96290000Y-134190000D02*
X96290000Y-132860000D01*
X103370000Y-114835000D02*
X104570000Y-114835000D01*
X104570000Y-116595000D02*
X103370000Y-116595000D01*
X93210000Y-111660000D02*
X94410000Y-111660000D01*
X94410000Y-113420000D02*
X93210000Y-113420000D01*
X95750000Y-114835000D02*
X96950000Y-114835000D01*
X96950000Y-116595000D02*
X95750000Y-116595000D01*
X100600000Y-130380000D02*
X99400000Y-130380000D01*
X99400000Y-128620000D02*
X100600000Y-128620000D01*
X95750000Y-117375000D02*
X96950000Y-117375000D01*
X96950000Y-119135000D02*
X95750000Y-119135000D01*
X91940000Y-117375000D02*
X93140000Y-117375000D01*
X93140000Y-119135000D02*
X91940000Y-119135000D01*
D12*
X101375000Y-123903000D02*
X101375000Y-125053000D01*
X104625000Y-123128000D02*
X104625000Y-125053000D01*
D13*
X106710000Y-118620000D02*
X106710000Y-116620000D01*
X108850000Y-116620000D02*
X108850000Y-118620000D01*
X91360000Y-127750000D02*
X97310000Y-127750000D01*
X97310000Y-127750000D02*
X97310000Y-120150000D01*
X97310000Y-120150000D02*
X91360000Y-120150000D01*
X91360000Y-120150000D02*
X91360000Y-127750000D01*
X91360000Y-124450000D02*
X92110000Y-124450000D01*
X92110000Y-124450000D02*
X92110000Y-123450000D01*
X92110000Y-123450000D02*
X91360000Y-123450000D01*
X91360000Y-123450000D02*
X91360000Y-124450000D01*
X91360000Y-127750000D02*
X92110000Y-127750000D01*
X92110000Y-127750000D02*
X92110000Y-125950000D01*
X92110000Y-125950000D02*
X91360000Y-125950000D01*
X91360000Y-125950000D02*
X91360000Y-127750000D01*
X91360000Y-121950000D02*
X92110000Y-121950000D01*
X92110000Y-121950000D02*
X92110000Y-120150000D01*
X92110000Y-120150000D02*
X91360000Y-120150000D01*
X91360000Y-120150000D02*
X91360000Y-121950000D01*
X93610000Y-127750000D02*
X93610000Y-127000000D01*
X93610000Y-127000000D02*
X96560000Y-127000000D01*
X96560000Y-127000000D02*
X96560000Y-123950000D01*
X93610000Y-120150000D02*
X93610000Y-120900000D01*
X93610000Y-120900000D02*
X96560000Y-120900000D01*
X96560000Y-120900000D02*
X96560000Y-123950000D01*
X91060000Y-125550000D02*
X91060000Y-128050000D01*
X91060000Y-128050000D02*
X93560000Y-128050000D01*
D12*
X110857143Y-122916666D02*
X110904762Y-122964285D01*
X110952381Y-123107142D01*
X110952381Y-123202380D01*
X110904762Y-123345238D01*
X110809524Y-123440476D01*
X110714286Y-123488095D01*
X110523810Y-123535714D01*
X110380952Y-123535714D01*
X110190476Y-123488095D01*
X110095238Y-123440476D01*
X110000000Y-123345238D01*
X109952381Y-123202380D01*
X109952381Y-123107142D01*
X110000000Y-122964285D01*
X110047619Y-122916666D01*
X110952381Y-121964285D02*
X110952381Y-122535714D01*
X110952381Y-122250000D02*
X109952381Y-122250000D01*
X110095238Y-122345238D01*
X110190476Y-122440476D01*
X110238095Y-122535714D01*
X102857143Y-120326666D02*
X102904762Y-120374285D01*
X102952381Y-120517142D01*
X102952381Y-120612380D01*
X102904762Y-120755238D01*
X102809524Y-120850476D01*
X102714286Y-120898095D01*
X102523810Y-120945714D01*
X102380952Y-120945714D01*
X102190476Y-120898095D01*
X102095238Y-120850476D01*
X102000000Y-120755238D01*
X101952381Y-120612380D01*
X101952381Y-120517142D01*
X102000000Y-120374285D01*
X102047619Y-120326666D01*
X102047619Y-119945714D02*
X102000000Y-119898095D01*
X101952381Y-119802857D01*
X101952381Y-119564761D01*
X102000000Y-119469523D01*
X102047619Y-119421904D01*
X102142857Y-119374285D01*
X102238095Y-119374285D01*
X102380952Y-119421904D01*
X102952381Y-119993333D01*
X102952381Y-119374285D01*
X110857143Y-126666666D02*
X110904762Y-126714285D01*
X110952381Y-126857142D01*
X110952381Y-126952380D01*
X110904762Y-127095238D01*
X110809524Y-127190476D01*
X110714286Y-127238095D01*
X110523810Y-127285714D01*
X110380952Y-127285714D01*
X110190476Y-127238095D01*
X110095238Y-127190476D01*
X110000000Y-127095238D01*
X109952381Y-126952380D01*
X109952381Y-126857142D01*
X110000000Y-126714285D01*
X110047619Y-126666666D01*
X109952381Y-126333333D02*
X109952381Y-125714285D01*
X110333333Y-126047619D01*
X110333333Y-125904761D01*
X110380952Y-125809523D01*
X110428571Y-125761904D01*
X110523810Y-125714285D01*
X110761905Y-125714285D01*
X110857143Y-125761904D01*
X110904762Y-125809523D01*
X110952381Y-125904761D01*
X110952381Y-126190476D01*
X110904762Y-126285714D01*
X110857143Y-126333333D01*
X91801905Y-114717381D02*
X91801905Y-113717381D01*
X92040000Y-113717381D01*
X92182858Y-113765000D01*
X92278096Y-113860238D01*
X92325715Y-113955476D01*
X92373334Y-114145952D01*
X92373334Y-114288810D01*
X92325715Y-114479286D01*
X92278096Y-114574524D01*
X92182858Y-114669762D01*
X92040000Y-114717381D01*
X91801905Y-114717381D01*
X93325715Y-114717381D02*
X92754286Y-114717381D01*
X93040000Y-114717381D02*
X93040000Y-113717381D01*
X92944762Y-113860238D01*
X92849524Y-113955476D01*
X92754286Y-114003095D01*
X112761905Y-111702381D02*
X112761905Y-110702381D01*
X113142858Y-110702381D01*
X113238096Y-110750000D01*
X113285715Y-110797619D01*
X113333334Y-110892857D01*
X113333334Y-111035714D01*
X113285715Y-111130952D01*
X113238096Y-111178571D01*
X113142858Y-111226190D01*
X112761905Y-111226190D01*
X114285715Y-111702381D02*
X113714286Y-111702381D01*
X114000000Y-111702381D02*
X114000000Y-110702381D01*
X113904762Y-110845238D01*
X113809524Y-110940476D01*
X113714286Y-110988095D01*
X109511905Y-111702381D02*
X109511905Y-110702381D01*
X109892858Y-110702381D01*
X109988096Y-110750000D01*
X110035715Y-110797619D01*
X110083334Y-110892857D01*
X110083334Y-111035714D01*
X110035715Y-111130952D01*
X109988096Y-111178571D01*
X109892858Y-111226190D01*
X109511905Y-111226190D01*
X110464286Y-110797619D02*
X110511905Y-110750000D01*
X110607143Y-110702381D01*
X110845239Y-110702381D01*
X110940477Y-110750000D01*
X110988096Y-110797619D01*
X111035715Y-110892857D01*
X111035715Y-110988095D01*
X110988096Y-111130952D01*
X110416667Y-111702381D01*
X111035715Y-111702381D01*
X107952381Y-133598095D02*
X106952381Y-133598095D01*
X106952381Y-133217142D01*
X107000000Y-133121904D01*
X107047619Y-133074285D01*
X107142857Y-133026666D01*
X107285714Y-133026666D01*
X107380952Y-133074285D01*
X107428571Y-133121904D01*
X107476190Y-133217142D01*
X107476190Y-133598095D01*
X106952381Y-132693333D02*
X106952381Y-132074285D01*
X107333333Y-132407619D01*
X107333333Y-132264761D01*
X107380952Y-132169523D01*
X107428571Y-132121904D01*
X107523810Y-132074285D01*
X107761905Y-132074285D01*
X107857143Y-132121904D01*
X107904762Y-132169523D01*
X107952381Y-132264761D01*
X107952381Y-132550476D01*
X107904762Y-132645714D01*
X107857143Y-132693333D01*
X103833334Y-117952381D02*
X103500000Y-117476190D01*
X103261905Y-117952381D02*
X103261905Y-116952381D01*
X103642858Y-116952381D01*
X103738096Y-117000000D01*
X103785715Y-117047619D01*
X103833334Y-117142857D01*
X103833334Y-117285714D01*
X103785715Y-117380952D01*
X103738096Y-117428571D01*
X103642858Y-117476190D01*
X103261905Y-117476190D01*
X104785715Y-117952381D02*
X104214286Y-117952381D01*
X104500000Y-117952381D02*
X104500000Y-116952381D01*
X104404762Y-117095238D01*
X104309524Y-117190476D01*
X104214286Y-117238095D01*
X91952381Y-112666666D02*
X91476190Y-113000000D01*
X91952381Y-113238095D02*
X90952381Y-113238095D01*
X90952381Y-112857142D01*
X91000000Y-112761904D01*
X91047619Y-112714285D01*
X91142857Y-112666666D01*
X91285714Y-112666666D01*
X91380952Y-112714285D01*
X91428571Y-112761904D01*
X91476190Y-112857142D01*
X91476190Y-113238095D01*
X91047619Y-112285714D02*
X91000000Y-112238095D01*
X90952381Y-112142857D01*
X90952381Y-111904761D01*
X91000000Y-111809523D01*
X91047619Y-111761904D01*
X91142857Y-111714285D01*
X91238095Y-111714285D01*
X91380952Y-111761904D01*
X91952381Y-112333333D01*
X91952381Y-111714285D01*
X99202381Y-115916666D02*
X98726190Y-116250000D01*
X99202381Y-116488095D02*
X98202381Y-116488095D01*
X98202381Y-116107142D01*
X98250000Y-116011904D01*
X98297619Y-115964285D01*
X98392857Y-115916666D01*
X98535714Y-115916666D01*
X98630952Y-115964285D01*
X98678571Y-116011904D01*
X98726190Y-116107142D01*
X98726190Y-116488095D01*
X98202381Y-115583333D02*
X98202381Y-114964285D01*
X98583333Y-115297619D01*
X98583333Y-115154761D01*
X98630952Y-115059523D01*
X98678571Y-115011904D01*
X98773810Y-114964285D01*
X99011905Y-114964285D01*
X99107143Y-115011904D01*
X99154762Y-115059523D01*
X99202381Y-115154761D01*
X99202381Y-115440476D01*
X99154762Y-115535714D01*
X99107143Y-115583333D01*
X99833334Y-128452381D02*
X99500000Y-127976190D01*
X99261905Y-128452381D02*
X99261905Y-127452381D01*
X99642858Y-127452381D01*
X99738096Y-127500000D01*
X99785715Y-127547619D01*
X99833334Y-127642857D01*
X99833334Y-127785714D01*
X99785715Y-127880952D01*
X99738096Y-127928571D01*
X99642858Y-127976190D01*
X99261905Y-127976190D01*
X100690477Y-127785714D02*
X100690477Y-128452381D01*
X100452381Y-127404762D02*
X100214286Y-128119048D01*
X100833334Y-128119048D01*
X99202381Y-118416666D02*
X98726190Y-118750000D01*
X99202381Y-118988095D02*
X98202381Y-118988095D01*
X98202381Y-118607142D01*
X98250000Y-118511904D01*
X98297619Y-118464285D01*
X98392857Y-118416666D01*
X98535714Y-118416666D01*
X98630952Y-118464285D01*
X98678571Y-118511904D01*
X98726190Y-118607142D01*
X98726190Y-118988095D01*
X98202381Y-117511904D02*
X98202381Y-117988095D01*
X98678571Y-118035714D01*
X98630952Y-117988095D01*
X98583333Y-117892857D01*
X98583333Y-117654761D01*
X98630952Y-117559523D01*
X98678571Y-117511904D01*
X98773810Y-117464285D01*
X99011905Y-117464285D01*
X99107143Y-117511904D01*
X99154762Y-117559523D01*
X99202381Y-117654761D01*
X99202381Y-117892857D01*
X99154762Y-117988095D01*
X99107143Y-118035714D01*
X92373334Y-117452381D02*
X92040000Y-116976190D01*
X91801905Y-117452381D02*
X91801905Y-116452381D01*
X92182858Y-116452381D01*
X92278096Y-116500000D01*
X92325715Y-116547619D01*
X92373334Y-116642857D01*
X92373334Y-116785714D01*
X92325715Y-116880952D01*
X92278096Y-116928571D01*
X92182858Y-116976190D01*
X91801905Y-116976190D01*
X93230477Y-116452381D02*
X93040000Y-116452381D01*
X92944762Y-116500000D01*
X92897143Y-116547619D01*
X92801905Y-116690476D01*
X92754286Y-116880952D01*
X92754286Y-117261905D01*
X92801905Y-117357143D01*
X92849524Y-117404762D01*
X92944762Y-117452381D01*
X93135239Y-117452381D01*
X93230477Y-117404762D01*
X93278096Y-117357143D01*
X93325715Y-117261905D01*
X93325715Y-117023810D01*
X93278096Y-116928571D01*
X93230477Y-116880952D01*
X93135239Y-116833333D01*
X92944762Y-116833333D01*
X92849524Y-116880952D01*
X92801905Y-116928571D01*
X92754286Y-117023810D01*
X103488095Y-126452381D02*
X103488095Y-127261905D01*
X103535714Y-127357143D01*
X103583333Y-127404762D01*
X103678571Y-127452381D01*
X103869048Y-127452381D01*
X103964286Y-127404762D01*
X104011905Y-127357143D01*
X104059524Y-127261905D01*
X104059524Y-126452381D01*
X105059524Y-127452381D02*
X104488095Y-127452381D01*
X104773809Y-127452381D02*
X104773809Y-126452381D01*
X104678571Y-126595238D01*
X104583333Y-126690476D01*
X104488095Y-126738095D01*
X107416667Y-114678571D02*
X107083333Y-114678571D01*
X107083333Y-115202381D02*
X107083333Y-114202381D01*
X107559524Y-114202381D01*
X108464286Y-115202381D02*
X107892857Y-115202381D01*
X108178571Y-115202381D02*
X108178571Y-114202381D01*
X108083333Y-114345238D01*
X107988095Y-114440476D01*
X107892857Y-114488095D01*
X94341905Y-128867381D02*
X94341905Y-127867381D01*
X94722858Y-127867381D01*
X94818096Y-127915000D01*
X94865715Y-127962619D01*
X94913334Y-128057857D01*
X94913334Y-128200714D01*
X94865715Y-128295952D01*
X94818096Y-128343571D01*
X94722858Y-128391190D01*
X94341905Y-128391190D01*
X95770477Y-128200714D02*
X95770477Y-128867381D01*
X95532381Y-127819762D02*
X95294286Y-128534048D01*
X95913334Y-128534048D01*
M02*
