G04 #@! TF.FileFunction,Copper,L1,Top,Signal*
%FSLAX46Y46*%
G04 Gerber Fmt 4.6, Leading zero omitted, Abs format (unit mm)*
G04 Created by KiCad (PCBNEW 4.0.5) date Sunday, 09. April 2017 'u43' 16:43:39*
%MOMM*%
%LPD*%
G01*
G04 APERTURE LIST*
%ADD10C,0.100000*%
%ADD11C,0.150000*%
%ADD12C,5.600000*%
%ADD13R,1.000000X1.600000*%
%ADD14R,1.250000X1.000000*%
%ADD15R,1.200000X1.200000*%
%ADD16C,1.450000*%
%ADD17R,1.350000X0.400000*%
%ADD18R,1.900000X1.500000*%
%ADD19O,1.900000X1.200000*%
%ADD20R,1.700000X1.700000*%
%ADD21O,1.700000X1.700000*%
%ADD22R,0.700000X1.300000*%
%ADD23R,0.250000X0.700000*%
%ADD24R,1.200000X0.640000*%
%ADD25R,1.700000X0.900000*%
%ADD26R,1.750000X1.750000*%
%ADD27C,1.750000*%
%ADD28C,0.600000*%
%ADD29C,0.250000*%
%ADD30C,1.000000*%
%ADD31C,0.254000*%
G04 APERTURE END LIST*
D10*
D11*
X113500000Y-135000000D02*
G75*
G03X115000000Y-133500000I0J1500000D01*
G01*
X90000000Y-133500000D02*
G75*
G03X91500000Y-135000000I1500000J0D01*
G01*
X115000000Y-111500000D02*
G75*
G03X113500000Y-110000000I-1500000J0D01*
G01*
X91500000Y-110000000D02*
G75*
G03X90000000Y-111500000I0J-1500000D01*
G01*
X113500000Y-135000000D02*
X91500000Y-135000000D01*
X115000000Y-111500000D02*
X115000000Y-133500000D01*
X91500000Y-110000000D02*
X113500000Y-110000000D01*
X90000000Y-133500000D02*
X90000000Y-111500000D01*
D12*
X112000000Y-132000000D03*
D13*
X106000000Y-122700000D03*
X109000000Y-122700000D03*
D14*
X100795000Y-121160000D03*
X100795000Y-119160000D03*
D13*
X106000000Y-126510000D03*
X109000000Y-126510000D03*
D15*
X93640000Y-115715000D03*
X91440000Y-115715000D03*
D16*
X110550000Y-113580000D03*
X110550000Y-118580000D03*
D17*
X110550000Y-117380000D03*
X110550000Y-116730000D03*
X110550000Y-116080000D03*
X110550000Y-115430000D03*
X110550000Y-114780000D03*
D18*
X113250000Y-117080000D03*
X113250000Y-115080000D03*
D19*
X113250000Y-112580000D03*
X113250000Y-119580000D03*
D18*
X113250000Y-119130000D03*
X113250000Y-113030000D03*
D20*
X97620000Y-112540000D03*
D21*
X100160000Y-112540000D03*
X102700000Y-112540000D03*
X105240000Y-112540000D03*
X107780000Y-112540000D03*
D20*
X97620000Y-132860000D03*
D21*
X100160000Y-132860000D03*
X102700000Y-132860000D03*
X105240000Y-132860000D03*
D22*
X104920000Y-115715000D03*
X103020000Y-115715000D03*
X94760000Y-112540000D03*
X92860000Y-112540000D03*
X97300000Y-115715000D03*
X95400000Y-115715000D03*
X99050000Y-129500000D03*
X100950000Y-129500000D03*
X97300000Y-118255000D03*
X95400000Y-118255000D03*
X93490000Y-118255000D03*
X91590000Y-118255000D03*
D23*
X104000000Y-123553000D03*
X103500000Y-123553000D03*
X103000000Y-123553000D03*
X102500000Y-123553000D03*
X102000000Y-123553000D03*
X102000000Y-125403000D03*
X102500000Y-125403000D03*
X103000000Y-125403000D03*
X103500000Y-125403000D03*
X104000000Y-125403000D03*
D24*
X102400000Y-124478000D03*
X103600000Y-124478000D03*
D12*
X93000000Y-132000000D03*
D25*
X107780000Y-116170000D03*
X107780000Y-119070000D03*
D26*
X93810000Y-125200000D03*
D27*
X93810000Y-122700000D03*
D28*
X91000000Y-121000000D03*
X91000000Y-125000000D03*
X91000000Y-129000000D03*
X109050000Y-125240000D03*
X109050000Y-123970000D03*
X101500000Y-124500000D03*
X104500000Y-124500000D03*
X102407000Y-124478000D03*
X103607000Y-124478000D03*
X104500000Y-117500000D03*
X100930000Y-122065000D03*
X97300000Y-116985000D03*
X104478052Y-114571948D03*
X111000000Y-127000000D03*
X102179286Y-127914612D03*
X111000000Y-124000000D03*
X105855919Y-120179081D03*
X100000000Y-129000000D03*
X97942200Y-129472929D03*
X103007000Y-128288748D03*
X112000000Y-127000000D03*
X112000000Y-124000000D03*
X106775380Y-120155390D03*
X94445000Y-118255000D03*
X100205002Y-122700000D03*
D29*
X91000000Y-119000000D02*
X91000000Y-117000000D01*
X91000000Y-123000000D02*
X91000000Y-121000000D01*
X91000000Y-125000000D02*
X91000000Y-123000000D01*
X91000000Y-127000000D02*
X91000000Y-125000000D01*
X91000000Y-129000000D02*
X91000000Y-127000000D01*
D30*
X104674999Y-121199999D02*
X105750000Y-121199999D01*
X105750000Y-121199999D02*
X107145000Y-121199999D01*
X106000000Y-122700000D02*
X106000000Y-121449999D01*
X106000000Y-121449999D02*
X105750000Y-121199999D01*
D29*
X104007000Y-123553000D02*
X105147000Y-123553000D01*
X105147000Y-123553000D02*
X106000000Y-122700000D01*
D30*
X107780000Y-120564999D02*
X107145000Y-121199999D01*
X107780000Y-119070000D02*
X107780000Y-120564999D01*
X102065000Y-116985000D02*
X101430000Y-116350000D01*
X101430000Y-116350000D02*
X97620000Y-112540000D01*
D29*
X103020000Y-115715000D02*
X102065000Y-115715000D01*
X102065000Y-115715000D02*
X101430000Y-116350000D01*
D30*
X103525010Y-118445010D02*
X102700000Y-117620000D01*
X102700000Y-117620000D02*
X102065000Y-116985000D01*
X107145000Y-121199999D02*
X106314999Y-121199999D01*
X104375000Y-120900000D02*
X104674999Y-121199999D01*
X104375000Y-120900000D02*
X103525010Y-120050010D01*
X103525010Y-120050010D02*
X103525010Y-118445010D01*
D29*
X109000000Y-126510000D02*
X109000000Y-125290000D01*
X109000000Y-125290000D02*
X109050000Y-125240000D01*
X109000000Y-122700000D02*
X109000000Y-123920000D01*
X109000000Y-123920000D02*
X109050000Y-123970000D01*
X91590000Y-118255000D02*
X91590000Y-119410000D01*
X91590000Y-119410000D02*
X91000000Y-120000000D01*
X102407000Y-124478000D02*
X101522000Y-124478000D01*
X101522000Y-124478000D02*
X101500000Y-124500000D01*
X103607000Y-124478000D02*
X104478000Y-124478000D01*
X104478000Y-124478000D02*
X104500000Y-124500000D01*
X103007000Y-123553000D02*
X103007000Y-124153000D01*
X103007000Y-124153000D02*
X102682000Y-124478000D01*
X102682000Y-124478000D02*
X102407000Y-124478000D01*
X103007000Y-124153000D02*
X103332000Y-124478000D01*
X103332000Y-124478000D02*
X103607000Y-124478000D01*
X103507000Y-125403000D02*
X103507000Y-124578000D01*
X103507000Y-124578000D02*
X103607000Y-124478000D01*
X103007000Y-121372000D02*
X100795000Y-119160000D01*
X103007000Y-123553000D02*
X103007000Y-121372000D01*
X101920000Y-120160000D02*
X100920000Y-119160000D01*
X100920000Y-119160000D02*
X100795000Y-119160000D01*
X102880000Y-124605000D02*
X103007000Y-124478000D01*
X102507000Y-123553000D02*
X102507000Y-122747000D01*
X102507000Y-122747000D02*
X100920000Y-121160000D01*
X100920000Y-121160000D02*
X100795000Y-121160000D01*
X97300000Y-116985000D02*
X97300000Y-118255000D01*
X97300000Y-115715000D02*
X97300000Y-116985000D01*
X97300000Y-118555000D02*
X97300000Y-118255000D01*
X100930000Y-121295000D02*
X100795000Y-121160000D01*
D30*
X101855000Y-130955000D02*
X98165000Y-130955000D01*
X98165000Y-130955000D02*
X97620000Y-131500000D01*
X97620000Y-131500000D02*
X97620000Y-132860000D01*
X102500000Y-130310000D02*
X103310000Y-129500000D01*
X103310000Y-129500000D02*
X106000000Y-126810000D01*
X101855000Y-130955000D02*
X103310000Y-129500000D01*
X102000000Y-130810000D02*
X102500000Y-130310000D01*
X102500000Y-130310000D02*
X101855000Y-130955000D01*
X106000000Y-126810000D02*
X106000000Y-126510000D01*
D29*
X104007000Y-125403000D02*
X105193000Y-125403000D01*
X105193000Y-125403000D02*
X106000000Y-126210000D01*
X106000000Y-126210000D02*
X106000000Y-126510000D01*
X95400000Y-115715000D02*
X93640000Y-115715000D01*
D30*
X107780000Y-116870000D02*
X107780000Y-116170000D01*
D29*
X110550000Y-117380000D02*
X109050000Y-117380000D01*
D30*
X109050000Y-117380000D02*
X108290000Y-117380000D01*
X108290000Y-117380000D02*
X107780000Y-116870000D01*
D29*
X104920000Y-115715000D02*
X104920000Y-115013896D01*
X104920000Y-115013896D02*
X104478052Y-114571948D01*
X111000000Y-127000000D02*
X111000000Y-124000000D01*
X102507000Y-127586898D02*
X102479285Y-127614613D01*
X102507000Y-125403000D02*
X102507000Y-127586898D01*
X102479285Y-127614613D02*
X102179286Y-127914612D01*
X105595001Y-114804999D02*
X105595001Y-119500000D01*
X105855919Y-120179081D02*
X105555920Y-119879082D01*
X105555920Y-119879082D02*
X105555920Y-119539081D01*
X105555920Y-119539081D02*
X105595001Y-119500000D01*
X100160000Y-112540000D02*
X101335001Y-113715001D01*
X101335001Y-113715001D02*
X104505003Y-113715001D01*
X104505003Y-113715001D02*
X105595001Y-114804999D01*
X102000000Y-126500000D02*
X100000000Y-128500000D01*
X100000000Y-128500000D02*
X100000000Y-129000000D01*
X102000000Y-125628000D02*
X102000000Y-126500000D01*
X102000000Y-125403000D02*
X102000000Y-125628000D01*
X99050000Y-129500000D02*
X97969271Y-129500000D01*
X97969271Y-129500000D02*
X97942200Y-129472929D01*
X103507000Y-122953000D02*
X103507000Y-123553000D01*
X103507000Y-121235590D02*
X103507000Y-122953000D01*
X102700000Y-120428590D02*
X103507000Y-121235590D01*
X102700000Y-118890000D02*
X102700000Y-120428590D01*
X97138000Y-114318000D02*
X98128000Y-114318000D01*
X98128000Y-114318000D02*
X102700000Y-118890000D01*
X95360000Y-112540000D02*
X97138000Y-114318000D01*
X94760000Y-112540000D02*
X95360000Y-112540000D01*
X95334000Y-111016000D02*
X94760000Y-111590000D01*
X94760000Y-111590000D02*
X94760000Y-112540000D01*
X96985000Y-111016000D02*
X95334000Y-111016000D01*
X101176000Y-111016000D02*
X96985000Y-111016000D01*
X102700000Y-112540000D02*
X101176000Y-111016000D01*
X103007000Y-125403000D02*
X103007000Y-127000000D01*
X103007000Y-127000000D02*
X103007000Y-128288748D01*
X100950000Y-129500000D02*
X101795748Y-129500000D01*
X101795748Y-129500000D02*
X102756126Y-128539622D01*
X112000000Y-127000000D02*
X112000000Y-124000000D01*
X103007000Y-128288748D02*
X102756126Y-128539622D01*
X106089999Y-119470009D02*
X106475381Y-119855391D01*
X106089999Y-113389999D02*
X106089999Y-119470009D01*
X105240000Y-112540000D02*
X106089999Y-113389999D01*
X106475381Y-119855391D02*
X106775380Y-120155390D01*
X102007000Y-123553000D02*
X102007000Y-122953000D01*
X102007000Y-122953000D02*
X101754000Y-122700000D01*
X101754000Y-122700000D02*
X100629266Y-122700000D01*
X100629266Y-122700000D02*
X100205002Y-122700000D01*
X95400000Y-118255000D02*
X94445000Y-118255000D01*
X94445000Y-118255000D02*
X93490000Y-118255000D01*
D31*
G36*
X113896103Y-110543723D02*
X114231902Y-110768098D01*
X114456277Y-111103897D01*
X114544000Y-111544913D01*
X114544000Y-114160997D01*
X114478454Y-114059135D01*
X114351134Y-113972141D01*
X114200000Y-113941536D01*
X112300000Y-113941536D01*
X112158810Y-113968103D01*
X112029135Y-114051546D01*
X111942141Y-114178866D01*
X111911536Y-114330000D01*
X111911536Y-115830000D01*
X111938103Y-115971190D01*
X112008883Y-116081186D01*
X111942141Y-116178866D01*
X111911536Y-116330000D01*
X111911536Y-117830000D01*
X111938103Y-117971190D01*
X112021546Y-118100865D01*
X112148866Y-118187859D01*
X112300000Y-118218464D01*
X114200000Y-118218464D01*
X114341190Y-118191897D01*
X114470865Y-118108454D01*
X114544000Y-118001417D01*
X114544000Y-130045900D01*
X113804244Y-129304852D01*
X112635516Y-128819554D01*
X111370036Y-128818450D01*
X110200463Y-129301707D01*
X109304852Y-130195756D01*
X108819554Y-131364484D01*
X108818450Y-132629964D01*
X109301707Y-133799537D01*
X110044872Y-134544000D01*
X94954100Y-134544000D01*
X95695148Y-133804244D01*
X96180446Y-132635516D01*
X96180991Y-132010000D01*
X96381536Y-132010000D01*
X96381536Y-133710000D01*
X96408103Y-133851190D01*
X96491546Y-133980865D01*
X96618866Y-134067859D01*
X96770000Y-134098464D01*
X98470000Y-134098464D01*
X98611190Y-134071897D01*
X98740865Y-133988454D01*
X98827859Y-133861134D01*
X98858464Y-133710000D01*
X98858464Y-132010000D01*
X98831897Y-131868810D01*
X98810784Y-131836000D01*
X99483265Y-131836000D01*
X99289552Y-131965435D01*
X99022704Y-132364800D01*
X98929000Y-132835883D01*
X98929000Y-132884117D01*
X99022704Y-133355200D01*
X99289552Y-133754565D01*
X99688917Y-134021413D01*
X100160000Y-134115117D01*
X100631083Y-134021413D01*
X101030448Y-133754565D01*
X101297296Y-133355200D01*
X101391000Y-132884117D01*
X101391000Y-132835883D01*
X101297296Y-132364800D01*
X101030448Y-131965435D01*
X100836735Y-131836000D01*
X101855000Y-131836000D01*
X102094588Y-131788343D01*
X101829552Y-131965435D01*
X101562704Y-132364800D01*
X101469000Y-132835883D01*
X101469000Y-132884117D01*
X101562704Y-133355200D01*
X101829552Y-133754565D01*
X102228917Y-134021413D01*
X102700000Y-134115117D01*
X103171083Y-134021413D01*
X103570448Y-133754565D01*
X103837296Y-133355200D01*
X103931000Y-132884117D01*
X103931000Y-132835883D01*
X103837296Y-132364800D01*
X103570448Y-131965435D01*
X103171083Y-131698587D01*
X102700000Y-131604883D01*
X102326473Y-131679182D01*
X102477961Y-131577961D01*
X106174922Y-127881000D01*
X106750000Y-127881000D01*
X106888477Y-127854944D01*
X107015660Y-127773104D01*
X107100983Y-127648230D01*
X107131000Y-127500000D01*
X107131000Y-125250000D01*
X107104944Y-125111523D01*
X107023104Y-124984340D01*
X106898230Y-124899017D01*
X106750000Y-124869000D01*
X104459350Y-124869000D01*
X104403454Y-124782135D01*
X104276134Y-124695141D01*
X104125000Y-124664536D01*
X103875000Y-124664536D01*
X103733810Y-124691103D01*
X103604135Y-124774546D01*
X103517141Y-124901866D01*
X103500494Y-124984072D01*
X103486897Y-124911810D01*
X103403454Y-124782135D01*
X103276134Y-124695141D01*
X103125000Y-124664536D01*
X102875000Y-124664536D01*
X102745412Y-124688920D01*
X102625000Y-124664536D01*
X102375000Y-124664536D01*
X102245412Y-124688920D01*
X102125000Y-124664536D01*
X101875000Y-124664536D01*
X101733810Y-124691103D01*
X101604135Y-124774546D01*
X101517141Y-124901866D01*
X101486536Y-125053000D01*
X101486536Y-125753000D01*
X101494000Y-125792667D01*
X101494000Y-126290408D01*
X99642204Y-128142204D01*
X99532517Y-128306362D01*
X99497715Y-128481324D01*
X99400000Y-128461536D01*
X98700000Y-128461536D01*
X98558810Y-128488103D01*
X98429135Y-128571546D01*
X98342141Y-128698866D01*
X98311536Y-128850000D01*
X98311536Y-128888915D01*
X98078254Y-128792047D01*
X97807335Y-128791811D01*
X97556948Y-128895268D01*
X97365213Y-129086670D01*
X97261318Y-129336875D01*
X97261082Y-129607794D01*
X97364539Y-129858181D01*
X97555941Y-130049916D01*
X97806146Y-130153811D01*
X97808771Y-130153813D01*
X97542039Y-130332039D01*
X96997039Y-130877039D01*
X96806062Y-131162856D01*
X96739000Y-131500000D01*
X96739000Y-131627369D01*
X96628810Y-131648103D01*
X96499135Y-131731546D01*
X96412141Y-131858866D01*
X96381536Y-132010000D01*
X96180991Y-132010000D01*
X96181550Y-131370036D01*
X95698293Y-130200463D01*
X94804244Y-129304852D01*
X93635516Y-128819554D01*
X92370036Y-128818450D01*
X91200463Y-129301707D01*
X90456000Y-130044872D01*
X90456000Y-124325000D01*
X92546536Y-124325000D01*
X92546536Y-126075000D01*
X92573103Y-126216190D01*
X92656546Y-126345865D01*
X92783866Y-126432859D01*
X92935000Y-126463464D01*
X94685000Y-126463464D01*
X94826190Y-126436897D01*
X94955865Y-126353454D01*
X95042859Y-126226134D01*
X95073464Y-126075000D01*
X95073464Y-124325000D01*
X95046897Y-124183810D01*
X94963454Y-124054135D01*
X94836134Y-123967141D01*
X94685000Y-123936536D01*
X92935000Y-123936536D01*
X92793810Y-123963103D01*
X92664135Y-124046546D01*
X92577141Y-124173866D01*
X92546536Y-124325000D01*
X90456000Y-124325000D01*
X90456000Y-117605000D01*
X92751536Y-117605000D01*
X92751536Y-118905000D01*
X92778103Y-119046190D01*
X92861546Y-119175865D01*
X92988866Y-119262859D01*
X93140000Y-119293464D01*
X93840000Y-119293464D01*
X93981190Y-119266897D01*
X94110865Y-119183454D01*
X94197859Y-119056134D01*
X94228464Y-118905000D01*
X94228464Y-118902463D01*
X94308946Y-118935882D01*
X94579865Y-118936118D01*
X94661536Y-118902372D01*
X94661536Y-118905000D01*
X94688103Y-119046190D01*
X94771546Y-119175865D01*
X94898866Y-119262859D01*
X95050000Y-119293464D01*
X95750000Y-119293464D01*
X95891190Y-119266897D01*
X96020865Y-119183454D01*
X96107859Y-119056134D01*
X96138464Y-118905000D01*
X96138464Y-117605000D01*
X96111897Y-117463810D01*
X96028454Y-117334135D01*
X95901134Y-117247141D01*
X95750000Y-117216536D01*
X95050000Y-117216536D01*
X94908810Y-117243103D01*
X94779135Y-117326546D01*
X94692141Y-117453866D01*
X94661536Y-117605000D01*
X94661536Y-117607537D01*
X94581054Y-117574118D01*
X94310135Y-117573882D01*
X94228464Y-117607628D01*
X94228464Y-117605000D01*
X94201897Y-117463810D01*
X94118454Y-117334135D01*
X93991134Y-117247141D01*
X93840000Y-117216536D01*
X93140000Y-117216536D01*
X92998810Y-117243103D01*
X92869135Y-117326546D01*
X92782141Y-117453866D01*
X92751536Y-117605000D01*
X90456000Y-117605000D01*
X90456000Y-115115000D01*
X92651536Y-115115000D01*
X92651536Y-116315000D01*
X92678103Y-116456190D01*
X92761546Y-116585865D01*
X92888866Y-116672859D01*
X93040000Y-116703464D01*
X94240000Y-116703464D01*
X94381190Y-116676897D01*
X94510865Y-116593454D01*
X94597859Y-116466134D01*
X94628464Y-116315000D01*
X94628464Y-116221000D01*
X94661536Y-116221000D01*
X94661536Y-116365000D01*
X94688103Y-116506190D01*
X94771546Y-116635865D01*
X94898866Y-116722859D01*
X95050000Y-116753464D01*
X95750000Y-116753464D01*
X95891190Y-116726897D01*
X96020865Y-116643454D01*
X96107859Y-116516134D01*
X96138464Y-116365000D01*
X96138464Y-115065000D01*
X96111897Y-114923810D01*
X96028454Y-114794135D01*
X95901134Y-114707141D01*
X95750000Y-114676536D01*
X95050000Y-114676536D01*
X94908810Y-114703103D01*
X94779135Y-114786546D01*
X94692141Y-114913866D01*
X94661536Y-115065000D01*
X94661536Y-115209000D01*
X94628464Y-115209000D01*
X94628464Y-115115000D01*
X94601897Y-114973810D01*
X94518454Y-114844135D01*
X94391134Y-114757141D01*
X94240000Y-114726536D01*
X93040000Y-114726536D01*
X92898810Y-114753103D01*
X92769135Y-114836546D01*
X92682141Y-114963866D01*
X92651536Y-115115000D01*
X90456000Y-115115000D01*
X90456000Y-111890000D01*
X94021536Y-111890000D01*
X94021536Y-113190000D01*
X94048103Y-113331190D01*
X94131546Y-113460865D01*
X94258866Y-113547859D01*
X94410000Y-113578464D01*
X95110000Y-113578464D01*
X95251190Y-113551897D01*
X95380865Y-113468454D01*
X95458800Y-113354392D01*
X96780204Y-114675796D01*
X96818377Y-114701303D01*
X96808810Y-114703103D01*
X96679135Y-114786546D01*
X96592141Y-114913866D01*
X96561536Y-115065000D01*
X96561536Y-116365000D01*
X96588103Y-116506190D01*
X96671546Y-116635865D01*
X96699630Y-116655054D01*
X96619118Y-116848946D01*
X96618882Y-117119865D01*
X96698999Y-117313764D01*
X96679135Y-117326546D01*
X96592141Y-117453866D01*
X96561536Y-117605000D01*
X96561536Y-118905000D01*
X96588103Y-119046190D01*
X96671546Y-119175865D01*
X96798866Y-119262859D01*
X96950000Y-119293464D01*
X97650000Y-119293464D01*
X97791190Y-119266897D01*
X97920865Y-119183454D01*
X98007859Y-119056134D01*
X98038464Y-118905000D01*
X98038464Y-117605000D01*
X98011897Y-117463810D01*
X97928454Y-117334135D01*
X97900370Y-117314946D01*
X97980882Y-117121054D01*
X97981118Y-116850135D01*
X97901001Y-116656236D01*
X97920865Y-116643454D01*
X98007859Y-116516134D01*
X98038464Y-116365000D01*
X98038464Y-115065000D01*
X98011897Y-114923810D01*
X98000488Y-114906080D01*
X102194000Y-119099592D01*
X102194000Y-120428590D01*
X102232517Y-120622228D01*
X102342204Y-120786386D01*
X103001000Y-121445182D01*
X103001000Y-122686672D01*
X102974483Y-122553362D01*
X102864796Y-122389204D01*
X101808464Y-121332872D01*
X101808464Y-120660000D01*
X101781897Y-120518810D01*
X101698454Y-120389135D01*
X101571134Y-120302141D01*
X101420000Y-120271536D01*
X100170000Y-120271536D01*
X100028810Y-120298103D01*
X99899135Y-120381546D01*
X99812141Y-120508866D01*
X99781536Y-120660000D01*
X99781536Y-121660000D01*
X99808103Y-121801190D01*
X99891546Y-121930865D01*
X100018866Y-122017859D01*
X100054935Y-122025163D01*
X99819750Y-122122339D01*
X99628015Y-122313741D01*
X99524120Y-122563946D01*
X99523884Y-122834865D01*
X99627341Y-123085252D01*
X99818743Y-123276987D01*
X100068948Y-123380882D01*
X100339867Y-123381118D01*
X100590254Y-123277661D01*
X100662040Y-123206000D01*
X101486536Y-123206000D01*
X101486536Y-123903000D01*
X101513103Y-124044190D01*
X101596546Y-124173865D01*
X101723866Y-124260859D01*
X101875000Y-124291464D01*
X102125000Y-124291464D01*
X102254588Y-124267080D01*
X102375000Y-124291464D01*
X102625000Y-124291464D01*
X102766190Y-124264897D01*
X102895865Y-124181454D01*
X102982859Y-124054134D01*
X102999506Y-123971928D01*
X103013103Y-124044190D01*
X103096546Y-124173865D01*
X103223866Y-124260859D01*
X103375000Y-124291464D01*
X103625000Y-124291464D01*
X103754588Y-124267080D01*
X103875000Y-124291464D01*
X104125000Y-124291464D01*
X104266190Y-124264897D01*
X104395865Y-124181454D01*
X104427698Y-124134865D01*
X110318882Y-124134865D01*
X110422339Y-124385252D01*
X110494000Y-124457038D01*
X110494000Y-126542877D01*
X110423013Y-126613741D01*
X110319118Y-126863946D01*
X110318882Y-127134865D01*
X110422339Y-127385252D01*
X110613741Y-127576987D01*
X110863946Y-127680882D01*
X111134865Y-127681118D01*
X111385252Y-127577661D01*
X111500032Y-127463080D01*
X111613741Y-127576987D01*
X111863946Y-127680882D01*
X112134865Y-127681118D01*
X112385252Y-127577661D01*
X112576987Y-127386259D01*
X112680882Y-127136054D01*
X112681118Y-126865135D01*
X112577661Y-126614748D01*
X112506000Y-126542962D01*
X112506000Y-124457123D01*
X112576987Y-124386259D01*
X112680882Y-124136054D01*
X112681118Y-123865135D01*
X112577661Y-123614748D01*
X112386259Y-123423013D01*
X112136054Y-123319118D01*
X111865135Y-123318882D01*
X111614748Y-123422339D01*
X111499968Y-123536920D01*
X111386259Y-123423013D01*
X111136054Y-123319118D01*
X110865135Y-123318882D01*
X110614748Y-123422339D01*
X110423013Y-123613741D01*
X110319118Y-123863946D01*
X110318882Y-124134865D01*
X104427698Y-124134865D01*
X104430339Y-124131000D01*
X106750000Y-124131000D01*
X106888477Y-124104944D01*
X107015660Y-124023104D01*
X107100983Y-123898230D01*
X107131000Y-123750000D01*
X107131000Y-122080999D01*
X107145000Y-122080999D01*
X107482144Y-122013937D01*
X107767961Y-121822960D01*
X108402961Y-121187960D01*
X108593938Y-120902143D01*
X108661000Y-120564999D01*
X108661000Y-119902631D01*
X108771190Y-119881897D01*
X108900865Y-119798454D01*
X108987859Y-119671134D01*
X109018464Y-119520000D01*
X109018464Y-118620000D01*
X108991897Y-118478810D01*
X108908454Y-118349135D01*
X108781134Y-118262141D01*
X108775499Y-118261000D01*
X109050000Y-118261000D01*
X109387144Y-118193938D01*
X109672961Y-118002961D01*
X109718782Y-117934385D01*
X109723866Y-117937859D01*
X109875000Y-117968464D01*
X111225000Y-117968464D01*
X111366190Y-117941897D01*
X111495865Y-117858454D01*
X111582859Y-117731134D01*
X111613464Y-117580000D01*
X111613464Y-117180000D01*
X111589080Y-117050412D01*
X111613464Y-116930000D01*
X111613464Y-116530000D01*
X111589080Y-116400412D01*
X111613464Y-116280000D01*
X111613464Y-115880000D01*
X111589080Y-115750412D01*
X111613464Y-115630000D01*
X111613464Y-115230000D01*
X111586897Y-115088810D01*
X111503454Y-114959135D01*
X111376134Y-114872141D01*
X111225000Y-114841536D01*
X109875000Y-114841536D01*
X109733810Y-114868103D01*
X109604135Y-114951546D01*
X109517141Y-115078866D01*
X109486536Y-115230000D01*
X109486536Y-115630000D01*
X109510920Y-115759588D01*
X109486536Y-115880000D01*
X109486536Y-116280000D01*
X109510920Y-116409588D01*
X109486536Y-116530000D01*
X109486536Y-116632474D01*
X109387144Y-116566062D01*
X109050000Y-116499000D01*
X109018464Y-116499000D01*
X109018464Y-115720000D01*
X108991897Y-115578810D01*
X108908454Y-115449135D01*
X108781134Y-115362141D01*
X108630000Y-115331536D01*
X107993843Y-115331536D01*
X107780000Y-115289000D01*
X107566157Y-115331536D01*
X106930000Y-115331536D01*
X106788810Y-115358103D01*
X106659135Y-115441546D01*
X106595999Y-115533949D01*
X106595999Y-113389999D01*
X106557482Y-113196361D01*
X106447795Y-113032203D01*
X106389490Y-112973898D01*
X106471000Y-112564117D01*
X106471000Y-112515883D01*
X106377296Y-112044800D01*
X106110448Y-111645435D01*
X105711083Y-111378587D01*
X105240000Y-111284883D01*
X104768917Y-111378587D01*
X104369552Y-111645435D01*
X104102704Y-112044800D01*
X104009000Y-112515883D01*
X104009000Y-112564117D01*
X104102704Y-113035200D01*
X104218834Y-113209001D01*
X103721166Y-113209001D01*
X103837296Y-113035200D01*
X103931000Y-112564117D01*
X103931000Y-112515883D01*
X103837296Y-112044800D01*
X103570448Y-111645435D01*
X103171083Y-111378587D01*
X102700000Y-111284883D01*
X102249988Y-111374396D01*
X101533796Y-110658204D01*
X101369638Y-110548517D01*
X101176000Y-110510000D01*
X95334000Y-110510000D01*
X95140362Y-110548517D01*
X94976204Y-110658204D01*
X94402204Y-111232204D01*
X94292517Y-111396362D01*
X94265945Y-111529946D01*
X94139135Y-111611546D01*
X94052141Y-111738866D01*
X94021536Y-111890000D01*
X90456000Y-111890000D01*
X90456000Y-111544912D01*
X90543723Y-111103897D01*
X90768098Y-110768098D01*
X91103897Y-110543723D01*
X91544913Y-110456000D01*
X113455088Y-110456000D01*
X113896103Y-110543723D01*
X113896103Y-110543723D01*
G37*
X113896103Y-110543723D02*
X114231902Y-110768098D01*
X114456277Y-111103897D01*
X114544000Y-111544913D01*
X114544000Y-114160997D01*
X114478454Y-114059135D01*
X114351134Y-113972141D01*
X114200000Y-113941536D01*
X112300000Y-113941536D01*
X112158810Y-113968103D01*
X112029135Y-114051546D01*
X111942141Y-114178866D01*
X111911536Y-114330000D01*
X111911536Y-115830000D01*
X111938103Y-115971190D01*
X112008883Y-116081186D01*
X111942141Y-116178866D01*
X111911536Y-116330000D01*
X111911536Y-117830000D01*
X111938103Y-117971190D01*
X112021546Y-118100865D01*
X112148866Y-118187859D01*
X112300000Y-118218464D01*
X114200000Y-118218464D01*
X114341190Y-118191897D01*
X114470865Y-118108454D01*
X114544000Y-118001417D01*
X114544000Y-130045900D01*
X113804244Y-129304852D01*
X112635516Y-128819554D01*
X111370036Y-128818450D01*
X110200463Y-129301707D01*
X109304852Y-130195756D01*
X108819554Y-131364484D01*
X108818450Y-132629964D01*
X109301707Y-133799537D01*
X110044872Y-134544000D01*
X94954100Y-134544000D01*
X95695148Y-133804244D01*
X96180446Y-132635516D01*
X96180991Y-132010000D01*
X96381536Y-132010000D01*
X96381536Y-133710000D01*
X96408103Y-133851190D01*
X96491546Y-133980865D01*
X96618866Y-134067859D01*
X96770000Y-134098464D01*
X98470000Y-134098464D01*
X98611190Y-134071897D01*
X98740865Y-133988454D01*
X98827859Y-133861134D01*
X98858464Y-133710000D01*
X98858464Y-132010000D01*
X98831897Y-131868810D01*
X98810784Y-131836000D01*
X99483265Y-131836000D01*
X99289552Y-131965435D01*
X99022704Y-132364800D01*
X98929000Y-132835883D01*
X98929000Y-132884117D01*
X99022704Y-133355200D01*
X99289552Y-133754565D01*
X99688917Y-134021413D01*
X100160000Y-134115117D01*
X100631083Y-134021413D01*
X101030448Y-133754565D01*
X101297296Y-133355200D01*
X101391000Y-132884117D01*
X101391000Y-132835883D01*
X101297296Y-132364800D01*
X101030448Y-131965435D01*
X100836735Y-131836000D01*
X101855000Y-131836000D01*
X102094588Y-131788343D01*
X101829552Y-131965435D01*
X101562704Y-132364800D01*
X101469000Y-132835883D01*
X101469000Y-132884117D01*
X101562704Y-133355200D01*
X101829552Y-133754565D01*
X102228917Y-134021413D01*
X102700000Y-134115117D01*
X103171083Y-134021413D01*
X103570448Y-133754565D01*
X103837296Y-133355200D01*
X103931000Y-132884117D01*
X103931000Y-132835883D01*
X103837296Y-132364800D01*
X103570448Y-131965435D01*
X103171083Y-131698587D01*
X102700000Y-131604883D01*
X102326473Y-131679182D01*
X102477961Y-131577961D01*
X106174922Y-127881000D01*
X106750000Y-127881000D01*
X106888477Y-127854944D01*
X107015660Y-127773104D01*
X107100983Y-127648230D01*
X107131000Y-127500000D01*
X107131000Y-125250000D01*
X107104944Y-125111523D01*
X107023104Y-124984340D01*
X106898230Y-124899017D01*
X106750000Y-124869000D01*
X104459350Y-124869000D01*
X104403454Y-124782135D01*
X104276134Y-124695141D01*
X104125000Y-124664536D01*
X103875000Y-124664536D01*
X103733810Y-124691103D01*
X103604135Y-124774546D01*
X103517141Y-124901866D01*
X103500494Y-124984072D01*
X103486897Y-124911810D01*
X103403454Y-124782135D01*
X103276134Y-124695141D01*
X103125000Y-124664536D01*
X102875000Y-124664536D01*
X102745412Y-124688920D01*
X102625000Y-124664536D01*
X102375000Y-124664536D01*
X102245412Y-124688920D01*
X102125000Y-124664536D01*
X101875000Y-124664536D01*
X101733810Y-124691103D01*
X101604135Y-124774546D01*
X101517141Y-124901866D01*
X101486536Y-125053000D01*
X101486536Y-125753000D01*
X101494000Y-125792667D01*
X101494000Y-126290408D01*
X99642204Y-128142204D01*
X99532517Y-128306362D01*
X99497715Y-128481324D01*
X99400000Y-128461536D01*
X98700000Y-128461536D01*
X98558810Y-128488103D01*
X98429135Y-128571546D01*
X98342141Y-128698866D01*
X98311536Y-128850000D01*
X98311536Y-128888915D01*
X98078254Y-128792047D01*
X97807335Y-128791811D01*
X97556948Y-128895268D01*
X97365213Y-129086670D01*
X97261318Y-129336875D01*
X97261082Y-129607794D01*
X97364539Y-129858181D01*
X97555941Y-130049916D01*
X97806146Y-130153811D01*
X97808771Y-130153813D01*
X97542039Y-130332039D01*
X96997039Y-130877039D01*
X96806062Y-131162856D01*
X96739000Y-131500000D01*
X96739000Y-131627369D01*
X96628810Y-131648103D01*
X96499135Y-131731546D01*
X96412141Y-131858866D01*
X96381536Y-132010000D01*
X96180991Y-132010000D01*
X96181550Y-131370036D01*
X95698293Y-130200463D01*
X94804244Y-129304852D01*
X93635516Y-128819554D01*
X92370036Y-128818450D01*
X91200463Y-129301707D01*
X90456000Y-130044872D01*
X90456000Y-124325000D01*
X92546536Y-124325000D01*
X92546536Y-126075000D01*
X92573103Y-126216190D01*
X92656546Y-126345865D01*
X92783866Y-126432859D01*
X92935000Y-126463464D01*
X94685000Y-126463464D01*
X94826190Y-126436897D01*
X94955865Y-126353454D01*
X95042859Y-126226134D01*
X95073464Y-126075000D01*
X95073464Y-124325000D01*
X95046897Y-124183810D01*
X94963454Y-124054135D01*
X94836134Y-123967141D01*
X94685000Y-123936536D01*
X92935000Y-123936536D01*
X92793810Y-123963103D01*
X92664135Y-124046546D01*
X92577141Y-124173866D01*
X92546536Y-124325000D01*
X90456000Y-124325000D01*
X90456000Y-117605000D01*
X92751536Y-117605000D01*
X92751536Y-118905000D01*
X92778103Y-119046190D01*
X92861546Y-119175865D01*
X92988866Y-119262859D01*
X93140000Y-119293464D01*
X93840000Y-119293464D01*
X93981190Y-119266897D01*
X94110865Y-119183454D01*
X94197859Y-119056134D01*
X94228464Y-118905000D01*
X94228464Y-118902463D01*
X94308946Y-118935882D01*
X94579865Y-118936118D01*
X94661536Y-118902372D01*
X94661536Y-118905000D01*
X94688103Y-119046190D01*
X94771546Y-119175865D01*
X94898866Y-119262859D01*
X95050000Y-119293464D01*
X95750000Y-119293464D01*
X95891190Y-119266897D01*
X96020865Y-119183454D01*
X96107859Y-119056134D01*
X96138464Y-118905000D01*
X96138464Y-117605000D01*
X96111897Y-117463810D01*
X96028454Y-117334135D01*
X95901134Y-117247141D01*
X95750000Y-117216536D01*
X95050000Y-117216536D01*
X94908810Y-117243103D01*
X94779135Y-117326546D01*
X94692141Y-117453866D01*
X94661536Y-117605000D01*
X94661536Y-117607537D01*
X94581054Y-117574118D01*
X94310135Y-117573882D01*
X94228464Y-117607628D01*
X94228464Y-117605000D01*
X94201897Y-117463810D01*
X94118454Y-117334135D01*
X93991134Y-117247141D01*
X93840000Y-117216536D01*
X93140000Y-117216536D01*
X92998810Y-117243103D01*
X92869135Y-117326546D01*
X92782141Y-117453866D01*
X92751536Y-117605000D01*
X90456000Y-117605000D01*
X90456000Y-115115000D01*
X92651536Y-115115000D01*
X92651536Y-116315000D01*
X92678103Y-116456190D01*
X92761546Y-116585865D01*
X92888866Y-116672859D01*
X93040000Y-116703464D01*
X94240000Y-116703464D01*
X94381190Y-116676897D01*
X94510865Y-116593454D01*
X94597859Y-116466134D01*
X94628464Y-116315000D01*
X94628464Y-116221000D01*
X94661536Y-116221000D01*
X94661536Y-116365000D01*
X94688103Y-116506190D01*
X94771546Y-116635865D01*
X94898866Y-116722859D01*
X95050000Y-116753464D01*
X95750000Y-116753464D01*
X95891190Y-116726897D01*
X96020865Y-116643454D01*
X96107859Y-116516134D01*
X96138464Y-116365000D01*
X96138464Y-115065000D01*
X96111897Y-114923810D01*
X96028454Y-114794135D01*
X95901134Y-114707141D01*
X95750000Y-114676536D01*
X95050000Y-114676536D01*
X94908810Y-114703103D01*
X94779135Y-114786546D01*
X94692141Y-114913866D01*
X94661536Y-115065000D01*
X94661536Y-115209000D01*
X94628464Y-115209000D01*
X94628464Y-115115000D01*
X94601897Y-114973810D01*
X94518454Y-114844135D01*
X94391134Y-114757141D01*
X94240000Y-114726536D01*
X93040000Y-114726536D01*
X92898810Y-114753103D01*
X92769135Y-114836546D01*
X92682141Y-114963866D01*
X92651536Y-115115000D01*
X90456000Y-115115000D01*
X90456000Y-111890000D01*
X94021536Y-111890000D01*
X94021536Y-113190000D01*
X94048103Y-113331190D01*
X94131546Y-113460865D01*
X94258866Y-113547859D01*
X94410000Y-113578464D01*
X95110000Y-113578464D01*
X95251190Y-113551897D01*
X95380865Y-113468454D01*
X95458800Y-113354392D01*
X96780204Y-114675796D01*
X96818377Y-114701303D01*
X96808810Y-114703103D01*
X96679135Y-114786546D01*
X96592141Y-114913866D01*
X96561536Y-115065000D01*
X96561536Y-116365000D01*
X96588103Y-116506190D01*
X96671546Y-116635865D01*
X96699630Y-116655054D01*
X96619118Y-116848946D01*
X96618882Y-117119865D01*
X96698999Y-117313764D01*
X96679135Y-117326546D01*
X96592141Y-117453866D01*
X96561536Y-117605000D01*
X96561536Y-118905000D01*
X96588103Y-119046190D01*
X96671546Y-119175865D01*
X96798866Y-119262859D01*
X96950000Y-119293464D01*
X97650000Y-119293464D01*
X97791190Y-119266897D01*
X97920865Y-119183454D01*
X98007859Y-119056134D01*
X98038464Y-118905000D01*
X98038464Y-117605000D01*
X98011897Y-117463810D01*
X97928454Y-117334135D01*
X97900370Y-117314946D01*
X97980882Y-117121054D01*
X97981118Y-116850135D01*
X97901001Y-116656236D01*
X97920865Y-116643454D01*
X98007859Y-116516134D01*
X98038464Y-116365000D01*
X98038464Y-115065000D01*
X98011897Y-114923810D01*
X98000488Y-114906080D01*
X102194000Y-119099592D01*
X102194000Y-120428590D01*
X102232517Y-120622228D01*
X102342204Y-120786386D01*
X103001000Y-121445182D01*
X103001000Y-122686672D01*
X102974483Y-122553362D01*
X102864796Y-122389204D01*
X101808464Y-121332872D01*
X101808464Y-120660000D01*
X101781897Y-120518810D01*
X101698454Y-120389135D01*
X101571134Y-120302141D01*
X101420000Y-120271536D01*
X100170000Y-120271536D01*
X100028810Y-120298103D01*
X99899135Y-120381546D01*
X99812141Y-120508866D01*
X99781536Y-120660000D01*
X99781536Y-121660000D01*
X99808103Y-121801190D01*
X99891546Y-121930865D01*
X100018866Y-122017859D01*
X100054935Y-122025163D01*
X99819750Y-122122339D01*
X99628015Y-122313741D01*
X99524120Y-122563946D01*
X99523884Y-122834865D01*
X99627341Y-123085252D01*
X99818743Y-123276987D01*
X100068948Y-123380882D01*
X100339867Y-123381118D01*
X100590254Y-123277661D01*
X100662040Y-123206000D01*
X101486536Y-123206000D01*
X101486536Y-123903000D01*
X101513103Y-124044190D01*
X101596546Y-124173865D01*
X101723866Y-124260859D01*
X101875000Y-124291464D01*
X102125000Y-124291464D01*
X102254588Y-124267080D01*
X102375000Y-124291464D01*
X102625000Y-124291464D01*
X102766190Y-124264897D01*
X102895865Y-124181454D01*
X102982859Y-124054134D01*
X102999506Y-123971928D01*
X103013103Y-124044190D01*
X103096546Y-124173865D01*
X103223866Y-124260859D01*
X103375000Y-124291464D01*
X103625000Y-124291464D01*
X103754588Y-124267080D01*
X103875000Y-124291464D01*
X104125000Y-124291464D01*
X104266190Y-124264897D01*
X104395865Y-124181454D01*
X104427698Y-124134865D01*
X110318882Y-124134865D01*
X110422339Y-124385252D01*
X110494000Y-124457038D01*
X110494000Y-126542877D01*
X110423013Y-126613741D01*
X110319118Y-126863946D01*
X110318882Y-127134865D01*
X110422339Y-127385252D01*
X110613741Y-127576987D01*
X110863946Y-127680882D01*
X111134865Y-127681118D01*
X111385252Y-127577661D01*
X111500032Y-127463080D01*
X111613741Y-127576987D01*
X111863946Y-127680882D01*
X112134865Y-127681118D01*
X112385252Y-127577661D01*
X112576987Y-127386259D01*
X112680882Y-127136054D01*
X112681118Y-126865135D01*
X112577661Y-126614748D01*
X112506000Y-126542962D01*
X112506000Y-124457123D01*
X112576987Y-124386259D01*
X112680882Y-124136054D01*
X112681118Y-123865135D01*
X112577661Y-123614748D01*
X112386259Y-123423013D01*
X112136054Y-123319118D01*
X111865135Y-123318882D01*
X111614748Y-123422339D01*
X111499968Y-123536920D01*
X111386259Y-123423013D01*
X111136054Y-123319118D01*
X110865135Y-123318882D01*
X110614748Y-123422339D01*
X110423013Y-123613741D01*
X110319118Y-123863946D01*
X110318882Y-124134865D01*
X104427698Y-124134865D01*
X104430339Y-124131000D01*
X106750000Y-124131000D01*
X106888477Y-124104944D01*
X107015660Y-124023104D01*
X107100983Y-123898230D01*
X107131000Y-123750000D01*
X107131000Y-122080999D01*
X107145000Y-122080999D01*
X107482144Y-122013937D01*
X107767961Y-121822960D01*
X108402961Y-121187960D01*
X108593938Y-120902143D01*
X108661000Y-120564999D01*
X108661000Y-119902631D01*
X108771190Y-119881897D01*
X108900865Y-119798454D01*
X108987859Y-119671134D01*
X109018464Y-119520000D01*
X109018464Y-118620000D01*
X108991897Y-118478810D01*
X108908454Y-118349135D01*
X108781134Y-118262141D01*
X108775499Y-118261000D01*
X109050000Y-118261000D01*
X109387144Y-118193938D01*
X109672961Y-118002961D01*
X109718782Y-117934385D01*
X109723866Y-117937859D01*
X109875000Y-117968464D01*
X111225000Y-117968464D01*
X111366190Y-117941897D01*
X111495865Y-117858454D01*
X111582859Y-117731134D01*
X111613464Y-117580000D01*
X111613464Y-117180000D01*
X111589080Y-117050412D01*
X111613464Y-116930000D01*
X111613464Y-116530000D01*
X111589080Y-116400412D01*
X111613464Y-116280000D01*
X111613464Y-115880000D01*
X111589080Y-115750412D01*
X111613464Y-115630000D01*
X111613464Y-115230000D01*
X111586897Y-115088810D01*
X111503454Y-114959135D01*
X111376134Y-114872141D01*
X111225000Y-114841536D01*
X109875000Y-114841536D01*
X109733810Y-114868103D01*
X109604135Y-114951546D01*
X109517141Y-115078866D01*
X109486536Y-115230000D01*
X109486536Y-115630000D01*
X109510920Y-115759588D01*
X109486536Y-115880000D01*
X109486536Y-116280000D01*
X109510920Y-116409588D01*
X109486536Y-116530000D01*
X109486536Y-116632474D01*
X109387144Y-116566062D01*
X109050000Y-116499000D01*
X109018464Y-116499000D01*
X109018464Y-115720000D01*
X108991897Y-115578810D01*
X108908454Y-115449135D01*
X108781134Y-115362141D01*
X108630000Y-115331536D01*
X107993843Y-115331536D01*
X107780000Y-115289000D01*
X107566157Y-115331536D01*
X106930000Y-115331536D01*
X106788810Y-115358103D01*
X106659135Y-115441546D01*
X106595999Y-115533949D01*
X106595999Y-113389999D01*
X106557482Y-113196361D01*
X106447795Y-113032203D01*
X106389490Y-112973898D01*
X106471000Y-112564117D01*
X106471000Y-112515883D01*
X106377296Y-112044800D01*
X106110448Y-111645435D01*
X105711083Y-111378587D01*
X105240000Y-111284883D01*
X104768917Y-111378587D01*
X104369552Y-111645435D01*
X104102704Y-112044800D01*
X104009000Y-112515883D01*
X104009000Y-112564117D01*
X104102704Y-113035200D01*
X104218834Y-113209001D01*
X103721166Y-113209001D01*
X103837296Y-113035200D01*
X103931000Y-112564117D01*
X103931000Y-112515883D01*
X103837296Y-112044800D01*
X103570448Y-111645435D01*
X103171083Y-111378587D01*
X102700000Y-111284883D01*
X102249988Y-111374396D01*
X101533796Y-110658204D01*
X101369638Y-110548517D01*
X101176000Y-110510000D01*
X95334000Y-110510000D01*
X95140362Y-110548517D01*
X94976204Y-110658204D01*
X94402204Y-111232204D01*
X94292517Y-111396362D01*
X94265945Y-111529946D01*
X94139135Y-111611546D01*
X94052141Y-111738866D01*
X94021536Y-111890000D01*
X90456000Y-111890000D01*
X90456000Y-111544912D01*
X90543723Y-111103897D01*
X90768098Y-110768098D01*
X91103897Y-110543723D01*
X91544913Y-110456000D01*
X113455088Y-110456000D01*
X113896103Y-110543723D01*
G36*
X100977205Y-114072797D02*
X101141363Y-114182484D01*
X101335001Y-114221001D01*
X103886402Y-114221001D01*
X103797170Y-114435894D01*
X103796934Y-114706813D01*
X103900391Y-114957200D01*
X104091793Y-115148935D01*
X104181536Y-115186200D01*
X104181536Y-116365000D01*
X104208103Y-116506190D01*
X104291546Y-116635865D01*
X104418866Y-116722859D01*
X104570000Y-116753464D01*
X105089001Y-116753464D01*
X105089001Y-119344599D01*
X105088437Y-119345443D01*
X105049920Y-119539081D01*
X105049920Y-119879082D01*
X105088437Y-120072720D01*
X105174898Y-120202118D01*
X105174801Y-120313946D01*
X105176889Y-120318999D01*
X105039921Y-120318999D01*
X104406010Y-119685088D01*
X104406010Y-118445010D01*
X104365820Y-118242961D01*
X104338948Y-118107865D01*
X104147971Y-117822049D01*
X103079386Y-116753464D01*
X103370000Y-116753464D01*
X103511190Y-116726897D01*
X103640865Y-116643454D01*
X103727859Y-116516134D01*
X103758464Y-116365000D01*
X103758464Y-115065000D01*
X103731897Y-114923810D01*
X103648454Y-114794135D01*
X103521134Y-114707141D01*
X103370000Y-114676536D01*
X102670000Y-114676536D01*
X102528810Y-114703103D01*
X102399135Y-114786546D01*
X102312141Y-114913866D01*
X102281536Y-115065000D01*
X102281536Y-115209000D01*
X102065000Y-115209000D01*
X101871362Y-115247517D01*
X101776355Y-115310999D01*
X101707204Y-115357204D01*
X101695165Y-115369243D01*
X100111365Y-113785443D01*
X100160000Y-113795117D01*
X100610012Y-113705604D01*
X100977205Y-114072797D01*
X100977205Y-114072797D01*
G37*
X100977205Y-114072797D02*
X101141363Y-114182484D01*
X101335001Y-114221001D01*
X103886402Y-114221001D01*
X103797170Y-114435894D01*
X103796934Y-114706813D01*
X103900391Y-114957200D01*
X104091793Y-115148935D01*
X104181536Y-115186200D01*
X104181536Y-116365000D01*
X104208103Y-116506190D01*
X104291546Y-116635865D01*
X104418866Y-116722859D01*
X104570000Y-116753464D01*
X105089001Y-116753464D01*
X105089001Y-119344599D01*
X105088437Y-119345443D01*
X105049920Y-119539081D01*
X105049920Y-119879082D01*
X105088437Y-120072720D01*
X105174898Y-120202118D01*
X105174801Y-120313946D01*
X105176889Y-120318999D01*
X105039921Y-120318999D01*
X104406010Y-119685088D01*
X104406010Y-118445010D01*
X104365820Y-118242961D01*
X104338948Y-118107865D01*
X104147971Y-117822049D01*
X103079386Y-116753464D01*
X103370000Y-116753464D01*
X103511190Y-116726897D01*
X103640865Y-116643454D01*
X103727859Y-116516134D01*
X103758464Y-116365000D01*
X103758464Y-115065000D01*
X103731897Y-114923810D01*
X103648454Y-114794135D01*
X103521134Y-114707141D01*
X103370000Y-114676536D01*
X102670000Y-114676536D01*
X102528810Y-114703103D01*
X102399135Y-114786546D01*
X102312141Y-114913866D01*
X102281536Y-115065000D01*
X102281536Y-115209000D01*
X102065000Y-115209000D01*
X101871362Y-115247517D01*
X101776355Y-115310999D01*
X101707204Y-115357204D01*
X101695165Y-115369243D01*
X100111365Y-113785443D01*
X100160000Y-113795117D01*
X100610012Y-113705604D01*
X100977205Y-114072797D01*
G36*
X106623000Y-123623000D02*
X104127000Y-123623000D01*
X104127000Y-122552606D01*
X105052606Y-121627000D01*
X106623000Y-121627000D01*
X106623000Y-123623000D01*
X106623000Y-123623000D01*
G37*
X106623000Y-123623000D02*
X104127000Y-123623000D01*
X104127000Y-122552606D01*
X105052606Y-121627000D01*
X106623000Y-121627000D01*
X106623000Y-123623000D01*
G36*
X106623000Y-127373000D02*
X105052606Y-127373000D01*
X104127000Y-126447394D01*
X104127000Y-125377000D01*
X106623000Y-125377000D01*
X106623000Y-127373000D01*
X106623000Y-127373000D01*
G37*
X106623000Y-127373000D02*
X105052606Y-127373000D01*
X104127000Y-126447394D01*
X104127000Y-125377000D01*
X106623000Y-125377000D01*
X106623000Y-127373000D01*
M02*
