M48
;DRILL file {KiCad 4.0.5} date Sunday, 09. April 2017 'u43' 16:43:43
;FORMAT={-:-/ absolute / metric / decimal}
FMAT,2
METRIC,TZ
T1C0.400
T2C0.600
T3C0.850
T4C1.000
T5C3.200
%
G90
G05
M71
T1
X91.Y-121.
X91.Y-125.
X91.Y-129.
X94.445Y-118.255
X97.3Y-116.985
X97.942Y-129.473
X100.Y-129.
X100.205Y-122.7
X100.93Y-122.065
X101.5Y-124.5
X102.179Y-127.915
X102.407Y-124.478
X103.007Y-128.289
X103.607Y-124.478
X104.478Y-114.572
X104.5Y-117.5
X104.5Y-124.5
X105.856Y-120.179
X106.775Y-120.155
X109.05Y-123.97
X109.05Y-125.24
X111.Y-124.
X111.Y-127.
X112.Y-124.
X112.Y-127.
T3
X110.55Y-113.58
X110.55Y-118.58
T4
X93.81Y-122.7
X93.81Y-125.2
X97.62Y-112.54
X97.62Y-132.86
X100.16Y-112.54
X100.16Y-132.86
X102.7Y-112.54
X102.7Y-132.86
X105.24Y-112.54
X105.24Y-132.86
X107.78Y-112.54
T5
X93.Y-132.
X112.Y-132.
T2
X112.9Y-112.58G85X113.6Y-112.58
G05
X112.9Y-119.58G85X113.6Y-119.58
G05
T0
M30
